G04 CAM350 V10.1.0 (Build 363) Date:  Mon Jun 15 21:36:37 2015 *
G04 Database: (Untitled) *
G04 Layer 2: PCB1.GBO *
%FSLAX25Y25*%
%MOIN*%
%SFA1.000B1.000*%

%MIA0B0*%
%IPPOS*%
%ADD33R,0.06200X0.02000*%
%ADD34R,0.06200X0.01900*%
%ADD35R,0.01900X0.16100*%
%ADD53C,0.00800*%
%ADD54C,0.00787*%
%ADD55C,0.00600*%
%LNPCB1.GBO*%
%LPD*%
G54D33*
X149400Y220900D03*
G54D34*
Y207150D03*
G54D35*
X145550Y214050D03*
G54D53*
X134500Y205900D02*
G01X152500D01*
X134500D02*
G01Y207750D01*
X152500Y205900D02*
G01Y207750D01*
Y220250D02*
G01Y222100D01*
X134500Y220250D02*
G01Y222100D01*
X152500*
X235000Y440500D02*
G01Y444500D01*
X241000*
Y440500D02*
G01Y444500D01*
X235000Y432500D02*
G01Y436500D01*
Y432500D02*
G01X241000D01*
Y436500*
X192200Y210700D02*
G01Y214500D01*
X184800Y220500D02*
G01Y224300D01*
X192200*
Y220500D02*
G01Y224300D01*
X184800Y210700D02*
G01Y214500D01*
Y210700D02*
G01X192200D01*
X136000Y457500D02*
G01Y461500D01*
X130000Y457500D02*
G01X136000D01*
X130000D02*
G01Y461500D01*
X136000Y465500D02*
G01Y469500D01*
X130000D02*
G01X136000D01*
X130000Y465500D02*
G01Y469500D01*
X136000Y432500D02*
G01Y436500D01*
X130000Y432500D02*
G01X136000D01*
X130000D02*
G01Y436500D01*
X136000Y440500D02*
G01Y444500D01*
X130000D02*
G01X136000D01*
X130000Y440500D02*
G01Y444500D01*
X136000Y407500D02*
G01Y411500D01*
X130000Y407500D02*
G01X136000D01*
X130000D02*
G01Y411500D01*
X136000Y415500D02*
G01Y419500D01*
X130000D02*
G01X136000D01*
X130000Y415500D02*
G01Y419500D01*
X136000Y382500D02*
G01Y386500D01*
X130000Y382500D02*
G01X136000D01*
X130000D02*
G01Y386500D01*
X136000Y390500D02*
G01Y394500D01*
X130000D02*
G01X136000D01*
X130000Y390500D02*
G01Y394500D01*
X136000Y357500D02*
G01Y361500D01*
X130000Y357500D02*
G01X136000D01*
X130000D02*
G01Y361500D01*
X136000Y365500D02*
G01Y369500D01*
X130000D02*
G01X136000D01*
X130000Y365500D02*
G01Y369500D01*
X136000Y332500D02*
G01Y336500D01*
X130000Y332500D02*
G01X136000D01*
X130000D02*
G01Y336500D01*
X136000Y340500D02*
G01Y344500D01*
X130000D02*
G01X136000D01*
X130000Y340500D02*
G01Y344500D01*
X136000Y307500D02*
G01Y311500D01*
X130000Y307500D02*
G01X136000D01*
X130000D02*
G01Y311500D01*
X136000Y315500D02*
G01Y319500D01*
X130000D02*
G01X136000D01*
X130000Y315500D02*
G01Y319500D01*
X136000Y282500D02*
G01Y286500D01*
X130000Y282500D02*
G01X136000D01*
X130000D02*
G01Y286500D01*
X136000Y290500D02*
G01Y294500D01*
X130000D02*
G01X136000D01*
X130000Y290500D02*
G01Y294500D01*
X136000Y257500D02*
G01Y261500D01*
X130000Y257500D02*
G01X136000D01*
X130000D02*
G01Y261500D01*
X136000Y265500D02*
G01Y269500D01*
X130000D02*
G01X136000D01*
X130000Y265500D02*
G01Y269500D01*
X136000Y232500D02*
G01Y236500D01*
X130000Y232500D02*
G01X136000D01*
X130000D02*
G01Y236500D01*
X136000Y240500D02*
G01Y244500D01*
X130000D02*
G01X136000D01*
X130000Y240500D02*
G01Y244500D01*
X162000Y457500D02*
G01Y461500D01*
X156000Y457500D02*
G01X162000D01*
X156000D02*
G01Y461500D01*
X162000Y465500D02*
G01Y469500D01*
X156000D02*
G01X162000D01*
X156000Y465500D02*
G01Y469500D01*
X162000Y432500D02*
G01Y436500D01*
X156000Y432500D02*
G01X162000D01*
X156000D02*
G01Y436500D01*
X162000Y440500D02*
G01Y444500D01*
X156000D02*
G01X162000D01*
X156000Y440500D02*
G01Y444500D01*
X162000Y407500D02*
G01Y411500D01*
X156000Y407500D02*
G01X162000D01*
X156000D02*
G01Y411500D01*
X162000Y415500D02*
G01Y419500D01*
X156000D02*
G01X162000D01*
X156000Y415500D02*
G01Y419500D01*
X162000Y383000D02*
G01Y387000D01*
X156000Y383000D02*
G01X162000D01*
X156000D02*
G01Y387000D01*
X162000Y391000D02*
G01Y395000D01*
X156000D02*
G01X162000D01*
X156000Y391000D02*
G01Y395000D01*
X162000Y357500D02*
G01Y361500D01*
X156000Y357500D02*
G01X162000D01*
X156000D02*
G01Y361500D01*
X162000Y365500D02*
G01Y369500D01*
X156000D02*
G01X162000D01*
X156000Y365500D02*
G01Y369500D01*
X162000Y332500D02*
G01Y336500D01*
X156000Y332500D02*
G01X162000D01*
X156000D02*
G01Y336500D01*
X162000Y340500D02*
G01Y344500D01*
X156000D02*
G01X162000D01*
X156000Y340500D02*
G01Y344500D01*
X162000Y307500D02*
G01Y311500D01*
X156000Y307500D02*
G01X162000D01*
X156000D02*
G01Y311500D01*
X162000Y315500D02*
G01Y319500D01*
X156000D02*
G01X162000D01*
X156000Y315500D02*
G01Y319500D01*
X162000Y282500D02*
G01Y286500D01*
X156000Y282500D02*
G01X162000D01*
X156000D02*
G01Y286500D01*
X162000Y290500D02*
G01Y294500D01*
X156000D02*
G01X162000D01*
X156000Y290500D02*
G01Y294500D01*
X162000Y257500D02*
G01Y261500D01*
X156000Y257500D02*
G01X162000D01*
X156000D02*
G01Y261500D01*
X162000Y265500D02*
G01Y269500D01*
X156000D02*
G01X162000D01*
X156000Y265500D02*
G01Y269500D01*
X162000Y232500D02*
G01Y236500D01*
X156000Y232500D02*
G01X162000D01*
X156000D02*
G01Y236500D01*
X162000Y240500D02*
G01Y244500D01*
X156000D02*
G01X162000D01*
X156000Y240500D02*
G01Y244500D01*
X188500Y457500D02*
G01Y461500D01*
X182500Y457500D02*
G01X188500D01*
X182500D02*
G01Y461500D01*
X188500Y465500D02*
G01Y469500D01*
X182500D02*
G01X188500D01*
X182500Y465500D02*
G01Y469500D01*
X188500Y432500D02*
G01Y436500D01*
X182500Y432500D02*
G01X188500D01*
X182500D02*
G01Y436500D01*
X188500Y440500D02*
G01Y444500D01*
X182500D02*
G01X188500D01*
X182500Y440500D02*
G01Y444500D01*
X188500Y407500D02*
G01Y411500D01*
X182500Y407500D02*
G01X188500D01*
X182500D02*
G01Y411500D01*
X188500Y415500D02*
G01Y419500D01*
X182500D02*
G01X188500D01*
X182500Y415500D02*
G01Y419500D01*
X188500Y383000D02*
G01Y387000D01*
X182500Y383000D02*
G01X188500D01*
X182500D02*
G01Y387000D01*
X188500Y391000D02*
G01Y395000D01*
X182500D02*
G01X188500D01*
X182500Y391000D02*
G01Y395000D01*
X188500Y357500D02*
G01Y361500D01*
X182500Y357500D02*
G01X188500D01*
X182500D02*
G01Y361500D01*
X188500Y365500D02*
G01Y369500D01*
X182500D02*
G01X188500D01*
X182500Y365500D02*
G01Y369500D01*
X188500Y332500D02*
G01Y336500D01*
X182500Y332500D02*
G01X188500D01*
X182500D02*
G01Y336500D01*
X188500Y340500D02*
G01Y344500D01*
X182500D02*
G01X188500D01*
X182500Y340500D02*
G01Y344500D01*
X188500Y307500D02*
G01Y311500D01*
X182500Y307500D02*
G01X188500D01*
X182500D02*
G01Y311500D01*
X188500Y315500D02*
G01Y319500D01*
X182500D02*
G01X188500D01*
X182500Y315500D02*
G01Y319500D01*
X188500Y282500D02*
G01Y286500D01*
X182500Y282500D02*
G01X188500D01*
X182500D02*
G01Y286500D01*
X188500Y290500D02*
G01Y294500D01*
X182500D02*
G01X188500D01*
X182500Y290500D02*
G01Y294500D01*
X188500Y257500D02*
G01Y261500D01*
X182500Y257500D02*
G01X188500D01*
X182500D02*
G01Y261500D01*
X188500Y265500D02*
G01Y269500D01*
X182500D02*
G01X188500D01*
X182500Y265500D02*
G01Y269500D01*
X188500Y232500D02*
G01Y236500D01*
X182500Y232500D02*
G01X188500D01*
X182500D02*
G01Y236500D01*
X188500Y240500D02*
G01Y244500D01*
X182500D02*
G01X188500D01*
X182500Y240500D02*
G01Y244500D01*
X214500Y457500D02*
G01Y461500D01*
X208500Y457500D02*
G01X214500D01*
X208500D02*
G01Y461500D01*
X214500Y465500D02*
G01Y469500D01*
X208500D02*
G01X214500D01*
X208500Y465500D02*
G01Y469500D01*
X214500Y432500D02*
G01Y436500D01*
X208500Y432500D02*
G01X214500D01*
X208500D02*
G01Y436500D01*
X214500Y440500D02*
G01Y444500D01*
X208500D02*
G01X214500D01*
X208500Y440500D02*
G01Y444500D01*
X214500Y407500D02*
G01Y411500D01*
X208500Y407500D02*
G01X214500D01*
X208500D02*
G01Y411500D01*
X214500Y415500D02*
G01Y419500D01*
X208500D02*
G01X214500D01*
X208500Y415500D02*
G01Y419500D01*
X214500Y383000D02*
G01Y387000D01*
X208500Y383000D02*
G01X214500D01*
X208500D02*
G01Y387000D01*
X214500Y391000D02*
G01Y395000D01*
X208500D02*
G01X214500D01*
X208500Y391000D02*
G01Y395000D01*
X214500Y357500D02*
G01Y361500D01*
X208500Y357500D02*
G01X214500D01*
X208500D02*
G01Y361500D01*
X214500Y365500D02*
G01Y369500D01*
X208500D02*
G01X214500D01*
X208500Y365500D02*
G01Y369500D01*
X214500Y332500D02*
G01Y336500D01*
X208500Y332500D02*
G01X214500D01*
X208500D02*
G01Y336500D01*
X214500Y340500D02*
G01Y344500D01*
X208500D02*
G01X214500D01*
X208500Y340500D02*
G01Y344500D01*
X214500Y307500D02*
G01Y311500D01*
X208500Y307500D02*
G01X214500D01*
X208500D02*
G01Y311500D01*
X214500Y315500D02*
G01Y319500D01*
X208500D02*
G01X214500D01*
X208500Y315500D02*
G01Y319500D01*
X214500Y282500D02*
G01Y286500D01*
X208500Y282500D02*
G01X214500D01*
X208500D02*
G01Y286500D01*
X214500Y290500D02*
G01Y294500D01*
X208500D02*
G01X214500D01*
X208500Y290500D02*
G01Y294500D01*
X214500Y257500D02*
G01Y261500D01*
X208500Y257500D02*
G01X214500D01*
X208500D02*
G01Y261500D01*
X214500Y265500D02*
G01Y269500D01*
X208500D02*
G01X214500D01*
X208500Y265500D02*
G01Y269500D01*
X214500Y232500D02*
G01Y236500D01*
X208500Y232500D02*
G01X214500D01*
X208500D02*
G01Y236500D01*
X214500Y240500D02*
G01Y244500D01*
X208500D02*
G01X214500D01*
X208500Y240500D02*
G01Y244500D01*
X241000Y457500D02*
G01Y461500D01*
X235000Y457500D02*
G01X241000D01*
X235000D02*
G01Y461500D01*
X241000Y465500D02*
G01Y469500D01*
X235000D02*
G01X241000D01*
X235000Y465500D02*
G01Y469500D01*
X241000Y407500D02*
G01Y411500D01*
X235000Y407500D02*
G01X241000D01*
X235000D02*
G01Y411500D01*
X241000Y415500D02*
G01Y419500D01*
X235000D02*
G01X241000D01*
X235000Y415500D02*
G01Y419500D01*
X241000Y383000D02*
G01Y387000D01*
X235000Y383000D02*
G01X241000D01*
X235000D02*
G01Y387000D01*
X241000Y391000D02*
G01Y395000D01*
X235000D02*
G01X241000D01*
X235000Y391000D02*
G01Y395000D01*
X241000Y357500D02*
G01Y361500D01*
X235000Y357500D02*
G01X241000D01*
X235000D02*
G01Y361500D01*
X241000Y365500D02*
G01Y369500D01*
X235000D02*
G01X241000D01*
X235000Y365500D02*
G01Y369500D01*
X241000Y332500D02*
G01Y336500D01*
X235000Y332500D02*
G01X241000D01*
X235000D02*
G01Y336500D01*
X241000Y340500D02*
G01Y344500D01*
X235000D02*
G01X241000D01*
X235000Y340500D02*
G01Y344500D01*
X241000Y307500D02*
G01Y311500D01*
X235000Y307500D02*
G01X241000D01*
X235000D02*
G01Y311500D01*
X241000Y315500D02*
G01Y319500D01*
X235000D02*
G01X241000D01*
X235000Y315500D02*
G01Y319500D01*
X241000Y282500D02*
G01Y286500D01*
X235000Y282500D02*
G01X241000D01*
X235000D02*
G01Y286500D01*
X241000Y290500D02*
G01Y294500D01*
X235000D02*
G01X241000D01*
X235000Y290500D02*
G01Y294500D01*
X241000Y257500D02*
G01Y261500D01*
X235000Y257500D02*
G01X241000D01*
X235000D02*
G01Y261500D01*
X241000Y265500D02*
G01Y269500D01*
X235000D02*
G01X241000D01*
X235000Y265500D02*
G01Y269500D01*
X240500Y232500D02*
G01Y236500D01*
X234500Y232500D02*
G01X240500D01*
X234500D02*
G01Y236500D01*
X240500Y240500D02*
G01Y244500D01*
X234500D02*
G01X240500D01*
X234500Y240500D02*
G01Y244500D01*
X267000Y457500D02*
G01Y461500D01*
X261000Y457500D02*
G01X267000D01*
X261000D02*
G01Y461500D01*
X267000Y465500D02*
G01Y469500D01*
X261000D02*
G01X267000D01*
X261000Y465500D02*
G01Y469500D01*
X267000Y432500D02*
G01Y436500D01*
X261000Y432500D02*
G01X267000D01*
X261000D02*
G01Y436500D01*
X267000Y440500D02*
G01Y444500D01*
X261000D02*
G01X267000D01*
X261000Y440500D02*
G01Y444500D01*
X267000Y407500D02*
G01Y411500D01*
X261000Y407500D02*
G01X267000D01*
X261000D02*
G01Y411500D01*
X267000Y415500D02*
G01Y419500D01*
X261000D02*
G01X267000D01*
X261000Y415500D02*
G01Y419500D01*
X267000Y383000D02*
G01Y387000D01*
X261000Y383000D02*
G01X267000D01*
X261000D02*
G01Y387000D01*
X267000Y391000D02*
G01Y395000D01*
X261000D02*
G01X267000D01*
X261000Y391000D02*
G01Y395000D01*
X267000Y357500D02*
G01Y361500D01*
X261000Y357500D02*
G01X267000D01*
X261000D02*
G01Y361500D01*
X267000Y365500D02*
G01Y369500D01*
X261000D02*
G01X267000D01*
X261000Y365500D02*
G01Y369500D01*
X267000Y332500D02*
G01Y336500D01*
X261000Y332500D02*
G01X267000D01*
X261000D02*
G01Y336500D01*
X267000Y340500D02*
G01Y344500D01*
X261000D02*
G01X267000D01*
X261000Y340500D02*
G01Y344500D01*
X267000Y307500D02*
G01Y311500D01*
X261000Y307500D02*
G01X267000D01*
X261000D02*
G01Y311500D01*
X267000Y315500D02*
G01Y319500D01*
X261000D02*
G01X267000D01*
X261000Y315500D02*
G01Y319500D01*
X267000Y282500D02*
G01Y286500D01*
X261000Y282500D02*
G01X267000D01*
X261000D02*
G01Y286500D01*
X267000Y290500D02*
G01Y294500D01*
X261000D02*
G01X267000D01*
X261000Y290500D02*
G01Y294500D01*
X267000Y257500D02*
G01Y261500D01*
X261000Y257500D02*
G01X267000D01*
X261000D02*
G01Y261500D01*
X267000Y265500D02*
G01Y269500D01*
X261000D02*
G01X267000D01*
X261000Y265500D02*
G01Y269500D01*
X267000Y232500D02*
G01Y236500D01*
X261000Y232500D02*
G01X267000D01*
X261000D02*
G01Y236500D01*
X267000Y240500D02*
G01Y244500D01*
X261000D02*
G01X267000D01*
X261000Y240500D02*
G01Y244500D01*
X293000Y457500D02*
G01Y461500D01*
X287000Y457500D02*
G01X293000D01*
X287000D02*
G01Y461500D01*
X293000Y465500D02*
G01Y469500D01*
X287000D02*
G01X293000D01*
X287000Y465500D02*
G01Y469500D01*
X293000Y432500D02*
G01Y436500D01*
X287000Y432500D02*
G01X293000D01*
X287000D02*
G01Y436500D01*
X293000Y440500D02*
G01Y444500D01*
X287000D02*
G01X293000D01*
X287000Y440500D02*
G01Y444500D01*
X293000Y407500D02*
G01Y411500D01*
X287000Y407500D02*
G01X293000D01*
X287000D02*
G01Y411500D01*
X293000Y415500D02*
G01Y419500D01*
X287000D02*
G01X293000D01*
X287000Y415500D02*
G01Y419500D01*
X293000Y383000D02*
G01Y387000D01*
X287000Y383000D02*
G01X293000D01*
X287000D02*
G01Y387000D01*
X293000Y391000D02*
G01Y395000D01*
X287000D02*
G01X293000D01*
X287000Y391000D02*
G01Y395000D01*
X293000Y358000D02*
G01Y362000D01*
X287000Y358000D02*
G01X293000D01*
X287000D02*
G01Y362000D01*
X293000Y366000D02*
G01Y370000D01*
X287000D02*
G01X293000D01*
X287000Y366000D02*
G01Y370000D01*
X293000Y332500D02*
G01Y336500D01*
X287000Y332500D02*
G01X293000D01*
X287000D02*
G01Y336500D01*
X293000Y340500D02*
G01Y344500D01*
X287000D02*
G01X293000D01*
X287000Y340500D02*
G01Y344500D01*
X293000Y307500D02*
G01Y311500D01*
X287000Y307500D02*
G01X293000D01*
X287000D02*
G01Y311500D01*
X293000Y315500D02*
G01Y319500D01*
X287000D02*
G01X293000D01*
X287000Y315500D02*
G01Y319500D01*
X293000Y282500D02*
G01Y286500D01*
X287000Y282500D02*
G01X293000D01*
X287000D02*
G01Y286500D01*
X293000Y290500D02*
G01Y294500D01*
X287000D02*
G01X293000D01*
X287000Y290500D02*
G01Y294500D01*
X293000Y257500D02*
G01Y261500D01*
X287000Y257500D02*
G01X293000D01*
X287000D02*
G01Y261500D01*
X293000Y265500D02*
G01Y269500D01*
X287000D02*
G01X293000D01*
X287000Y265500D02*
G01Y269500D01*
X293000Y232500D02*
G01Y236500D01*
X287000Y232500D02*
G01X293000D01*
X287000D02*
G01Y236500D01*
X293000Y240500D02*
G01Y244500D01*
X287000D02*
G01X293000D01*
X287000Y240500D02*
G01Y244500D01*
X319500Y457500D02*
G01Y461500D01*
X313500Y457500D02*
G01X319500D01*
X313500D02*
G01Y461500D01*
X319500Y465500D02*
G01Y469500D01*
X313500D02*
G01X319500D01*
X313500Y465500D02*
G01Y469500D01*
X319500Y432500D02*
G01Y436500D01*
X313500Y432500D02*
G01X319500D01*
X313500D02*
G01Y436500D01*
X319500Y440500D02*
G01Y444500D01*
X313500D02*
G01X319500D01*
X313500Y440500D02*
G01Y444500D01*
X319500Y407500D02*
G01Y411500D01*
X313500Y407500D02*
G01X319500D01*
X313500D02*
G01Y411500D01*
X319500Y415500D02*
G01Y419500D01*
X313500D02*
G01X319500D01*
X313500Y415500D02*
G01Y419500D01*
X319500Y383000D02*
G01Y387000D01*
X313500Y383000D02*
G01X319500D01*
X313500D02*
G01Y387000D01*
X319500Y391000D02*
G01Y395000D01*
X313500D02*
G01X319500D01*
X313500Y391000D02*
G01Y395000D01*
X319500Y358000D02*
G01Y362000D01*
X313500Y358000D02*
G01X319500D01*
X313500D02*
G01Y362000D01*
X319500Y366000D02*
G01Y370000D01*
X313500D02*
G01X319500D01*
X313500Y366000D02*
G01Y370000D01*
X319500Y332500D02*
G01Y336500D01*
X313500Y332500D02*
G01X319500D01*
X313500D02*
G01Y336500D01*
X319500Y340500D02*
G01Y344500D01*
X313500D02*
G01X319500D01*
X313500Y340500D02*
G01Y344500D01*
X319500Y307500D02*
G01Y311500D01*
X313500Y307500D02*
G01X319500D01*
X313500D02*
G01Y311500D01*
X319500Y315500D02*
G01Y319500D01*
X313500D02*
G01X319500D01*
X313500Y315500D02*
G01Y319500D01*
X319500Y282500D02*
G01Y286500D01*
X313500Y282500D02*
G01X319500D01*
X313500D02*
G01Y286500D01*
X319500Y290500D02*
G01Y294500D01*
X313500D02*
G01X319500D01*
X313500Y290500D02*
G01Y294500D01*
X319500Y257500D02*
G01Y261500D01*
X313500Y257500D02*
G01X319500D01*
X313500D02*
G01Y261500D01*
X319500Y265500D02*
G01Y269500D01*
X313500D02*
G01X319500D01*
X313500Y265500D02*
G01Y269500D01*
X319500Y232500D02*
G01Y236500D01*
X313500Y232500D02*
G01X319500D01*
X313500D02*
G01Y236500D01*
X319500Y240500D02*
G01Y244500D01*
X313500D02*
G01X319500D01*
X313500Y240500D02*
G01Y244500D01*
X345500Y457500D02*
G01Y461500D01*
X339500Y457500D02*
G01X345500D01*
X339500D02*
G01Y461500D01*
X345500Y465500D02*
G01Y469500D01*
X339500D02*
G01X345500D01*
X339500Y465500D02*
G01Y469500D01*
X345500Y432500D02*
G01Y436500D01*
X339500Y432500D02*
G01X345500D01*
X339500D02*
G01Y436500D01*
X345500Y440500D02*
G01Y444500D01*
X339500D02*
G01X345500D01*
X339500Y440500D02*
G01Y444500D01*
X345500Y407500D02*
G01Y411500D01*
X339500Y407500D02*
G01X345500D01*
X339500D02*
G01Y411500D01*
X345500Y415500D02*
G01Y419500D01*
X339500D02*
G01X345500D01*
X339500Y415500D02*
G01Y419500D01*
X345500Y383000D02*
G01Y387000D01*
X339500Y383000D02*
G01X345500D01*
X339500D02*
G01Y387000D01*
X345500Y391000D02*
G01Y395000D01*
X339500D02*
G01X345500D01*
X339500Y391000D02*
G01Y395000D01*
X345500Y358000D02*
G01Y362000D01*
X339500Y358000D02*
G01X345500D01*
X339500D02*
G01Y362000D01*
X345500Y366000D02*
G01Y370000D01*
X339500D02*
G01X345500D01*
X339500Y366000D02*
G01Y370000D01*
X346000Y332500D02*
G01Y336500D01*
X340000Y332500D02*
G01X346000D01*
X340000D02*
G01Y336500D01*
X346000Y340500D02*
G01Y344500D01*
X340000D02*
G01X346000D01*
X340000Y340500D02*
G01Y344500D01*
X346000Y307500D02*
G01Y311500D01*
X340000Y307500D02*
G01X346000D01*
X340000D02*
G01Y311500D01*
X346000Y315500D02*
G01Y319500D01*
X340000D02*
G01X346000D01*
X340000Y315500D02*
G01Y319500D01*
X346000Y282500D02*
G01Y286500D01*
X340000Y282500D02*
G01X346000D01*
X340000D02*
G01Y286500D01*
X346000Y290500D02*
G01Y294500D01*
X340000D02*
G01X346000D01*
X340000Y290500D02*
G01Y294500D01*
X346000Y257500D02*
G01Y261500D01*
X340000Y257500D02*
G01X346000D01*
X340000D02*
G01Y261500D01*
X346000Y265500D02*
G01Y269500D01*
X340000D02*
G01X346000D01*
X340000Y265500D02*
G01Y269500D01*
X346000Y232500D02*
G01Y236500D01*
X340000Y232500D02*
G01X346000D01*
X340000D02*
G01Y236500D01*
X346000Y240500D02*
G01Y244500D01*
X340000D02*
G01X346000D01*
X340000Y240500D02*
G01Y244500D01*
X371500Y457500D02*
G01Y461500D01*
X365500Y457500D02*
G01X371500D01*
X365500D02*
G01Y461500D01*
X371500Y465500D02*
G01Y469500D01*
X365500D02*
G01X371500D01*
X365500Y465500D02*
G01Y469500D01*
X371500Y432500D02*
G01Y436500D01*
X365500Y432500D02*
G01X371500D01*
X365500D02*
G01Y436500D01*
X371500Y440500D02*
G01Y444500D01*
X365500D02*
G01X371500D01*
X365500Y440500D02*
G01Y444500D01*
X371500Y407500D02*
G01Y411500D01*
X365500Y407500D02*
G01X371500D01*
X365500D02*
G01Y411500D01*
X371500Y415500D02*
G01Y419500D01*
X365500D02*
G01X371500D01*
X365500Y415500D02*
G01Y419500D01*
X371500Y383000D02*
G01Y387000D01*
X365500Y383000D02*
G01X371500D01*
X365500D02*
G01Y387000D01*
X371500Y391000D02*
G01Y395000D01*
X365500D02*
G01X371500D01*
X365500Y391000D02*
G01Y395000D01*
X371500Y358000D02*
G01Y362000D01*
X365500Y358000D02*
G01X371500D01*
X365500D02*
G01Y362000D01*
X371500Y366000D02*
G01Y370000D01*
X365500D02*
G01X371500D01*
X365500Y366000D02*
G01Y370000D01*
X371500Y332500D02*
G01Y336500D01*
X365500Y332500D02*
G01X371500D01*
X365500D02*
G01Y336500D01*
X371500Y340500D02*
G01Y344500D01*
X365500D02*
G01X371500D01*
X365500Y340500D02*
G01Y344500D01*
X371500Y307500D02*
G01Y311500D01*
X365500Y307500D02*
G01X371500D01*
X365500D02*
G01Y311500D01*
X371500Y315500D02*
G01Y319500D01*
X365500D02*
G01X371500D01*
X365500Y315500D02*
G01Y319500D01*
X371500Y282500D02*
G01Y286500D01*
X365500Y282500D02*
G01X371500D01*
X365500D02*
G01Y286500D01*
X371500Y290500D02*
G01Y294500D01*
X365500D02*
G01X371500D01*
X365500Y290500D02*
G01Y294500D01*
X371500Y257500D02*
G01Y261500D01*
X365500Y257500D02*
G01X371500D01*
X365500D02*
G01Y261500D01*
X371500Y265500D02*
G01Y269500D01*
X365500D02*
G01X371500D01*
X365500Y265500D02*
G01Y269500D01*
X371500Y232500D02*
G01Y236500D01*
X365500Y232500D02*
G01X371500D01*
X365500D02*
G01Y236500D01*
X371500Y240500D02*
G01Y244500D01*
X365500D02*
G01X371500D01*
X365500Y240500D02*
G01Y244500D01*
G54D54*
X231500Y194500D02*
G01X251500D01*
X231500D02*
G01Y199500D01*
X251500Y194500D02*
G01Y199500D01*
X231500D02*
G01X251500D01*
X248167Y181167D02*
G01Y194500D01*
X246500Y179500D02*
G01X248167Y181167D01*
X244833D02*
G01X246500Y179500D01*
X244833Y181167D02*
G01Y194500D01*
X238167Y181167D02*
G01Y194500D01*
X236500Y179500D02*
G01X238167Y181167D01*
X234833D02*
G01X236500Y179500D01*
X234833Y181167D02*
G01Y194500D01*
X173000Y193500D02*
G01X203000D01*
X173000D02*
G01Y198500D01*
X203000Y193500D02*
G01Y198500D01*
X173000D02*
G01X203000D01*
X199667Y180167D02*
G01Y193500D01*
X198000Y178500D02*
G01X199667Y180167D01*
X196333D02*
G01X198000Y178500D01*
X196333Y180167D02*
G01Y193500D01*
X189667Y180167D02*
G01Y193500D01*
X188000Y178500D02*
G01X189667Y180167D01*
X186333D02*
G01X188000Y178500D01*
X186333Y180167D02*
G01Y193500D01*
X179667Y180167D02*
G01Y193500D01*
X178000Y178500D02*
G01X179667Y180167D01*
X176333D02*
G01X178000Y178500D01*
X176333Y180167D02*
G01Y193500D01*
X343833Y180167D02*
G01Y193500D01*
Y180167D02*
G01X345500Y178500D01*
X347167Y180167*
Y193500*
X353833Y180167D02*
G01Y193500D01*
Y180167D02*
G01X355500Y178500D01*
X357167Y180167*
Y193500*
X363833Y180167D02*
G01Y193500D01*
Y180167D02*
G01X365500Y178500D01*
X367167Y180167*
Y193500*
X340500Y198500D02*
G01X370500D01*
Y193500D02*
G01Y198500D01*
X340500Y193500D02*
G01Y198500D01*
Y193500D02*
G01X370500D01*
G54D55*
X237468Y451665D02*
G01X238301Y452498D01*
X239967*
X240800Y451665*
Y448333*
X239967Y447500*
X238301*
X237468Y448333*
X233302Y447500D02*
G01Y452498D01*
X235802Y449999*
X232469*
X227471Y447500D02*
G01X230803D01*
X227471Y450832*
Y451665*
X228304Y452498*
X229970*
X230803Y451665*
X192000Y227300D02*
G01Y232298D01*
X189501*
X188668Y231465*
Y229799*
X189501Y228966*
X192000*
X190334D02*
G01X188668Y227300D01*
X187002D02*
G01X185336D01*
X186169*
Y232298*
X187002Y231465*
X174500Y224998D02*
G01Y220000D01*
X172001*
X171168Y220833*
Y224165*
X172001Y224998*
X174500*
X169502Y220000D02*
G01X167835D01*
X168669*
Y224998*
X169502Y224165*
X251300Y211900D02*
G01Y216898D01*
X248801*
X247968Y216065*
Y214399*
X248801Y213566*
X251300*
X246302Y211900D02*
G01X244636D01*
X245469*
Y216898*
X246302Y216065*
X202800Y210900D02*
G01Y215898D01*
X200301*
X199468Y215065*
Y213399*
X200301Y212566*
X202800*
X194469Y210900D02*
G01X197802D01*
X194469Y214232*
Y215065*
X195302Y215898*
X196969*
X197802Y215065*
X370300Y210900D02*
G01Y215898D01*
X367801*
X366968Y215065*
Y213399*
X367801Y212566*
X370300*
X365302Y215065D02*
G01X364469Y215898D01*
X362802*
X361969Y215065*
Y214232*
X362802Y213399*
X363635*
X362802*
X361969Y212566*
Y211733*
X362802Y210900*
X364469*
X365302Y211733*
X132468Y476665D02*
G01X133301Y477498D01*
X134967*
X135800Y476665*
Y473333*
X134967Y472500*
X133301*
X132468Y473333*
X130802Y472500D02*
G01X129136D01*
X129969*
Y477498*
X130802Y476665*
X132468Y451665D02*
G01X133301Y452498D01*
X134967*
X135800Y451665*
Y448333*
X134967Y447500*
X133301*
X132468Y448333*
X127469Y447500D02*
G01X130802D01*
X127469Y450832*
Y451665*
X128302Y452498*
X129969*
X130802Y451665*
X132468Y426665D02*
G01X133301Y427498D01*
X134967*
X135800Y426665*
Y423333*
X134967Y422500*
X133301*
X132468Y423333*
X130802Y426665D02*
G01X129969Y427498D01*
X128302*
X127469Y426665*
Y425832*
X128302Y424999*
X129136*
X128302*
X127469Y424166*
Y423333*
X128302Y422500*
X129969*
X130802Y423333*
X132468Y401665D02*
G01X133301Y402498D01*
X134967*
X135800Y401665*
Y398333*
X134967Y397500*
X133301*
X132468Y398333*
X128302Y397500D02*
G01Y402498D01*
X130802Y399999*
X127469*
X132468Y376665D02*
G01X133301Y377498D01*
X134967*
X135800Y376665*
Y373333*
X134967Y372500*
X133301*
X132468Y373333*
X127469Y377498D02*
G01X130802D01*
Y374999*
X129136Y375832*
X128302*
X127469Y374999*
Y373333*
X128302Y372500*
X129969*
X130802Y373333*
X132468Y351665D02*
G01X133301Y352498D01*
X134967*
X135800Y351665*
Y348333*
X134967Y347500*
X133301*
X132468Y348333*
X127469Y352498D02*
G01X129136Y351665D01*
X130802Y349999*
Y348333*
X129969Y347500*
X128302*
X127469Y348333*
Y349166*
X128302Y349999*
X130802*
X132468Y326665D02*
G01X133301Y327498D01*
X134967*
X135800Y326665*
Y323333*
X134967Y322500*
X133301*
X132468Y323333*
X130802Y327498D02*
G01X127469D01*
Y326665*
X130802Y323333*
Y322500*
X132468Y301665D02*
G01X133301Y302498D01*
X134967*
X135800Y301665*
Y298333*
X134967Y297500*
X133301*
X132468Y298333*
X130802Y301665D02*
G01X129969Y302498D01*
X128302*
X127469Y301665*
Y300832*
X128302Y299999*
X127469Y299166*
Y298333*
X128302Y297500*
X129969*
X130802Y298333*
Y299166*
X129969Y299999*
X130802Y300832*
Y301665*
X129969Y299999D02*
G01X128302D01*
X132468Y276665D02*
G01X133301Y277498D01*
X134967*
X135800Y276665*
Y273333*
X134967Y272500*
X133301*
X132468Y273333*
X130802D02*
G01X129969Y272500D01*
X128302*
X127469Y273333*
Y276665*
X128302Y277498*
X129969*
X130802Y276665*
Y275832*
X129969Y274999*
X127469*
X132468Y251665D02*
G01X133301Y252498D01*
X134967*
X135800Y251665*
Y248333*
X134967Y247500*
X133301*
X132468Y248333*
X130802Y247500D02*
G01X129136D01*
X129969*
Y252498*
X130802Y251665*
X126636D02*
G01X125803Y252498D01*
X124137*
X123304Y251665*
Y248333*
X124137Y247500*
X125803*
X126636Y248333*
Y251665*
X158468Y476665D02*
G01X159301Y477498D01*
X160967*
X161800Y476665*
Y473333*
X160967Y472500*
X159301*
X158468Y473333*
X156802Y472500D02*
G01X155136D01*
X155969*
Y477498*
X156802Y476665*
X152636Y472500D02*
G01X150970D01*
X151803*
Y477498*
X152636Y476665*
X158468Y451665D02*
G01X159301Y452498D01*
X160967*
X161800Y451665*
Y448333*
X160967Y447500*
X159301*
X158468Y448333*
X156802Y447500D02*
G01X155136D01*
X155969*
Y452498*
X156802Y451665*
X149304Y447500D02*
G01X152636D01*
X149304Y450832*
Y451665*
X150137Y452498*
X151803*
X152636Y451665*
X158468Y426665D02*
G01X159301Y427498D01*
X160967*
X161800Y426665*
Y423333*
X160967Y422500*
X159301*
X158468Y423333*
X156802Y422500D02*
G01X155136D01*
X155969*
Y427498*
X156802Y426665*
X152636D02*
G01X151803Y427498D01*
X150137*
X149304Y426665*
Y425832*
X150137Y424999*
X150970*
X150137*
X149304Y424166*
Y423333*
X150137Y422500*
X151803*
X152636Y423333*
X158468Y402165D02*
G01X159301Y402998D01*
X160967*
X161800Y402165*
Y398833*
X160967Y398000*
X159301*
X158468Y398833*
X156802Y398000D02*
G01X155136D01*
X155969*
Y402998*
X156802Y402165*
X150137Y398000D02*
G01Y402998D01*
X152636Y400499*
X149304*
X158468Y376665D02*
G01X159301Y377498D01*
X160967*
X161800Y376665*
Y373333*
X160967Y372500*
X159301*
X158468Y373333*
X156802Y372500D02*
G01X155136D01*
X155969*
Y377498*
X156802Y376665*
X149304Y377498D02*
G01X152636D01*
Y374999*
X150970Y375832*
X150137*
X149304Y374999*
Y373333*
X150137Y372500*
X151803*
X152636Y373333*
X158468Y351665D02*
G01X159301Y352498D01*
X160967*
X161800Y351665*
Y348333*
X160967Y347500*
X159301*
X158468Y348333*
X156802Y347500D02*
G01X155136D01*
X155969*
Y352498*
X156802Y351665*
X149304Y352498D02*
G01X150970Y351665D01*
X152636Y349999*
Y348333*
X151803Y347500*
X150137*
X149304Y348333*
Y349166*
X150137Y349999*
X152636*
X158468Y326665D02*
G01X159301Y327498D01*
X160967*
X161800Y326665*
Y323333*
X160967Y322500*
X159301*
X158468Y323333*
X156802Y322500D02*
G01X155136D01*
X155969*
Y327498*
X156802Y326665*
X152636Y327498D02*
G01X149304D01*
Y326665*
X152636Y323333*
Y322500*
X158468Y301665D02*
G01X159301Y302498D01*
X160967*
X161800Y301665*
Y298333*
X160967Y297500*
X159301*
X158468Y298333*
X156802Y297500D02*
G01X155136D01*
X155969*
Y302498*
X156802Y301665*
X152636D02*
G01X151803Y302498D01*
X150137*
X149304Y301665*
Y300832*
X150137Y299999*
X149304Y299166*
Y298333*
X150137Y297500*
X151803*
X152636Y298333*
Y299166*
X151803Y299999*
X152636Y300832*
Y301665*
X151803Y299999D02*
G01X150137D01*
X158468Y276665D02*
G01X159301Y277498D01*
X160967*
X161800Y276665*
Y273333*
X160967Y272500*
X159301*
X158468Y273333*
X156802Y272500D02*
G01X155136D01*
X155969*
Y277498*
X156802Y276665*
X152636Y273333D02*
G01X151803Y272500D01*
X150137*
X149304Y273333*
Y276665*
X150137Y277498*
X151803*
X152636Y276665*
Y275832*
X151803Y274999*
X149304*
X158468Y251665D02*
G01X159301Y252498D01*
X160967*
X161800Y251665*
Y248333*
X160967Y247500*
X159301*
X158468Y248333*
X153469Y247500D02*
G01X156802D01*
X153469Y250832*
Y251665*
X154302Y252498*
X155969*
X156802Y251665*
X151803D02*
G01X150970Y252498D01*
X149304*
X148471Y251665*
Y248333*
X149304Y247500*
X150970*
X151803Y248333*
Y251665*
X184968Y476665D02*
G01X185801Y477498D01*
X187467*
X188300Y476665*
Y473333*
X187467Y472500*
X185801*
X184968Y473333*
X179969Y472500D02*
G01X183302D01*
X179969Y475832*
Y476665*
X180802Y477498*
X182469*
X183302Y476665*
X178303Y472500D02*
G01X176637D01*
X177470*
Y477498*
X178303Y476665*
X184968Y451665D02*
G01X185801Y452498D01*
X187467*
X188300Y451665*
Y448333*
X187467Y447500*
X185801*
X184968Y448333*
X179969Y447500D02*
G01X183302D01*
X179969Y450832*
Y451665*
X180802Y452498*
X182469*
X183302Y451665*
X174971Y447500D02*
G01X178303D01*
X174971Y450832*
Y451665*
X175804Y452498*
X177470*
X178303Y451665*
X184968Y426665D02*
G01X185801Y427498D01*
X187467*
X188300Y426665*
Y423333*
X187467Y422500*
X185801*
X184968Y423333*
X179969Y422500D02*
G01X183302D01*
X179969Y425832*
Y426665*
X180802Y427498*
X182469*
X183302Y426665*
X178303D02*
G01X177470Y427498D01*
X175804*
X174971Y426665*
Y425832*
X175804Y424999*
X176637*
X175804*
X174971Y424166*
Y423333*
X175804Y422500*
X177470*
X178303Y423333*
X184968Y402165D02*
G01X185801Y402998D01*
X187467*
X188300Y402165*
Y398833*
X187467Y398000*
X185801*
X184968Y398833*
X179969Y398000D02*
G01X183302D01*
X179969Y401332*
Y402165*
X180802Y402998*
X182469*
X183302Y402165*
X175804Y398000D02*
G01Y402998D01*
X178303Y400499*
X174971*
X184968Y376665D02*
G01X185801Y377498D01*
X187467*
X188300Y376665*
Y373333*
X187467Y372500*
X185801*
X184968Y373333*
X179969Y372500D02*
G01X183302D01*
X179969Y375832*
Y376665*
X180802Y377498*
X182469*
X183302Y376665*
X174971Y377498D02*
G01X178303D01*
Y374999*
X176637Y375832*
X175804*
X174971Y374999*
Y373333*
X175804Y372500*
X177470*
X178303Y373333*
X184968Y351665D02*
G01X185801Y352498D01*
X187467*
X188300Y351665*
Y348333*
X187467Y347500*
X185801*
X184968Y348333*
X179969Y347500D02*
G01X183302D01*
X179969Y350832*
Y351665*
X180802Y352498*
X182469*
X183302Y351665*
X174971Y352498D02*
G01X176637Y351665D01*
X178303Y349999*
Y348333*
X177470Y347500*
X175804*
X174971Y348333*
Y349166*
X175804Y349999*
X178303*
X184968Y326665D02*
G01X185801Y327498D01*
X187467*
X188300Y326665*
Y323333*
X187467Y322500*
X185801*
X184968Y323333*
X179969Y322500D02*
G01X183302D01*
X179969Y325832*
Y326665*
X180802Y327498*
X182469*
X183302Y326665*
X178303Y327498D02*
G01X174971D01*
Y326665*
X178303Y323333*
Y322500*
X184968Y301665D02*
G01X185801Y302498D01*
X187467*
X188300Y301665*
Y298333*
X187467Y297500*
X185801*
X184968Y298333*
X179969Y297500D02*
G01X183302D01*
X179969Y300832*
Y301665*
X180802Y302498*
X182469*
X183302Y301665*
X178303D02*
G01X177470Y302498D01*
X175804*
X174971Y301665*
Y300832*
X175804Y299999*
X174971Y299166*
Y298333*
X175804Y297500*
X177470*
X178303Y298333*
Y299166*
X177470Y299999*
X178303Y300832*
Y301665*
X177470Y299999D02*
G01X175804D01*
X184968Y276665D02*
G01X185801Y277498D01*
X187467*
X188300Y276665*
Y273333*
X187467Y272500*
X185801*
X184968Y273333*
X179969Y272500D02*
G01X183302D01*
X179969Y275832*
Y276665*
X180802Y277498*
X182469*
X183302Y276665*
X178303Y273333D02*
G01X177470Y272500D01*
X175804*
X174971Y273333*
Y276665*
X175804Y277498*
X177470*
X178303Y276665*
Y275832*
X177470Y274999*
X174971*
X184968Y251665D02*
G01X185801Y252498D01*
X187467*
X188300Y251665*
Y248333*
X187467Y247500*
X185801*
X184968Y248333*
X183302Y251665D02*
G01X182469Y252498D01*
X180802*
X179969Y251665*
Y250832*
X180802Y249999*
X181635*
X180802*
X179969Y249166*
Y248333*
X180802Y247500*
X182469*
X183302Y248333*
X178303Y251665D02*
G01X177470Y252498D01*
X175804*
X174971Y251665*
Y248333*
X175804Y247500*
X177470*
X178303Y248333*
Y251665*
X210668Y476665D02*
G01X211501Y477498D01*
X213167*
X214000Y476665*
Y473333*
X213167Y472500*
X211501*
X210668Y473333*
X209002Y476665D02*
G01X208169Y477498D01*
X206502*
X205669Y476665*
Y475832*
X206502Y474999*
X207335*
X206502*
X205669Y474166*
Y473333*
X206502Y472500*
X208169*
X209002Y473333*
X204003Y472500D02*
G01X202337D01*
X203170*
Y477498*
X204003Y476665*
X210968Y451665D02*
G01X211801Y452498D01*
X213467*
X214300Y451665*
Y448333*
X213467Y447500*
X211801*
X210968Y448333*
X209302Y451665D02*
G01X208469Y452498D01*
X206802*
X205969Y451665*
Y450832*
X206802Y449999*
X207635*
X206802*
X205969Y449166*
Y448333*
X206802Y447500*
X208469*
X209302Y448333*
X200971Y447500D02*
G01X204303D01*
X200971Y450832*
Y451665*
X201804Y452498*
X203470*
X204303Y451665*
X210968Y426665D02*
G01X211801Y427498D01*
X213467*
X214300Y426665*
Y423333*
X213467Y422500*
X211801*
X210968Y423333*
X209302Y426665D02*
G01X208469Y427498D01*
X206802*
X205969Y426665*
Y425832*
X206802Y424999*
X207635*
X206802*
X205969Y424166*
Y423333*
X206802Y422500*
X208469*
X209302Y423333*
X204303Y426665D02*
G01X203470Y427498D01*
X201804*
X200971Y426665*
Y425832*
X201804Y424999*
X202637*
X201804*
X200971Y424166*
Y423333*
X201804Y422500*
X203470*
X204303Y423333*
X210968Y402165D02*
G01X211801Y402998D01*
X213467*
X214300Y402165*
Y398833*
X213467Y398000*
X211801*
X210968Y398833*
X209302Y402165D02*
G01X208469Y402998D01*
X206802*
X205969Y402165*
Y401332*
X206802Y400499*
X207635*
X206802*
X205969Y399666*
Y398833*
X206802Y398000*
X208469*
X209302Y398833*
X201804Y398000D02*
G01Y402998D01*
X204303Y400499*
X200971*
X210968Y376665D02*
G01X211801Y377498D01*
X213467*
X214300Y376665*
Y373333*
X213467Y372500*
X211801*
X210968Y373333*
X209302Y376665D02*
G01X208469Y377498D01*
X206802*
X205969Y376665*
Y375832*
X206802Y374999*
X207635*
X206802*
X205969Y374166*
Y373333*
X206802Y372500*
X208469*
X209302Y373333*
X200971Y377498D02*
G01X204303D01*
Y374999*
X202637Y375832*
X201804*
X200971Y374999*
Y373333*
X201804Y372500*
X203470*
X204303Y373333*
X210968Y351665D02*
G01X211801Y352498D01*
X213467*
X214300Y351665*
Y348333*
X213467Y347500*
X211801*
X210968Y348333*
X209302Y351665D02*
G01X208469Y352498D01*
X206802*
X205969Y351665*
Y350832*
X206802Y349999*
X207635*
X206802*
X205969Y349166*
Y348333*
X206802Y347500*
X208469*
X209302Y348333*
X200971Y352498D02*
G01X202637Y351665D01*
X204303Y349999*
Y348333*
X203470Y347500*
X201804*
X200971Y348333*
Y349166*
X201804Y349999*
X204303*
X210968Y326665D02*
G01X211801Y327498D01*
X213467*
X214300Y326665*
Y323333*
X213467Y322500*
X211801*
X210968Y323333*
X209302Y326665D02*
G01X208469Y327498D01*
X206802*
X205969Y326665*
Y325832*
X206802Y324999*
X207635*
X206802*
X205969Y324166*
Y323333*
X206802Y322500*
X208469*
X209302Y323333*
X204303Y327498D02*
G01X200971D01*
Y326665*
X204303Y323333*
Y322500*
X210968Y301665D02*
G01X211801Y302498D01*
X213467*
X214300Y301665*
Y298333*
X213467Y297500*
X211801*
X210968Y298333*
X209302Y301665D02*
G01X208469Y302498D01*
X206802*
X205969Y301665*
Y300832*
X206802Y299999*
X207635*
X206802*
X205969Y299166*
Y298333*
X206802Y297500*
X208469*
X209302Y298333*
X204303Y301665D02*
G01X203470Y302498D01*
X201804*
X200971Y301665*
Y300832*
X201804Y299999*
X200971Y299166*
Y298333*
X201804Y297500*
X203470*
X204303Y298333*
Y299166*
X203470Y299999*
X204303Y300832*
Y301665*
X203470Y299999D02*
G01X201804D01*
X210968Y276665D02*
G01X211801Y277498D01*
X213467*
X214300Y276665*
Y273333*
X213467Y272500*
X211801*
X210968Y273333*
X209302Y276665D02*
G01X208469Y277498D01*
X206802*
X205969Y276665*
Y275832*
X206802Y274999*
X207635*
X206802*
X205969Y274166*
Y273333*
X206802Y272500*
X208469*
X209302Y273333*
X204303D02*
G01X203470Y272500D01*
X201804*
X200971Y273333*
Y276665*
X201804Y277498*
X203470*
X204303Y276665*
Y275832*
X203470Y274999*
X200971*
X210968Y251665D02*
G01X211801Y252498D01*
X213467*
X214300Y251665*
Y248333*
X213467Y247500*
X211801*
X210968Y248333*
X206802Y247500D02*
G01Y252498D01*
X209302Y249999*
X205969*
X204303Y251665D02*
G01X203470Y252498D01*
X201804*
X200971Y251665*
Y248333*
X201804Y247500*
X203470*
X204303Y248333*
Y251665*
X237468Y476665D02*
G01X238301Y477498D01*
X239967*
X240800Y476665*
Y473333*
X239967Y472500*
X238301*
X237468Y473333*
X233302Y472500D02*
G01Y477498D01*
X235802Y474999*
X232469*
X230803Y472500D02*
G01X229137D01*
X229970*
Y477498*
X230803Y476665*
X237468Y426665D02*
G01X238301Y427498D01*
X239967*
X240800Y426665*
Y423333*
X239967Y422500*
X238301*
X237468Y423333*
X233302Y422500D02*
G01Y427498D01*
X235802Y424999*
X232469*
X230803Y426665D02*
G01X229970Y427498D01*
X228304*
X227471Y426665*
Y425832*
X228304Y424999*
X229137*
X228304*
X227471Y424166*
Y423333*
X228304Y422500*
X229970*
X230803Y423333*
X237468Y402165D02*
G01X238301Y402998D01*
X239967*
X240800Y402165*
Y398833*
X239967Y398000*
X238301*
X237468Y398833*
X233302Y398000D02*
G01Y402998D01*
X235802Y400499*
X232469*
X228304Y398000D02*
G01Y402998D01*
X230803Y400499*
X227471*
X237468Y376665D02*
G01X238301Y377498D01*
X239967*
X240800Y376665*
Y373333*
X239967Y372500*
X238301*
X237468Y373333*
X233302Y372500D02*
G01Y377498D01*
X235802Y374999*
X232469*
X227471Y377498D02*
G01X230803D01*
Y374999*
X229137Y375832*
X228304*
X227471Y374999*
Y373333*
X228304Y372500*
X229970*
X230803Y373333*
X237468Y351665D02*
G01X238301Y352498D01*
X239967*
X240800Y351665*
Y348333*
X239967Y347500*
X238301*
X237468Y348333*
X233302Y347500D02*
G01Y352498D01*
X235802Y349999*
X232469*
X227471Y352498D02*
G01X229137Y351665D01*
X230803Y349999*
Y348333*
X229970Y347500*
X228304*
X227471Y348333*
Y349166*
X228304Y349999*
X230803*
X237468Y326665D02*
G01X238301Y327498D01*
X239967*
X240800Y326665*
Y323333*
X239967Y322500*
X238301*
X237468Y323333*
X233302Y322500D02*
G01Y327498D01*
X235802Y324999*
X232469*
X230803Y327498D02*
G01X227471D01*
Y326665*
X230803Y323333*
Y322500*
X237468Y301665D02*
G01X238301Y302498D01*
X239967*
X240800Y301665*
Y298333*
X239967Y297500*
X238301*
X237468Y298333*
X233302Y297500D02*
G01Y302498D01*
X235802Y299999*
X232469*
X230803Y301665D02*
G01X229970Y302498D01*
X228304*
X227471Y301665*
Y300832*
X228304Y299999*
X227471Y299166*
Y298333*
X228304Y297500*
X229970*
X230803Y298333*
Y299166*
X229970Y299999*
X230803Y300832*
Y301665*
X229970Y299999D02*
G01X228304D01*
X237468Y276665D02*
G01X238301Y277498D01*
X239967*
X240800Y276665*
Y273333*
X239967Y272500*
X238301*
X237468Y273333*
X233302Y272500D02*
G01Y277498D01*
X235802Y274999*
X232469*
X230803Y273333D02*
G01X229970Y272500D01*
X228304*
X227471Y273333*
Y276665*
X228304Y277498*
X229970*
X230803Y276665*
Y275832*
X229970Y274999*
X227471*
X236968Y251665D02*
G01X237801Y252498D01*
X239467*
X240300Y251665*
Y248333*
X239467Y247500*
X237801*
X236968Y248333*
X231969Y252498D02*
G01X235302D01*
Y249999*
X233635Y250832*
X232802*
X231969Y249999*
Y248333*
X232802Y247500*
X234469*
X235302Y248333*
X230303Y251665D02*
G01X229470Y252498D01*
X227804*
X226971Y251665*
Y248333*
X227804Y247500*
X229470*
X230303Y248333*
Y251665*
X263468Y476665D02*
G01X264301Y477498D01*
X265967*
X266800Y476665*
Y473333*
X265967Y472500*
X264301*
X263468Y473333*
X258469Y477498D02*
G01X261802D01*
Y474999*
X260136Y475832*
X259302*
X258469Y474999*
Y473333*
X259302Y472500*
X260969*
X261802Y473333*
X256803Y472500D02*
G01X255137D01*
X255970*
Y477498*
X256803Y476665*
X263468Y451665D02*
G01X264301Y452498D01*
X265967*
X266800Y451665*
Y448333*
X265967Y447500*
X264301*
X263468Y448333*
X258469Y452498D02*
G01X261802D01*
Y449999*
X260136Y450832*
X259302*
X258469Y449999*
Y448333*
X259302Y447500*
X260969*
X261802Y448333*
X253471Y447500D02*
G01X256803D01*
X253471Y450832*
Y451665*
X254304Y452498*
X255970*
X256803Y451665*
X263468Y426665D02*
G01X264301Y427498D01*
X265967*
X266800Y426665*
Y423333*
X265967Y422500*
X264301*
X263468Y423333*
X258469Y427498D02*
G01X261802D01*
Y424999*
X260136Y425832*
X259302*
X258469Y424999*
Y423333*
X259302Y422500*
X260969*
X261802Y423333*
X256803Y426665D02*
G01X255970Y427498D01*
X254304*
X253471Y426665*
Y425832*
X254304Y424999*
X255137*
X254304*
X253471Y424166*
Y423333*
X254304Y422500*
X255970*
X256803Y423333*
X263468Y402165D02*
G01X264301Y402998D01*
X265967*
X266800Y402165*
Y398833*
X265967Y398000*
X264301*
X263468Y398833*
X258469Y402998D02*
G01X261802D01*
Y400499*
X260136Y401332*
X259302*
X258469Y400499*
Y398833*
X259302Y398000*
X260969*
X261802Y398833*
X254304Y398000D02*
G01Y402998D01*
X256803Y400499*
X253471*
X263468Y376665D02*
G01X264301Y377498D01*
X265967*
X266800Y376665*
Y373333*
X265967Y372500*
X264301*
X263468Y373333*
X258469Y377498D02*
G01X261802D01*
Y374999*
X260136Y375832*
X259302*
X258469Y374999*
Y373333*
X259302Y372500*
X260969*
X261802Y373333*
X253471Y377498D02*
G01X256803D01*
Y374999*
X255137Y375832*
X254304*
X253471Y374999*
Y373333*
X254304Y372500*
X255970*
X256803Y373333*
X263468Y351665D02*
G01X264301Y352498D01*
X265967*
X266800Y351665*
Y348333*
X265967Y347500*
X264301*
X263468Y348333*
X258469Y352498D02*
G01X261802D01*
Y349999*
X260136Y350832*
X259302*
X258469Y349999*
Y348333*
X259302Y347500*
X260969*
X261802Y348333*
X253471Y352498D02*
G01X255137Y351665D01*
X256803Y349999*
Y348333*
X255970Y347500*
X254304*
X253471Y348333*
Y349166*
X254304Y349999*
X256803*
X263468Y326665D02*
G01X264301Y327498D01*
X265967*
X266800Y326665*
Y323333*
X265967Y322500*
X264301*
X263468Y323333*
X258469Y327498D02*
G01X261802D01*
Y324999*
X260136Y325832*
X259302*
X258469Y324999*
Y323333*
X259302Y322500*
X260969*
X261802Y323333*
X256803Y327498D02*
G01X253471D01*
Y326665*
X256803Y323333*
Y322500*
X263468Y301665D02*
G01X264301Y302498D01*
X265967*
X266800Y301665*
Y298333*
X265967Y297500*
X264301*
X263468Y298333*
X258469Y302498D02*
G01X261802D01*
Y299999*
X260136Y300832*
X259302*
X258469Y299999*
Y298333*
X259302Y297500*
X260969*
X261802Y298333*
X256803Y301665D02*
G01X255970Y302498D01*
X254304*
X253471Y301665*
Y300832*
X254304Y299999*
X253471Y299166*
Y298333*
X254304Y297500*
X255970*
X256803Y298333*
Y299166*
X255970Y299999*
X256803Y300832*
Y301665*
X255970Y299999D02*
G01X254304D01*
X263468Y276665D02*
G01X264301Y277498D01*
X265967*
X266800Y276665*
Y273333*
X265967Y272500*
X264301*
X263468Y273333*
X258469Y277498D02*
G01X261802D01*
Y274999*
X260136Y275832*
X259302*
X258469Y274999*
Y273333*
X259302Y272500*
X260969*
X261802Y273333*
X256803D02*
G01X255970Y272500D01*
X254304*
X253471Y273333*
Y276665*
X254304Y277498*
X255970*
X256803Y276665*
Y275832*
X255970Y274999*
X253471*
X263468Y251665D02*
G01X264301Y252498D01*
X265967*
X266800Y251665*
Y248333*
X265967Y247500*
X264301*
X263468Y248333*
X258469Y252498D02*
G01X260136Y251665D01*
X261802Y249999*
Y248333*
X260969Y247500*
X259302*
X258469Y248333*
Y249166*
X259302Y249999*
X261802*
X256803Y251665D02*
G01X255970Y252498D01*
X254304*
X253471Y251665*
Y248333*
X254304Y247500*
X255970*
X256803Y248333*
Y251665*
X289468Y476665D02*
G01X290301Y477498D01*
X291967*
X292800Y476665*
Y473333*
X291967Y472500*
X290301*
X289468Y473333*
X284469Y477498D02*
G01X286136Y476665D01*
X287802Y474999*
Y473333*
X286969Y472500*
X285302*
X284469Y473333*
Y474166*
X285302Y474999*
X287802*
X282803Y472500D02*
G01X281137D01*
X281970*
Y477498*
X282803Y476665*
X289468Y451665D02*
G01X290301Y452498D01*
X291967*
X292800Y451665*
Y448333*
X291967Y447500*
X290301*
X289468Y448333*
X284469Y452498D02*
G01X286136Y451665D01*
X287802Y449999*
Y448333*
X286969Y447500*
X285302*
X284469Y448333*
Y449166*
X285302Y449999*
X287802*
X279471Y447500D02*
G01X282803D01*
X279471Y450832*
Y451665*
X280304Y452498*
X281970*
X282803Y451665*
X289468Y426665D02*
G01X290301Y427498D01*
X291967*
X292800Y426665*
Y423333*
X291967Y422500*
X290301*
X289468Y423333*
X284469Y427498D02*
G01X286136Y426665D01*
X287802Y424999*
Y423333*
X286969Y422500*
X285302*
X284469Y423333*
Y424166*
X285302Y424999*
X287802*
X282803Y426665D02*
G01X281970Y427498D01*
X280304*
X279471Y426665*
Y425832*
X280304Y424999*
X281137*
X280304*
X279471Y424166*
Y423333*
X280304Y422500*
X281970*
X282803Y423333*
X289468Y402165D02*
G01X290301Y402998D01*
X291967*
X292800Y402165*
Y398833*
X291967Y398000*
X290301*
X289468Y398833*
X284469Y402998D02*
G01X286136Y402165D01*
X287802Y400499*
Y398833*
X286969Y398000*
X285302*
X284469Y398833*
Y399666*
X285302Y400499*
X287802*
X280304Y398000D02*
G01Y402998D01*
X282803Y400499*
X279471*
X289468Y377165D02*
G01X290301Y377998D01*
X291967*
X292800Y377165*
Y373833*
X291967Y373000*
X290301*
X289468Y373833*
X284469Y377998D02*
G01X286136Y377165D01*
X287802Y375499*
Y373833*
X286969Y373000*
X285302*
X284469Y373833*
Y374666*
X285302Y375499*
X287802*
X279471Y377998D02*
G01X282803D01*
Y375499*
X281137Y376332*
X280304*
X279471Y375499*
Y373833*
X280304Y373000*
X281970*
X282803Y373833*
X289468Y351665D02*
G01X290301Y352498D01*
X291967*
X292800Y351665*
Y348333*
X291967Y347500*
X290301*
X289468Y348333*
X284469Y352498D02*
G01X286136Y351665D01*
X287802Y349999*
Y348333*
X286969Y347500*
X285302*
X284469Y348333*
Y349166*
X285302Y349999*
X287802*
X279471Y352498D02*
G01X281137Y351665D01*
X282803Y349999*
Y348333*
X281970Y347500*
X280304*
X279471Y348333*
Y349166*
X280304Y349999*
X282803*
X289468Y326665D02*
G01X290301Y327498D01*
X291967*
X292800Y326665*
Y323333*
X291967Y322500*
X290301*
X289468Y323333*
X284469Y327498D02*
G01X286136Y326665D01*
X287802Y324999*
Y323333*
X286969Y322500*
X285302*
X284469Y323333*
Y324166*
X285302Y324999*
X287802*
X282803Y327498D02*
G01X279471D01*
Y326665*
X282803Y323333*
Y322500*
X289468Y301665D02*
G01X290301Y302498D01*
X291967*
X292800Y301665*
Y298333*
X291967Y297500*
X290301*
X289468Y298333*
X284469Y302498D02*
G01X286136Y301665D01*
X287802Y299999*
Y298333*
X286969Y297500*
X285302*
X284469Y298333*
Y299166*
X285302Y299999*
X287802*
X282803Y301665D02*
G01X281970Y302498D01*
X280304*
X279471Y301665*
Y300832*
X280304Y299999*
X279471Y299166*
Y298333*
X280304Y297500*
X281970*
X282803Y298333*
Y299166*
X281970Y299999*
X282803Y300832*
Y301665*
X281970Y299999D02*
G01X280304D01*
X289468Y276665D02*
G01X290301Y277498D01*
X291967*
X292800Y276665*
Y273333*
X291967Y272500*
X290301*
X289468Y273333*
X284469Y277498D02*
G01X286136Y276665D01*
X287802Y274999*
Y273333*
X286969Y272500*
X285302*
X284469Y273333*
Y274166*
X285302Y274999*
X287802*
X282803Y273333D02*
G01X281970Y272500D01*
X280304*
X279471Y273333*
Y276665*
X280304Y277498*
X281970*
X282803Y276665*
Y275832*
X281970Y274999*
X279471*
X289468Y251665D02*
G01X290301Y252498D01*
X291967*
X292800Y251665*
Y248333*
X291967Y247500*
X290301*
X289468Y248333*
X287802Y252498D02*
G01X284469D01*
Y251665*
X287802Y248333*
Y247500*
X282803Y251665D02*
G01X281970Y252498D01*
X280304*
X279471Y251665*
Y248333*
X280304Y247500*
X281970*
X282803Y248333*
Y251665*
X315968Y476665D02*
G01X316801Y477498D01*
X318467*
X319300Y476665*
Y473333*
X318467Y472500*
X316801*
X315968Y473333*
X314302Y477498D02*
G01X310969D01*
Y476665*
X314302Y473333*
Y472500*
X309303D02*
G01X307637D01*
X308470*
Y477498*
X309303Y476665*
X315968Y451665D02*
G01X316801Y452498D01*
X318467*
X319300Y451665*
Y448333*
X318467Y447500*
X316801*
X315968Y448333*
X314302Y452498D02*
G01X310969D01*
Y451665*
X314302Y448333*
Y447500*
X305971D02*
G01X309303D01*
X305971Y450832*
Y451665*
X306804Y452498*
X308470*
X309303Y451665*
X315968Y426665D02*
G01X316801Y427498D01*
X318467*
X319300Y426665*
Y423333*
X318467Y422500*
X316801*
X315968Y423333*
X314302Y427498D02*
G01X310969D01*
Y426665*
X314302Y423333*
Y422500*
X309303Y426665D02*
G01X308470Y427498D01*
X306804*
X305971Y426665*
Y425832*
X306804Y424999*
X307637*
X306804*
X305971Y424166*
Y423333*
X306804Y422500*
X308470*
X309303Y423333*
X315968Y402165D02*
G01X316801Y402998D01*
X318467*
X319300Y402165*
Y398833*
X318467Y398000*
X316801*
X315968Y398833*
X314302Y402998D02*
G01X310969D01*
Y402165*
X314302Y398833*
Y398000*
X306804D02*
G01Y402998D01*
X309303Y400499*
X305971*
X315968Y377165D02*
G01X316801Y377998D01*
X318467*
X319300Y377165*
Y373833*
X318467Y373000*
X316801*
X315968Y373833*
X314302Y377998D02*
G01X310969D01*
Y377165*
X314302Y373833*
Y373000*
X305971Y377998D02*
G01X309303D01*
Y375499*
X307637Y376332*
X306804*
X305971Y375499*
Y373833*
X306804Y373000*
X308470*
X309303Y373833*
X315968Y351665D02*
G01X316801Y352498D01*
X318467*
X319300Y351665*
Y348333*
X318467Y347500*
X316801*
X315968Y348333*
X314302Y352498D02*
G01X310969D01*
Y351665*
X314302Y348333*
Y347500*
X305971Y352498D02*
G01X307637Y351665D01*
X309303Y349999*
Y348333*
X308470Y347500*
X306804*
X305971Y348333*
Y349166*
X306804Y349999*
X309303*
X315968Y326665D02*
G01X316801Y327498D01*
X318467*
X319300Y326665*
Y323333*
X318467Y322500*
X316801*
X315968Y323333*
X314302Y327498D02*
G01X310969D01*
Y326665*
X314302Y323333*
Y322500*
X309303Y327498D02*
G01X305971D01*
Y326665*
X309303Y323333*
Y322500*
X315968Y301665D02*
G01X316801Y302498D01*
X318467*
X319300Y301665*
Y298333*
X318467Y297500*
X316801*
X315968Y298333*
X314302Y302498D02*
G01X310969D01*
Y301665*
X314302Y298333*
Y297500*
X309303Y301665D02*
G01X308470Y302498D01*
X306804*
X305971Y301665*
Y300832*
X306804Y299999*
X305971Y299166*
Y298333*
X306804Y297500*
X308470*
X309303Y298333*
Y299166*
X308470Y299999*
X309303Y300832*
Y301665*
X308470Y299999D02*
G01X306804D01*
X315968Y276665D02*
G01X316801Y277498D01*
X318467*
X319300Y276665*
Y273333*
X318467Y272500*
X316801*
X315968Y273333*
X314302Y277498D02*
G01X310969D01*
Y276665*
X314302Y273333*
Y272500*
X309303Y273333D02*
G01X308470Y272500D01*
X306804*
X305971Y273333*
Y276665*
X306804Y277498*
X308470*
X309303Y276665*
Y275832*
X308470Y274999*
X305971*
X315968Y251665D02*
G01X316801Y252498D01*
X318467*
X319300Y251665*
Y248333*
X318467Y247500*
X316801*
X315968Y248333*
X314302Y251665D02*
G01X313469Y252498D01*
X311802*
X310969Y251665*
Y250832*
X311802Y249999*
X310969Y249166*
Y248333*
X311802Y247500*
X313469*
X314302Y248333*
Y249166*
X313469Y249999*
X314302Y250832*
Y251665*
X313469Y249999D02*
G01X311802D01*
X309303Y251665D02*
G01X308470Y252498D01*
X306804*
X305971Y251665*
Y248333*
X306804Y247500*
X308470*
X309303Y248333*
Y251665*
X341968Y476665D02*
G01X342801Y477498D01*
X344467*
X345300Y476665*
Y473333*
X344467Y472500*
X342801*
X341968Y473333*
X340302Y476665D02*
G01X339469Y477498D01*
X337802*
X336969Y476665*
Y475832*
X337802Y474999*
X336969Y474166*
Y473333*
X337802Y472500*
X339469*
X340302Y473333*
Y474166*
X339469Y474999*
X340302Y475832*
Y476665*
X339469Y474999D02*
G01X337802D01*
X335303Y472500D02*
G01X333637D01*
X334470*
Y477498*
X335303Y476665*
X341968Y451665D02*
G01X342801Y452498D01*
X344467*
X345300Y451665*
Y448333*
X344467Y447500*
X342801*
X341968Y448333*
X340302Y451665D02*
G01X339469Y452498D01*
X337802*
X336969Y451665*
Y450832*
X337802Y449999*
X336969Y449166*
Y448333*
X337802Y447500*
X339469*
X340302Y448333*
Y449166*
X339469Y449999*
X340302Y450832*
Y451665*
X339469Y449999D02*
G01X337802D01*
X331971Y447500D02*
G01X335303D01*
X331971Y450832*
Y451665*
X332804Y452498*
X334470*
X335303Y451665*
X341968Y426665D02*
G01X342801Y427498D01*
X344467*
X345300Y426665*
Y423333*
X344467Y422500*
X342801*
X341968Y423333*
X340302Y426665D02*
G01X339469Y427498D01*
X337802*
X336969Y426665*
Y425832*
X337802Y424999*
X336969Y424166*
Y423333*
X337802Y422500*
X339469*
X340302Y423333*
Y424166*
X339469Y424999*
X340302Y425832*
Y426665*
X339469Y424999D02*
G01X337802D01*
X335303Y426665D02*
G01X334470Y427498D01*
X332804*
X331971Y426665*
Y425832*
X332804Y424999*
X333637*
X332804*
X331971Y424166*
Y423333*
X332804Y422500*
X334470*
X335303Y423333*
X341968Y402165D02*
G01X342801Y402998D01*
X344467*
X345300Y402165*
Y398833*
X344467Y398000*
X342801*
X341968Y398833*
X340302Y402165D02*
G01X339469Y402998D01*
X337802*
X336969Y402165*
Y401332*
X337802Y400499*
X336969Y399666*
Y398833*
X337802Y398000*
X339469*
X340302Y398833*
Y399666*
X339469Y400499*
X340302Y401332*
Y402165*
X339469Y400499D02*
G01X337802D01*
X332804Y398000D02*
G01Y402998D01*
X335303Y400499*
X331971*
X341968Y377165D02*
G01X342801Y377998D01*
X344467*
X345300Y377165*
Y373833*
X344467Y373000*
X342801*
X341968Y373833*
X340302Y377165D02*
G01X339469Y377998D01*
X337802*
X336969Y377165*
Y376332*
X337802Y375499*
X336969Y374666*
Y373833*
X337802Y373000*
X339469*
X340302Y373833*
Y374666*
X339469Y375499*
X340302Y376332*
Y377165*
X339469Y375499D02*
G01X337802D01*
X331971Y377998D02*
G01X335303D01*
Y375499*
X333637Y376332*
X332804*
X331971Y375499*
Y373833*
X332804Y373000*
X334470*
X335303Y373833*
X342468Y351665D02*
G01X343301Y352498D01*
X344967*
X345800Y351665*
Y348333*
X344967Y347500*
X343301*
X342468Y348333*
X340802Y351665D02*
G01X339969Y352498D01*
X338302*
X337469Y351665*
Y350832*
X338302Y349999*
X337469Y349166*
Y348333*
X338302Y347500*
X339969*
X340802Y348333*
Y349166*
X339969Y349999*
X340802Y350832*
Y351665*
X339969Y349999D02*
G01X338302D01*
X332471Y352498D02*
G01X334137Y351665D01*
X335803Y349999*
Y348333*
X334970Y347500*
X333304*
X332471Y348333*
Y349166*
X333304Y349999*
X335803*
X342468Y326665D02*
G01X343301Y327498D01*
X344967*
X345800Y326665*
Y323333*
X344967Y322500*
X343301*
X342468Y323333*
X340802Y326665D02*
G01X339969Y327498D01*
X338302*
X337469Y326665*
Y325832*
X338302Y324999*
X337469Y324166*
Y323333*
X338302Y322500*
X339969*
X340802Y323333*
Y324166*
X339969Y324999*
X340802Y325832*
Y326665*
X339969Y324999D02*
G01X338302D01*
X335803Y327498D02*
G01X332471D01*
Y326665*
X335803Y323333*
Y322500*
X342468Y301665D02*
G01X343301Y302498D01*
X344967*
X345800Y301665*
Y298333*
X344967Y297500*
X343301*
X342468Y298333*
X340802Y301665D02*
G01X339969Y302498D01*
X338302*
X337469Y301665*
Y300832*
X338302Y299999*
X337469Y299166*
Y298333*
X338302Y297500*
X339969*
X340802Y298333*
Y299166*
X339969Y299999*
X340802Y300832*
Y301665*
X339969Y299999D02*
G01X338302D01*
X335803Y301665D02*
G01X334970Y302498D01*
X333304*
X332471Y301665*
Y300832*
X333304Y299999*
X332471Y299166*
Y298333*
X333304Y297500*
X334970*
X335803Y298333*
Y299166*
X334970Y299999*
X335803Y300832*
Y301665*
X334970Y299999D02*
G01X333304D01*
X342468Y276665D02*
G01X343301Y277498D01*
X344967*
X345800Y276665*
Y273333*
X344967Y272500*
X343301*
X342468Y273333*
X340802Y276665D02*
G01X339969Y277498D01*
X338302*
X337469Y276665*
Y275832*
X338302Y274999*
X337469Y274166*
Y273333*
X338302Y272500*
X339969*
X340802Y273333*
Y274166*
X339969Y274999*
X340802Y275832*
Y276665*
X339969Y274999D02*
G01X338302D01*
X335803Y273333D02*
G01X334970Y272500D01*
X333304*
X332471Y273333*
Y276665*
X333304Y277498*
X334970*
X335803Y276665*
Y275832*
X334970Y274999*
X332471*
X342468Y251665D02*
G01X343301Y252498D01*
X344967*
X345800Y251665*
Y248333*
X344967Y247500*
X343301*
X342468Y248333*
X340802D02*
G01X339969Y247500D01*
X338302*
X337469Y248333*
Y251665*
X338302Y252498*
X339969*
X340802Y251665*
Y250832*
X339969Y249999*
X337469*
X335803Y251665D02*
G01X334970Y252498D01*
X333304*
X332471Y251665*
Y248333*
X333304Y247500*
X334970*
X335803Y248333*
Y251665*
X367968Y476665D02*
G01X368801Y477498D01*
X370467*
X371300Y476665*
Y473333*
X370467Y472500*
X368801*
X367968Y473333*
X366302D02*
G01X365469Y472500D01*
X363802*
X362969Y473333*
Y476665*
X363802Y477498*
X365469*
X366302Y476665*
Y475832*
X365469Y474999*
X362969*
X361303Y472500D02*
G01X359637D01*
X360470*
Y477498*
X361303Y476665*
X367968Y451665D02*
G01X368801Y452498D01*
X370467*
X371300Y451665*
Y448333*
X370467Y447500*
X368801*
X367968Y448333*
X366302D02*
G01X365469Y447500D01*
X363802*
X362969Y448333*
Y451665*
X363802Y452498*
X365469*
X366302Y451665*
Y450832*
X365469Y449999*
X362969*
X357971Y447500D02*
G01X361303D01*
X357971Y450832*
Y451665*
X358804Y452498*
X360470*
X361303Y451665*
X367968Y426665D02*
G01X368801Y427498D01*
X370467*
X371300Y426665*
Y423333*
X370467Y422500*
X368801*
X367968Y423333*
X366302D02*
G01X365469Y422500D01*
X363802*
X362969Y423333*
Y426665*
X363802Y427498*
X365469*
X366302Y426665*
Y425832*
X365469Y424999*
X362969*
X361303Y426665D02*
G01X360470Y427498D01*
X358804*
X357971Y426665*
Y425832*
X358804Y424999*
X359637*
X358804*
X357971Y424166*
Y423333*
X358804Y422500*
X360470*
X361303Y423333*
X367968Y402165D02*
G01X368801Y402998D01*
X370467*
X371300Y402165*
Y398833*
X370467Y398000*
X368801*
X367968Y398833*
X366302D02*
G01X365469Y398000D01*
X363802*
X362969Y398833*
Y402165*
X363802Y402998*
X365469*
X366302Y402165*
Y401332*
X365469Y400499*
X362969*
X358804Y398000D02*
G01Y402998D01*
X361303Y400499*
X357971*
X367968Y377165D02*
G01X368801Y377998D01*
X370467*
X371300Y377165*
Y373833*
X370467Y373000*
X368801*
X367968Y373833*
X366302D02*
G01X365469Y373000D01*
X363802*
X362969Y373833*
Y377165*
X363802Y377998*
X365469*
X366302Y377165*
Y376332*
X365469Y375499*
X362969*
X357971Y377998D02*
G01X361303D01*
Y375499*
X359637Y376332*
X358804*
X357971Y375499*
Y373833*
X358804Y373000*
X360470*
X361303Y373833*
X367968Y351665D02*
G01X368801Y352498D01*
X370467*
X371300Y351665*
Y348333*
X370467Y347500*
X368801*
X367968Y348333*
X366302D02*
G01X365469Y347500D01*
X363802*
X362969Y348333*
Y351665*
X363802Y352498*
X365469*
X366302Y351665*
Y350832*
X365469Y349999*
X362969*
X357971Y352498D02*
G01X359637Y351665D01*
X361303Y349999*
Y348333*
X360470Y347500*
X358804*
X357971Y348333*
Y349166*
X358804Y349999*
X361303*
X367968Y326665D02*
G01X368801Y327498D01*
X370467*
X371300Y326665*
Y323333*
X370467Y322500*
X368801*
X367968Y323333*
X366302D02*
G01X365469Y322500D01*
X363802*
X362969Y323333*
Y326665*
X363802Y327498*
X365469*
X366302Y326665*
Y325832*
X365469Y324999*
X362969*
X361303Y327498D02*
G01X357971D01*
Y326665*
X361303Y323333*
Y322500*
X367968Y301665D02*
G01X368801Y302498D01*
X370467*
X371300Y301665*
Y298333*
X370467Y297500*
X368801*
X367968Y298333*
X366302D02*
G01X365469Y297500D01*
X363802*
X362969Y298333*
Y301665*
X363802Y302498*
X365469*
X366302Y301665*
Y300832*
X365469Y299999*
X362969*
X361303Y301665D02*
G01X360470Y302498D01*
X358804*
X357971Y301665*
Y300832*
X358804Y299999*
X357971Y299166*
Y298333*
X358804Y297500*
X360470*
X361303Y298333*
Y299166*
X360470Y299999*
X361303Y300832*
Y301665*
X360470Y299999D02*
G01X358804D01*
X367968Y276665D02*
G01X368801Y277498D01*
X370467*
X371300Y276665*
Y273333*
X370467Y272500*
X368801*
X367968Y273333*
X366302D02*
G01X365469Y272500D01*
X363802*
X362969Y273333*
Y276665*
X363802Y277498*
X365469*
X366302Y276665*
Y275832*
X365469Y274999*
X362969*
X361303Y273333D02*
G01X360470Y272500D01*
X358804*
X357971Y273333*
Y276665*
X358804Y277498*
X360470*
X361303Y276665*
Y275832*
X360470Y274999*
X357971*
X367968Y251665D02*
G01X368801Y252498D01*
X370467*
X371300Y251665*
Y248333*
X370467Y247500*
X368801*
X367968Y248333*
X366302Y247500D02*
G01X364635D01*
X365469*
Y252498*
X366302Y251665*
X362136D02*
G01X361303Y252498D01*
X359637*
X358804Y251665*
Y248333*
X359637Y247500*
X361303*
X362136Y248333*
Y251665*
X357138D02*
G01X356305Y252498D01*
X354639*
X353806Y251665*
Y248333*
X354639Y247500*
X356305*
X357138Y248333*
Y251665*
G54D53*
G01X521755Y482064D02*
Y472220D01*
Y482064D02*
X525974D01*
X527380Y481595D01*
X527849Y481126D01*
X528317Y480189D01*
Y478782D01*
X527849Y477845D01*
X527380Y477376D01*
X525974Y476907D01*
X521755D01*
X538161Y479720D02*
X537692Y480657D01*
X536755Y481595D01*
X535817Y482064D01*
X533942D01*
X533005Y481595D01*
X532067Y480657D01*
X531599Y479720D01*
X531130Y478314D01*
Y475970D01*
X531599Y474564D01*
X532067Y473626D01*
X533005Y472689D01*
X533942Y472220D01*
X535817D01*
X536755Y472689D01*
X537692Y473626D01*
X538161Y474564D01*
X541442Y482064D02*
Y472220D01*
Y482064D02*
X545661D01*
X547067Y481595D01*
X547536Y481126D01*
X548005Y480189D01*
Y479251D01*
X547536Y478314D01*
X547067Y477845D01*
X545661Y477376D01*
X541442D02*
X545661D01*
X547067Y476907D01*
X547536Y476439D01*
X548005Y475501D01*
Y474095D01*
X547536Y473157D01*
X547067Y472689D01*
X545661Y472220D01*
X541442D01*
X558786Y482064D02*
Y472220D01*
Y482064D02*
X564880D01*
X558786Y477376D02*
X562536D01*
X569567Y482064D02*
X565817Y472220D01*
X569567Y482064D02*
X573317Y472220D01*
X567224Y475501D02*
X571911D01*
X575661Y482064D02*
Y472220D01*
Y482064D02*
X579880D01*
X581286Y481595D01*
X581755Y481126D01*
X582224Y480189D01*
Y479251D01*
X581755Y478314D01*
X581286Y477845D01*
X579880Y477376D01*
X575661D02*
X579880D01*
X581286Y476907D01*
X581755Y476439D01*
X582224Y475501D01*
Y474095D01*
X581755Y473157D01*
X581286Y472689D01*
X579880Y472220D01*
X575661D01*
X585505Y482064D02*
Y472220D01*
Y482064D02*
X589724D01*
X591130Y481595D01*
X591599Y481126D01*
X592067Y480189D01*
Y479251D01*
X591599Y478314D01*
X591130Y477845D01*
X589724Y477376D01*
X585505D01*
X588786D02*
X592067Y472220D01*
X595349Y482064D02*
Y472220D01*
X605661Y479720D02*
X605192Y480657D01*
X604255Y481595D01*
X603317Y482064D01*
X601442D01*
X600505Y481595D01*
X599567Y480657D01*
X599099Y479720D01*
X598630Y478314D01*
Y475970D01*
X599099Y474564D01*
X599567Y473626D01*
X600505Y472689D01*
X601442Y472220D01*
X603317D01*
X604255Y472689D01*
X605192Y473626D01*
X605661Y474564D01*
X611286Y482064D02*
X607536Y472220D01*
X611286Y482064D02*
X615036Y472220D01*
X608942Y475501D02*
X613630D01*
X619255Y482064D02*
Y472220D01*
X615974Y482064D02*
X622536D01*
X624880D02*
Y472220D01*
X630974Y482064D02*
X630036Y481595D01*
X629099Y480657D01*
X628630Y479720D01*
X628161Y478314D01*
Y475970D01*
X628630Y474564D01*
X629099Y473626D01*
X630036Y472689D01*
X630974Y472220D01*
X632849D01*
X633786Y472689D01*
X634724Y473626D01*
X635192Y474564D01*
X635661Y475970D01*
Y478314D01*
X635192Y479720D01*
X634724Y480657D01*
X633786Y481595D01*
X632849Y482064D01*
X630974D01*
X638942D02*
Y472220D01*
Y482064D02*
X645505Y472220D01*
Y482064D02*
Y472220D01*
X656755Y482064D02*
Y472220D01*
Y482064D02*
X663317Y472220D01*
Y482064D02*
Y472220D01*
X669411Y482064D02*
X668474Y481595D01*
X667536Y480657D01*
X667067Y479720D01*
X666599Y478314D01*
Y475970D01*
X667067Y474564D01*
X667536Y473626D01*
X668474Y472689D01*
X669411Y472220D01*
X671286D01*
X672224Y472689D01*
X673161Y473626D01*
X673630Y474564D01*
X674099Y475970D01*
Y478314D01*
X673630Y479720D01*
X673161Y480657D01*
X672224Y481595D01*
X671286Y482064D01*
X669411D01*
X679255D02*
Y472220D01*
X675974Y482064D02*
X682536D01*
X684880D02*
Y472220D01*
Y482064D02*
X690974D01*
X684880Y477376D02*
X688630D01*
X684880Y472220D02*
X690974D01*
X699880Y480657D02*
X698942Y481595D01*
X697536Y482064D01*
X695661D01*
X694255Y481595D01*
X693317Y480657D01*
Y479720D01*
X693786Y478782D01*
X694255Y478314D01*
X695192Y477845D01*
X698005Y476907D01*
X698942Y476439D01*
X699411Y475970D01*
X699880Y475032D01*
Y473626D01*
X698942Y472689D01*
X697536Y472220D01*
X695661D01*
X694255Y472689D01*
X693317Y473626D01*
X703630Y478782D02*
X703161Y478314D01*
X703630Y477845D01*
X704099Y478314D01*
X703630Y478782D01*
Y473157D02*
X703161Y472689D01*
X703630Y472220D01*
X704099Y472689D01*
X703630Y473157D01*
X522692Y460189D02*
X523630Y460657D01*
X525036Y462064D01*
Y452220D01*
X531599Y453157D02*
X531130Y452689D01*
X531599Y452220D01*
X532067Y452689D01*
X531599Y453157D01*
X550817Y462064D02*
Y452220D01*
Y462064D02*
X555036D01*
X556442Y461595D01*
X556911Y461126D01*
X557380Y460189D01*
Y459251D01*
X556911Y458314D01*
X556442Y457845D01*
X555036Y457376D01*
X550817D02*
X555036D01*
X556442Y456907D01*
X556911Y456439D01*
X557380Y455501D01*
Y454095D01*
X556911Y453157D01*
X556442Y452689D01*
X555036Y452220D01*
X550817D01*
X563005Y462064D02*
X562067Y461595D01*
X561130Y460657D01*
X560661Y459720D01*
X560192Y458314D01*
Y455970D01*
X560661Y454564D01*
X561130Y453626D01*
X562067Y452689D01*
X563005Y452220D01*
X564880D01*
X565817Y452689D01*
X566755Y453626D01*
X567224Y454564D01*
X567692Y455970D01*
Y458314D01*
X567224Y459720D01*
X566755Y460657D01*
X565817Y461595D01*
X564880Y462064D01*
X563005D01*
X573317D02*
X569567Y452220D01*
X573317Y462064D02*
X577067Y452220D01*
X570974Y455501D02*
X575661D01*
X579411Y462064D02*
Y452220D01*
Y462064D02*
X583630D01*
X585036Y461595D01*
X585505Y461126D01*
X585974Y460189D01*
Y459251D01*
X585505Y458314D01*
X585036Y457845D01*
X583630Y457376D01*
X579411D01*
X582692D02*
X585974Y452220D01*
X589255Y462064D02*
Y452220D01*
Y462064D02*
X592536D01*
X593942Y461595D01*
X594880Y460657D01*
X595349Y459720D01*
X595817Y458314D01*
Y455970D01*
X595349Y454564D01*
X594880Y453626D01*
X593942Y452689D01*
X592536Y452220D01*
X589255D01*
X606599Y462064D02*
Y452220D01*
Y462064D02*
X610349Y452220D01*
X614099Y462064D02*
X610349Y452220D01*
X614099Y462064D02*
Y452220D01*
X620192Y462064D02*
X616442Y452220D01*
X620192Y462064D02*
X623942Y452220D01*
X617849Y455501D02*
X622536D01*
X628161Y462064D02*
Y452220D01*
X624880Y462064D02*
X631442D01*
X633786D02*
Y452220D01*
Y462064D02*
X639880D01*
X633786Y457376D02*
X637536D01*
X633786Y452220D02*
X639880D01*
X642692Y462064D02*
Y452220D01*
Y462064D02*
X646911D01*
X648317Y461595D01*
X648786Y461126D01*
X649255Y460189D01*
Y459251D01*
X648786Y458314D01*
X648317Y457845D01*
X646911Y457376D01*
X642692D01*
X645974D02*
X649255Y452220D01*
X652536Y462064D02*
Y452220D01*
X658630Y462064D02*
X654880Y452220D01*
X658630Y462064D02*
X662380Y452220D01*
X656286Y455501D02*
X660974D01*
X664724Y462064D02*
Y452220D01*
Y452220D02*
X670349D01*
X680192Y462064D02*
Y452220D01*
X690036Y460657D02*
X689099Y461595D01*
X687692Y462064D01*
X685817D01*
X684411Y461595D01*
X683474Y460657D01*
Y459720D01*
X683942Y458782D01*
X684411Y458314D01*
X685349Y457845D01*
X688161Y456907D01*
X689099Y456439D01*
X689567Y455970D01*
X690036Y455032D01*
Y453626D01*
X689099Y452689D01*
X687692Y452220D01*
X685817D01*
X684411Y452689D01*
X683474Y453626D01*
X700817Y462064D02*
Y452220D01*
Y462064D02*
X706911D01*
X700817Y457376D02*
X704567D01*
X709255Y462064D02*
Y452220D01*
Y462064D02*
X713474D01*
X714880Y461595D01*
X715349Y461126D01*
X715817Y460189D01*
Y459251D01*
X715349Y458314D01*
X714880Y457845D01*
X713474Y457376D01*
X709255D01*
X712536D02*
X715817Y452220D01*
X723317Y462064D02*
X718630Y455501D01*
X725661D01*
X723317Y462064D02*
Y452220D01*
X737849Y462064D02*
Y452220D01*
X734567Y462064D02*
X741130D01*
X750036Y459720D02*
X749567Y460657D01*
X748630Y461595D01*
X747692Y462064D01*
X745817D01*
X744880Y461595D01*
X743942Y460657D01*
X743474Y459720D01*
X743005Y458314D01*
Y455970D01*
X743474Y454564D01*
X743942Y453626D01*
X744880Y452689D01*
X745817Y452220D01*
X747692D01*
X748630Y452689D01*
X749567Y453626D01*
X750036Y454564D01*
Y455970D01*
X747692D02*
X750036D01*
X754255Y460189D02*
X755192Y460657D01*
X756599Y462064D01*
Y452220D01*
X767849Y462064D02*
X763161D01*
X762692Y457845D01*
X763161Y458314D01*
X764567Y458782D01*
X765974D01*
X767380Y458314D01*
X768317Y457376D01*
X768786Y455970D01*
Y455032D01*
X768317Y453626D01*
X767380Y452689D01*
X765974Y452220D01*
X764567D01*
X763161Y452689D01*
X762692Y453157D01*
X762224Y454095D01*
X774411Y462064D02*
X773005Y461595D01*
X772067Y460189D01*
X771599Y457845D01*
Y456439D01*
X772067Y454095D01*
X773005Y452689D01*
X774411Y452220D01*
X775349D01*
X776755Y452689D01*
X777692Y454095D01*
X778161Y456439D01*
Y457845D01*
X777692Y460189D01*
X776755Y461595D01*
X775349Y462064D01*
X774411D01*
X521755Y439720D02*
Y440189D01*
X522224Y441126D01*
X522692Y441595D01*
X523630Y442064D01*
X525505D01*
X526442Y441595D01*
X526911Y441126D01*
X527380Y440189D01*
Y439251D01*
X526911Y438314D01*
X525974Y436907D01*
X521286Y432220D01*
X527849D01*
X531599Y433157D02*
X531130Y432689D01*
X531599Y432220D01*
X532067Y432689D01*
X531599Y433157D01*
X550817Y442064D02*
Y432220D01*
Y442064D02*
X556911D01*
X550817Y437376D02*
X554567D01*
X550817Y432220D02*
X556911D01*
X559724Y442064D02*
Y432220D01*
Y442064D02*
X566286Y432220D01*
Y442064D02*
Y432220D01*
X570036Y442064D02*
Y432220D01*
Y442064D02*
X573317D01*
X574724Y441595D01*
X575661Y440657D01*
X576130Y439720D01*
X576599Y438314D01*
Y435970D01*
X576130Y434564D01*
X575661Y433626D01*
X574724Y432689D01*
X573317Y432220D01*
X570036D01*
X587380Y442064D02*
Y432220D01*
X593005Y442064D02*
Y432220D01*
X589724Y442064D02*
X596286D01*
X598630D02*
Y432220D01*
Y442064D02*
X604724D01*
X598630Y437376D02*
X602380D01*
X598630Y432220D02*
X604724D01*
X607536Y442064D02*
Y432220D01*
Y442064D02*
X611286Y432220D01*
X615036Y442064D02*
X611286Y432220D01*
X615036Y442064D02*
Y432220D01*
X628161Y442064D02*
Y432220D01*
X624880Y442064D02*
X631442D01*
X633786D02*
Y432220D01*
X640349Y442064D02*
Y432220D01*
X633786Y437376D02*
X640349D01*
X644099Y442064D02*
Y432220D01*
X654411Y439720D02*
X653942Y440657D01*
X653005Y441595D01*
X652067Y442064D01*
X650192D01*
X649255Y441595D01*
X648317Y440657D01*
X647849Y439720D01*
X647380Y438314D01*
Y435970D01*
X647849Y434564D01*
X648317Y433626D01*
X649255Y432689D01*
X650192Y432220D01*
X652067D01*
X653005Y432689D01*
X653942Y433626D01*
X654411Y434564D01*
X657692Y442064D02*
Y432220D01*
X664255Y442064D02*
X657692Y435501D01*
X660036Y437845D02*
X664255Y432220D01*
X667536Y442064D02*
Y432220D01*
Y442064D02*
X674099Y432220D01*
Y442064D02*
Y432220D01*
X677849Y442064D02*
Y432220D01*
Y442064D02*
X683942D01*
X677849Y437376D02*
X681599D01*
X677849Y432220D02*
X683942D01*
X692849Y440657D02*
X691911Y441595D01*
X690505Y442064D01*
X688630D01*
X687224Y441595D01*
X686286Y440657D01*
Y439720D01*
X686755Y438782D01*
X687224Y438314D01*
X688161Y437845D01*
X690974Y436907D01*
X691911Y436439D01*
X692380Y435970D01*
X692849Y435032D01*
Y433626D01*
X691911Y432689D01*
X690505Y432220D01*
X688630D01*
X687224Y432689D01*
X686286Y433626D01*
X702224Y440657D02*
X701286Y441595D01*
X699880Y442064D01*
X698005D01*
X696599Y441595D01*
X695661Y440657D01*
Y439720D01*
X696130Y438782D01*
X696599Y438314D01*
X697536Y437845D01*
X700349Y436907D01*
X701286Y436439D01*
X701755Y435970D01*
X702224Y435032D01*
Y433626D01*
X701286Y432689D01*
X699880Y432220D01*
X698005D01*
X696599Y432689D01*
X695661Y433626D01*
X719099Y440657D02*
X718161Y441595D01*
X716755Y442064D01*
X714880D01*
X713474Y441595D01*
X712536Y440657D01*
Y439720D01*
X713005Y438782D01*
X713474Y438314D01*
X714411Y437845D01*
X717224Y436907D01*
X718161Y436439D01*
X718630Y435970D01*
X719099Y435032D01*
Y433626D01*
X718161Y432689D01*
X716755Y432220D01*
X714880D01*
X713474Y432689D01*
X712536Y433626D01*
X722380Y442064D02*
Y432220D01*
X728942Y442064D02*
Y432220D01*
X722380Y437376D02*
X728942D01*
X735036Y442064D02*
X734099Y441595D01*
X733161Y440657D01*
X732692Y439720D01*
X732224Y438314D01*
Y435970D01*
X732692Y434564D01*
X733161Y433626D01*
X734099Y432689D01*
X735036Y432220D01*
X736911D01*
X737849Y432689D01*
X738786Y433626D01*
X739255Y434564D01*
X739724Y435970D01*
Y438314D01*
X739255Y439720D01*
X738786Y440657D01*
X737849Y441595D01*
X736911Y442064D01*
X735036D01*
X743005D02*
Y435032D01*
X743474Y433626D01*
X744411Y432689D01*
X745817Y432220D01*
X746755D01*
X748161Y432689D01*
X749099Y433626D01*
X749567Y435032D01*
Y442064D01*
X753317D02*
Y432220D01*
Y432220D02*
X758942D01*
X761286Y442064D02*
Y432220D01*
Y442064D02*
X764567D01*
X765974Y441595D01*
X766911Y440657D01*
X767380Y439720D01*
X767849Y438314D01*
Y435970D01*
X767380Y434564D01*
X766911Y433626D01*
X765974Y432689D01*
X764567Y432220D01*
X761286D01*
X778630Y442064D02*
Y432220D01*
Y442064D02*
X782849D01*
X784255Y441595D01*
X784724Y441126D01*
X785192Y440189D01*
Y439251D01*
X784724Y438314D01*
X784255Y437845D01*
X782849Y437376D01*
X778630D02*
X782849D01*
X784255Y436907D01*
X784724Y436439D01*
X785192Y435501D01*
Y434095D01*
X784724Y433157D01*
X784255Y432689D01*
X782849Y432220D01*
X778630D01*
X788474Y442064D02*
Y432220D01*
Y442064D02*
X794567D01*
X788474Y437376D02*
X792224D01*
X788474Y432220D02*
X794567D01*
X807224Y442064D02*
X805817Y441595D01*
X804880Y440189D01*
X804411Y437845D01*
Y436439D01*
X804880Y434095D01*
X805817Y432689D01*
X807224Y432220D01*
X808161D01*
X809567Y432689D01*
X810505Y434095D01*
X810974Y436439D01*
Y437845D01*
X810505Y440189D01*
X809567Y441595D01*
X808161Y442064D01*
X807224D01*
X814724Y433157D02*
X814255Y432689D01*
X814724Y432220D01*
X815192Y432689D01*
X814724Y433157D01*
X821286Y442064D02*
X819880Y441595D01*
X818942Y440189D01*
X818474Y437845D01*
Y436439D01*
X818942Y434095D01*
X819880Y432689D01*
X821286Y432220D01*
X822224D01*
X823630Y432689D01*
X824567Y434095D01*
X825036Y436439D01*
Y437845D01*
X824567Y440189D01*
X823630Y441595D01*
X822224Y442064D01*
X821286D01*
X833942Y440657D02*
X833474Y441595D01*
X832067Y442064D01*
X831130D01*
X829724Y441595D01*
X828786Y440189D01*
X828317Y437845D01*
Y435501D01*
X828786Y433626D01*
X829724Y432689D01*
X831130Y432220D01*
X831599D01*
X833005Y432689D01*
X833942Y433626D01*
X834411Y435032D01*
Y435501D01*
X833942Y436907D01*
X833005Y437845D01*
X831599Y438314D01*
X831130D01*
X829724Y437845D01*
X828786Y436907D01*
X828317Y435501D01*
X837692Y439720D02*
Y440189D01*
X838161Y441126D01*
X838630Y441595D01*
X839567Y442064D01*
X841442D01*
X842380Y441595D01*
X842849Y441126D01*
X843317Y440189D01*
Y439251D01*
X842849Y438314D01*
X841911Y436907D01*
X837224Y432220D01*
X843786D01*
X847067Y442064D02*
Y438782D01*
X850817Y442064D02*
Y438782D01*
X522224Y422064D02*
X527380D01*
X524567Y418314D01*
X525974D01*
X526911Y417845D01*
X527380Y417376D01*
X527849Y415970D01*
Y415032D01*
X527380Y413626D01*
X526442Y412689D01*
X525036Y412220D01*
X523630D01*
X522224Y412689D01*
X521755Y413157D01*
X521286Y414095D01*
X531599Y413157D02*
X531130Y412689D01*
X531599Y412220D01*
X532067Y412689D01*
X531599Y413157D01*
X551755Y420189D02*
X552692Y420657D01*
X554099Y422064D01*
Y412220D01*
X570036Y422064D02*
X569099Y421595D01*
X568161Y420657D01*
X567692Y419720D01*
X567224Y418314D01*
Y415970D01*
X567692Y414564D01*
X568161Y413626D01*
X569099Y412689D01*
X570036Y412220D01*
X571911D01*
X572849Y412689D01*
X573786Y413626D01*
X574255Y414564D01*
X574724Y415970D01*
Y418314D01*
X574255Y419720D01*
X573786Y420657D01*
X572849Y421595D01*
X571911Y422064D01*
X570036D01*
X584099D02*
X577536Y412220D01*
Y422064D02*
X584099D01*
X577536Y412220D02*
X584099D01*
X601442Y419720D02*
X600974Y420657D01*
X600036Y421595D01*
X599099Y422064D01*
X597224D01*
X596286Y421595D01*
X595349Y420657D01*
X594880Y419720D01*
X594411Y418314D01*
Y415970D01*
X594880Y414564D01*
X595349Y413626D01*
X596286Y412689D01*
X597224Y412220D01*
X599099D01*
X600036Y412689D01*
X600974Y413626D01*
X601442Y414564D01*
X607067Y422064D02*
X606130Y421595D01*
X605192Y420657D01*
X604724Y419720D01*
X604255Y418314D01*
Y415970D01*
X604724Y414564D01*
X605192Y413626D01*
X606130Y412689D01*
X607067Y412220D01*
X608942D01*
X609880Y412689D01*
X610817Y413626D01*
X611286Y414564D01*
X611755Y415970D01*
Y418314D01*
X611286Y419720D01*
X610817Y420657D01*
X609880Y421595D01*
X608942Y422064D01*
X607067D01*
X615036D02*
Y412220D01*
Y422064D02*
X619255D01*
X620661Y421595D01*
X621130Y421126D01*
X621599Y420189D01*
Y418782D01*
X621130Y417845D01*
X620661Y417376D01*
X619255Y416907D01*
X615036D01*
X624880Y422064D02*
Y412220D01*
Y422064D02*
X629099D01*
X630505Y421595D01*
X630974Y421126D01*
X631442Y420189D01*
Y418782D01*
X630974Y417845D01*
X630505Y417376D01*
X629099Y416907D01*
X624880D01*
X634724Y422064D02*
Y412220D01*
Y422064D02*
X640817D01*
X634724Y417376D02*
X638474D01*
X634724Y412220D02*
X640817D01*
X643630Y422064D02*
Y412220D01*
Y422064D02*
X647849D01*
X649255Y421595D01*
X649724Y421126D01*
X650192Y420189D01*
Y419251D01*
X649724Y418314D01*
X649255Y417845D01*
X647849Y417376D01*
X643630D01*
X646911D02*
X650192Y412220D01*
X660974Y422064D02*
Y412220D01*
Y422064D02*
X665192D01*
X666599Y421595D01*
X667067Y421126D01*
X667536Y420189D01*
Y418782D01*
X667067Y417845D01*
X666599Y417376D01*
X665192Y416907D01*
X660974D01*
X670817Y422064D02*
Y412220D01*
Y412220D02*
X676442D01*
X681130Y422064D02*
X677380Y412220D01*
X681130Y422064D02*
X684880Y412220D01*
X678786Y415501D02*
X683474D01*
X689099Y422064D02*
Y412220D01*
X685817Y422064D02*
X692380D01*
X694724D02*
Y412220D01*
X698474Y422064D02*
Y412220D01*
Y422064D02*
X705036Y412220D01*
Y422064D02*
Y412220D01*
X715349Y419720D02*
X714880Y420657D01*
X713942Y421595D01*
X713005Y422064D01*
X711130D01*
X710192Y421595D01*
X709255Y420657D01*
X708786Y419720D01*
X708317Y418314D01*
Y415970D01*
X708786Y414564D01*
X709255Y413626D01*
X710192Y412689D01*
X711130Y412220D01*
X713005D01*
X713942Y412689D01*
X714880Y413626D01*
X715349Y414564D01*
Y415970D01*
X713005D02*
X715349D01*
X525974Y402064D02*
X521286Y395501D01*
X528317D01*
X525974Y402064D02*
Y392220D01*
X531599Y393157D02*
X531130Y392689D01*
X531599Y392220D01*
X532067Y392689D01*
X531599Y393157D01*
X557380Y399720D02*
X556911Y400657D01*
X555974Y401595D01*
X555036Y402064D01*
X553161D01*
X552224Y401595D01*
X551286Y400657D01*
X550817Y399720D01*
X550349Y398314D01*
Y395970D01*
X550817Y394564D01*
X551286Y393626D01*
X552224Y392689D01*
X553161Y392220D01*
X555036D01*
X555974Y392689D01*
X556911Y393626D01*
X557380Y394564D01*
Y395970D01*
X555036D02*
X557380D01*
X560661Y402064D02*
Y392220D01*
Y392220D02*
X566286D01*
X570974Y402064D02*
X570036Y401595D01*
X569099Y400657D01*
X568630Y399720D01*
X568161Y398314D01*
Y395970D01*
X568630Y394564D01*
X569099Y393626D01*
X570036Y392689D01*
X570974Y392220D01*
X572849D01*
X573786Y392689D01*
X574724Y393626D01*
X575192Y394564D01*
X575661Y395970D01*
Y398314D01*
X575192Y399720D01*
X574724Y400657D01*
X573786Y401595D01*
X572849Y402064D01*
X570974D01*
X585036Y400657D02*
X584099Y401595D01*
X582692Y402064D01*
X580817D01*
X579411Y401595D01*
X578474Y400657D01*
Y399720D01*
X578942Y398782D01*
X579411Y398314D01*
X580349Y397845D01*
X583161Y396907D01*
X584099Y396439D01*
X584567Y395970D01*
X585036Y395032D01*
Y393626D01*
X584099Y392689D01*
X582692Y392220D01*
X580817D01*
X579411Y392689D01*
X578474Y393626D01*
X594411Y400657D02*
X593474Y401595D01*
X592067Y402064D01*
X590192D01*
X588786Y401595D01*
X587849Y400657D01*
Y399720D01*
X588317Y398782D01*
X588786Y398314D01*
X589724Y397845D01*
X592536Y396907D01*
X593474Y396439D01*
X593942Y395970D01*
X594411Y395032D01*
Y393626D01*
X593474Y392689D01*
X592067Y392220D01*
X590192D01*
X588786Y392689D01*
X587849Y393626D01*
X605192Y402064D02*
Y392220D01*
Y402064D02*
X609411D01*
X610817Y401595D01*
X611286Y401126D01*
X611755Y400189D01*
Y399251D01*
X611286Y398314D01*
X610817Y397845D01*
X609411Y397376D01*
X605192D02*
X609411D01*
X610817Y396907D01*
X611286Y396439D01*
X611755Y395501D01*
Y394095D01*
X611286Y393157D01*
X610817Y392689D01*
X609411Y392220D01*
X605192D01*
X615036Y402064D02*
Y392220D01*
Y392220D02*
X620661D01*
X623005Y402064D02*
Y395032D01*
X623474Y393626D01*
X624411Y392689D01*
X625817Y392220D01*
X626755D01*
X628161Y392689D01*
X629099Y393626D01*
X629567Y395032D01*
Y402064D01*
X633317D02*
Y392220D01*
Y402064D02*
X639411D01*
X633317Y397376D02*
X637067D01*
X633317Y392220D02*
X639411D01*
X649724Y402064D02*
Y392220D01*
Y392220D02*
X655349D01*
X657692Y402064D02*
Y392220D01*
Y402064D02*
X661911D01*
X663317Y401595D01*
X663786Y401126D01*
X664255Y400189D01*
Y398782D01*
X663786Y397845D01*
X663317Y397376D01*
X661911Y396907D01*
X657692D01*
X667536Y402064D02*
Y392220D01*
X684880Y400657D02*
X683942Y401595D01*
X682536Y402064D01*
X680661D01*
X679255Y401595D01*
X678317Y400657D01*
Y399720D01*
X678786Y398782D01*
X679255Y398314D01*
X680192Y397845D01*
X683005Y396907D01*
X683942Y396439D01*
X684411Y395970D01*
X684880Y395032D01*
Y393626D01*
X683942Y392689D01*
X682536Y392220D01*
X680661D01*
X679255Y392689D01*
X678317Y393626D01*
X690505Y402064D02*
X689567Y401595D01*
X688630Y400657D01*
X688161Y399720D01*
X687692Y398314D01*
Y395970D01*
X688161Y394564D01*
X688630Y393626D01*
X689567Y392689D01*
X690505Y392220D01*
X692380D01*
X693317Y392689D01*
X694255Y393626D01*
X694724Y394564D01*
X695192Y395970D01*
Y398314D01*
X694724Y399720D01*
X694255Y400657D01*
X693317Y401595D01*
X692380Y402064D01*
X690505D01*
X698474D02*
Y392220D01*
Y392220D02*
X704099D01*
X706442Y402064D02*
Y392220D01*
Y402064D02*
X709724D01*
X711130Y401595D01*
X712067Y400657D01*
X712536Y399720D01*
X713005Y398314D01*
Y395970D01*
X712536Y394564D01*
X712067Y393626D01*
X711130Y392689D01*
X709724Y392220D01*
X706442D01*
X716286Y402064D02*
Y392220D01*
Y402064D02*
X722380D01*
X716286Y397376D02*
X720036D01*
X716286Y392220D02*
X722380D01*
X725192Y402064D02*
Y392220D01*
Y402064D02*
X729411D01*
X730817Y401595D01*
X731286Y401126D01*
X731755Y400189D01*
Y399251D01*
X731286Y398314D01*
X730817Y397845D01*
X729411Y397376D01*
X725192D01*
X728474D02*
X731755Y392220D01*
X735036Y402064D02*
Y392220D01*
Y402064D02*
X738786Y392220D01*
X742536Y402064D02*
X738786Y392220D01*
X742536Y402064D02*
Y392220D01*
X748630Y402064D02*
X744880Y392220D01*
X748630Y402064D02*
X752380Y392220D01*
X746286Y395501D02*
X750974D01*
X760817Y400657D02*
X759880Y401595D01*
X758474Y402064D01*
X756599D01*
X755192Y401595D01*
X754255Y400657D01*
Y399720D01*
X754724Y398782D01*
X755192Y398314D01*
X756130Y397845D01*
X758942Y396907D01*
X759880Y396439D01*
X760349Y395970D01*
X760817Y395032D01*
Y393626D01*
X759880Y392689D01*
X758474Y392220D01*
X756599D01*
X755192Y392689D01*
X754255Y393626D01*
X764099Y402064D02*
Y392220D01*
X770661Y402064D02*
X764099Y395501D01*
X766442Y397845D02*
X770661Y392220D01*
X783786Y402064D02*
X782849Y401595D01*
X781911Y400657D01*
X781442Y399720D01*
X780974Y398314D01*
Y395970D01*
X781442Y394564D01*
X781911Y393626D01*
X782849Y392689D01*
X783786Y392220D01*
X785661D01*
X786599Y392689D01*
X787536Y393626D01*
X788005Y394564D01*
X788474Y395970D01*
Y398314D01*
X788005Y399720D01*
X787536Y400657D01*
X786599Y401595D01*
X785661Y402064D01*
X783786D01*
X790349D02*
X794099Y392220D01*
X797849Y402064D02*
X794099Y392220D01*
X800192Y402064D02*
Y392220D01*
Y402064D02*
X806286D01*
X800192Y397376D02*
X803942D01*
X800192Y392220D02*
X806286D01*
X809099Y402064D02*
Y392220D01*
Y402064D02*
X813317D01*
X814724Y401595D01*
X815192Y401126D01*
X815661Y400189D01*
Y399251D01*
X815192Y398314D01*
X814724Y397845D01*
X813317Y397376D01*
X809099D01*
X812380D02*
X815661Y392220D01*
X826442Y402064D02*
Y392220D01*
Y402064D02*
X830661D01*
X832067Y401595D01*
X832536Y401126D01*
X833005Y400189D01*
Y399251D01*
X832536Y398314D01*
X832067Y397845D01*
X830661Y397376D01*
X826442D02*
X830661D01*
X832067Y396907D01*
X832536Y396439D01*
X833005Y395501D01*
Y394095D01*
X832536Y393157D01*
X832067Y392689D01*
X830661Y392220D01*
X826442D01*
X838630Y402064D02*
X834880Y392220D01*
X838630Y402064D02*
X842380Y392220D01*
X836286Y395501D02*
X840974D01*
X844724Y402064D02*
Y392220D01*
Y402064D02*
X848942D01*
X850349Y401595D01*
X850817Y401126D01*
X851286Y400189D01*
Y399251D01*
X850817Y398314D01*
X850349Y397845D01*
X848942Y397376D01*
X844724D01*
X848005D02*
X851286Y392220D01*
X854567Y402064D02*
Y392220D01*
Y402064D02*
X860661D01*
X854567Y397376D02*
X858317D01*
X854567Y392220D02*
X860661D01*
X877536Y399720D02*
X877067Y400657D01*
X876130Y401595D01*
X875192Y402064D01*
X873317D01*
X872380Y401595D01*
X871442Y400657D01*
X870974Y399720D01*
X870505Y398314D01*
Y395970D01*
X870974Y394564D01*
X871442Y393626D01*
X872380Y392689D01*
X873317Y392220D01*
X875192D01*
X876130Y392689D01*
X877067Y393626D01*
X877536Y394564D01*
X883161Y402064D02*
X882224Y401595D01*
X881286Y400657D01*
X880817Y399720D01*
X880349Y398314D01*
Y395970D01*
X880817Y394564D01*
X881286Y393626D01*
X882224Y392689D01*
X883161Y392220D01*
X885036D01*
X885974Y392689D01*
X886911Y393626D01*
X887380Y394564D01*
X887849Y395970D01*
Y398314D01*
X887380Y399720D01*
X886911Y400657D01*
X885974Y401595D01*
X885036Y402064D01*
X883161D01*
X891130D02*
Y392220D01*
Y402064D02*
X895349D01*
X896755Y401595D01*
X897224Y401126D01*
X897692Y400189D01*
Y398782D01*
X897224Y397845D01*
X896755Y397376D01*
X895349Y396907D01*
X891130D01*
X900974Y402064D02*
Y392220D01*
Y402064D02*
X905192D01*
X906599Y401595D01*
X907067Y401126D01*
X907536Y400189D01*
Y398782D01*
X907067Y397845D01*
X906599Y397376D01*
X905192Y396907D01*
X900974D01*
X910817Y402064D02*
Y392220D01*
Y402064D02*
X916911D01*
X910817Y397376D02*
X914567D01*
X910817Y392220D02*
X916911D01*
X919724Y402064D02*
Y392220D01*
Y402064D02*
X923942D01*
X925349Y401595D01*
X925817Y401126D01*
X926286Y400189D01*
Y399251D01*
X925817Y398314D01*
X925349Y397845D01*
X923942Y397376D01*
X919724D01*
X923005D02*
X926286Y392220D01*
X526911Y382064D02*
X522224D01*
X521755Y377845D01*
X522224Y378314D01*
X523630Y378782D01*
X525036D01*
X526442Y378314D01*
X527380Y377376D01*
X527849Y375970D01*
Y375032D01*
X527380Y373626D01*
X526442Y372689D01*
X525036Y372220D01*
X523630D01*
X522224Y372689D01*
X521755Y373157D01*
X521286Y374095D01*
X531599Y373157D02*
X531130Y372689D01*
X531599Y372220D01*
X532067Y372689D01*
X531599Y373157D01*
X550817Y382064D02*
Y372220D01*
X557380Y382064D02*
Y372220D01*
X550817Y377376D02*
X557380D01*
X563474Y382064D02*
X562536Y381595D01*
X561599Y380657D01*
X561130Y379720D01*
X560661Y378314D01*
Y375970D01*
X561130Y374564D01*
X561599Y373626D01*
X562536Y372689D01*
X563474Y372220D01*
X565349D01*
X566286Y372689D01*
X567224Y373626D01*
X567692Y374564D01*
X568161Y375970D01*
Y378314D01*
X567692Y379720D01*
X567224Y380657D01*
X566286Y381595D01*
X565349Y382064D01*
X563474D01*
X573317D02*
Y372220D01*
X570036Y382064D02*
X576599D01*
X588786D02*
X585036Y372220D01*
X588786Y382064D02*
X592536Y372220D01*
X586442Y375501D02*
X591130D01*
X594880Y382064D02*
Y372220D01*
X598630Y382064D02*
Y372220D01*
Y382064D02*
X602849D01*
X604255Y381595D01*
X604724Y381126D01*
X605192Y380189D01*
Y379251D01*
X604724Y378314D01*
X604255Y377845D01*
X602849Y377376D01*
X598630D01*
X601911D02*
X605192Y372220D01*
X615974Y382064D02*
Y372220D01*
Y372220D02*
X621599D01*
X623942Y382064D02*
Y372220D01*
Y382064D02*
X630036D01*
X623942Y377376D02*
X627692D01*
X623942Y372220D02*
X630036D01*
X631442Y382064D02*
X635192Y372220D01*
X638942Y382064D02*
X635192Y372220D01*
X641286Y382064D02*
Y372220D01*
Y382064D02*
X647380D01*
X641286Y377376D02*
X645036D01*
X641286Y372220D02*
X647380D01*
X650192Y382064D02*
Y372220D01*
Y372220D02*
X655817D01*
X658161Y382064D02*
Y372220D01*
Y382064D02*
X664255D01*
X658161Y377376D02*
X661911D01*
X658161Y372220D02*
X664255D01*
X667067Y382064D02*
Y372220D01*
Y382064D02*
X670349D01*
X671755Y381595D01*
X672692Y380657D01*
X673161Y379720D01*
X673630Y378314D01*
Y375970D01*
X673161Y374564D01*
X672692Y373626D01*
X671755Y372689D01*
X670349Y372220D01*
X667067D01*
X690505Y380657D02*
X689567Y381595D01*
X688161Y382064D01*
X686286D01*
X684880Y381595D01*
X683942Y380657D01*
Y379720D01*
X684411Y378782D01*
X684880Y378314D01*
X685817Y377845D01*
X688630Y376907D01*
X689567Y376439D01*
X690036Y375970D01*
X690505Y375032D01*
Y373626D01*
X689567Y372689D01*
X688161Y372220D01*
X686286D01*
X684880Y372689D01*
X683942Y373626D01*
X696130Y382064D02*
X695192Y381595D01*
X694255Y380657D01*
X693786Y379720D01*
X693317Y378314D01*
Y375970D01*
X693786Y374564D01*
X694255Y373626D01*
X695192Y372689D01*
X696130Y372220D01*
X698005D01*
X698942Y372689D01*
X699880Y373626D01*
X700349Y374564D01*
X700817Y375970D01*
Y378314D01*
X700349Y379720D01*
X699880Y380657D01*
X698942Y381595D01*
X698005Y382064D01*
X696130D01*
X704099D02*
Y372220D01*
Y372220D02*
X709724D01*
X712067Y382064D02*
Y372220D01*
Y382064D02*
X715349D01*
X716755Y381595D01*
X717692Y380657D01*
X718161Y379720D01*
X718630Y378314D01*
Y375970D01*
X718161Y374564D01*
X717692Y373626D01*
X716755Y372689D01*
X715349Y372220D01*
X712067D01*
X721911Y382064D02*
Y372220D01*
Y382064D02*
X728005D01*
X721911Y377376D02*
X725661D01*
X721911Y372220D02*
X728005D01*
X730817Y382064D02*
Y372220D01*
Y382064D02*
X735036D01*
X736442Y381595D01*
X736911Y381126D01*
X737380Y380189D01*
Y379251D01*
X736911Y378314D01*
X736442Y377845D01*
X735036Y377376D01*
X730817D01*
X734099D02*
X737380Y372220D01*
X748161Y382064D02*
Y372220D01*
Y382064D02*
X752380D01*
X753786Y381595D01*
X754255Y381126D01*
X754724Y380189D01*
Y378782D01*
X754255Y377845D01*
X753786Y377376D01*
X752380Y376907D01*
X748161D01*
X758005Y382064D02*
Y372220D01*
Y372220D02*
X763630D01*
X768317Y382064D02*
X764567Y372220D01*
X768317Y382064D02*
X772067Y372220D01*
X765974Y375501D02*
X770661D01*
X776286Y382064D02*
Y372220D01*
X773005Y382064D02*
X779567D01*
X781911D02*
Y372220D01*
X785661Y382064D02*
Y372220D01*
Y382064D02*
X792224Y372220D01*
Y382064D02*
Y372220D01*
X802536Y379720D02*
X802067Y380657D01*
X801130Y381595D01*
X800192Y382064D01*
X798317D01*
X797380Y381595D01*
X796442Y380657D01*
X795974Y379720D01*
X795505Y378314D01*
Y375970D01*
X795974Y374564D01*
X796442Y373626D01*
X797380Y372689D01*
X798317Y372220D01*
X800192D01*
X801130Y372689D01*
X802067Y373626D01*
X802536Y374564D01*
Y375970D01*
X800192D02*
X802536D01*
X806755Y372689D02*
X806286Y372220D01*
X805817Y372689D01*
X806286Y373157D01*
X806755Y372689D01*
Y371751D01*
X806286Y370814D01*
X805817Y370345D01*
X820349Y382064D02*
X818942Y381595D01*
X818005Y380189D01*
X817536Y377845D01*
Y376439D01*
X818005Y374095D01*
X818942Y372689D01*
X820349Y372220D01*
X821286D01*
X822692Y372689D01*
X823630Y374095D01*
X824099Y376439D01*
Y377845D01*
X823630Y380189D01*
X822692Y381595D01*
X821286Y382064D01*
X820349D01*
X827849Y373157D02*
X827380Y372689D01*
X827849Y372220D01*
X828317Y372689D01*
X827849Y373157D01*
X834411Y382064D02*
X833005Y381595D01*
X832067Y380189D01*
X831599Y377845D01*
Y376439D01*
X832067Y374095D01*
X833005Y372689D01*
X834411Y372220D01*
X835349D01*
X836755Y372689D01*
X837692Y374095D01*
X838161Y376439D01*
Y377845D01*
X837692Y380189D01*
X836755Y381595D01*
X835349Y382064D01*
X834411D01*
X843786D02*
X842380Y381595D01*
X841442Y380189D01*
X840974Y377845D01*
Y376439D01*
X841442Y374095D01*
X842380Y372689D01*
X843786Y372220D01*
X844724D01*
X846130Y372689D01*
X847067Y374095D01*
X847536Y376439D01*
Y377845D01*
X847067Y380189D01*
X846130Y381595D01*
X844724Y382064D01*
X843786D01*
X853161D02*
X851755Y381595D01*
X850817Y380189D01*
X850349Y377845D01*
Y376439D01*
X850817Y374095D01*
X851755Y372689D01*
X853161Y372220D01*
X854099D01*
X855505Y372689D01*
X856442Y374095D01*
X856911Y376439D01*
Y377845D01*
X856442Y380189D01*
X855505Y381595D01*
X854099Y382064D01*
X853161D01*
X860661D02*
X865817D01*
X863005Y378314D01*
X864411D01*
X865349Y377845D01*
X865817Y377376D01*
X866286Y375970D01*
Y375032D01*
X865817Y373626D01*
X864880Y372689D01*
X863474Y372220D01*
X862067D01*
X860661Y372689D01*
X860192Y373157D01*
X859724Y374095D01*
X877067Y382064D02*
Y372220D01*
X880817Y382064D02*
Y372220D01*
Y382064D02*
X887380Y372220D01*
Y382064D02*
Y372220D01*
X897692Y379720D02*
X897224Y380657D01*
X896286Y381595D01*
X895349Y382064D01*
X893474D01*
X892536Y381595D01*
X891599Y380657D01*
X891130Y379720D01*
X890661Y378314D01*
Y375970D01*
X891130Y374564D01*
X891599Y373626D01*
X892536Y372689D01*
X893474Y372220D01*
X895349D01*
X896286Y372689D01*
X897224Y373626D01*
X897692Y374564D01*
X900974Y382064D02*
Y372220D01*
X907536Y382064D02*
Y372220D01*
X900974Y377376D02*
X907536D01*
X918786Y382064D02*
Y372220D01*
Y382064D02*
X922536Y372220D01*
X926286Y382064D02*
X922536Y372220D01*
X926286Y382064D02*
Y372220D01*
X930036Y382064D02*
Y372220D01*
X933786Y382064D02*
Y372220D01*
Y382064D02*
X940349Y372220D01*
Y382064D02*
Y372220D01*
G54D55*
G01X383061Y199800D02*
X383296Y200269D01*
X383764Y200737D01*
X384233Y200972D01*
X385171D01*
X385639Y200737D01*
X386108Y200269D01*
X386343Y199800D01*
X386577Y199097D01*
Y197925D01*
X386343Y197222D01*
X386108Y196753D01*
X385639Y196284D01*
X385171Y196050D01*
X384233D01*
X383764Y196284D01*
X383296Y196753D01*
X383061Y197222D01*
Y197925D01*
X384233D02*
X383061D01*
X381421Y200972D02*
Y196050D01*
Y200972D02*
X378139Y196050D01*
Y200972D02*
Y196050D01*
X376264Y200972D02*
Y196050D01*
Y200972D02*
X374624D01*
X373921Y200737D01*
X373452Y200269D01*
X373218Y199800D01*
X372983Y199097D01*
Y197925D01*
X373218Y197222D01*
X373452Y196753D01*
X373921Y196284D01*
X374624Y196050D01*
X376264D01*
G01X334613Y200709D02*
Y196490D01*
X336723Y198599D02*
X332504D01*
X328051Y201412D02*
X330394D01*
X330629Y199302D01*
X330394Y199537D01*
X329691Y199771D01*
X328988D01*
X328285Y199537D01*
X327816Y199068D01*
X327582Y198365D01*
Y197896D01*
X327816Y197193D01*
X328285Y196724D01*
X328988Y196490D01*
X329691D01*
X330394Y196724D01*
X330629Y196959D01*
X330863Y197427D01*
X326644Y201412D02*
X324769Y196490D01*
X322894Y201412D02*
X324769Y196490D01*
G01X359043Y198422D02*
Y193500D01*
Y198422D02*
X357402D01*
X356699Y198187D01*
X356230Y197719D01*
X355996Y197250D01*
X355761Y196547D01*
Y195375D01*
X355996Y194672D01*
X356230Y194203D01*
X356699Y193734D01*
X357402Y193500D01*
X359043D01*
X352949Y198422D02*
X353418Y198187D01*
X353886Y197719D01*
X354121Y197250D01*
X354355Y196547D01*
Y195375D01*
X354121Y194672D01*
X353886Y194203D01*
X353418Y193734D01*
X352949Y193500D01*
X352011D01*
X351543Y193734D01*
X351074Y194203D01*
X350839Y194672D01*
X350605Y195375D01*
Y196547D01*
X350839Y197250D01*
X351074Y197719D01*
X351543Y198187D01*
X352011Y198422D01*
X352949D01*
G01X190423D02*
Y193500D01*
Y198422D02*
X188782D01*
X188079Y198187D01*
X187610Y197719D01*
X187376Y197250D01*
X187141Y196547D01*
Y195375D01*
X187376Y194672D01*
X187610Y194203D01*
X188079Y193734D01*
X188782Y193500D01*
X190423D01*
X185501Y198422D02*
Y193500D01*
G01X263821Y201040D02*
X264056Y201509D01*
X264524Y201977D01*
X264993Y202212D01*
X265931D01*
X266399Y201977D01*
X266868Y201509D01*
X267103Y201040D01*
X267337Y200337D01*
Y199165D01*
X267103Y198462D01*
X266868Y197993D01*
X266399Y197524D01*
X265931Y197290D01*
X264993D01*
X264524Y197524D01*
X264056Y197993D01*
X263821Y198462D01*
Y199165D01*
X264993D02*
X263821D01*
X262181Y202212D02*
Y197290D01*
Y202212D02*
X258899Y197290D01*
Y202212D02*
Y197290D01*
X257024Y202212D02*
Y197290D01*
Y202212D02*
X255384D01*
X254681Y201977D01*
X254212Y201509D01*
X253978Y201040D01*
X253743Y200337D01*
Y199165D01*
X253978Y198462D01*
X254212Y197993D01*
X254681Y197524D01*
X255384Y197290D01*
X257024D01*
G01X228453Y202289D02*
Y198070D01*
X230563Y200179D02*
X226344D01*
X221891Y202992D02*
X224234D01*
X224469Y200882D01*
X224234Y201117D01*
X223531Y201351D01*
X222828D01*
X222125Y201117D01*
X221656Y200648D01*
X221422Y199945D01*
Y199476D01*
X221656Y198773D01*
X222125Y198304D01*
X222828Y198070D01*
X223531D01*
X224234Y198304D01*
X224469Y198539D01*
X224703Y199007D01*
X220484Y202992D02*
X218609Y198070D01*
X216734Y202992D02*
X218609Y198070D01*
G01X168143Y193959D02*
Y189740D01*
X170253Y191849D02*
X166034D01*
X161581Y194662D02*
X163924D01*
X164159Y192552D01*
X163924Y192787D01*
X163221Y193021D01*
X162518D01*
X161815Y192787D01*
X161346Y192318D01*
X161112Y191615D01*
Y191146D01*
X161346Y190443D01*
X161815Y189974D01*
X162518Y189740D01*
X163221D01*
X163924Y189974D01*
X164159Y190209D01*
X164393Y190677D01*
X160174Y194662D02*
X158299Y189740D01*
X156424Y194662D02*
X158299Y189740D01*
G01X214491Y193490D02*
X214726Y193959D01*
X215194Y194427D01*
X215663Y194662D01*
X216601D01*
X217069Y194427D01*
X217538Y193959D01*
X217773Y193490D01*
X218007Y192787D01*
Y191615D01*
X217773Y190912D01*
X217538Y190443D01*
X217069Y189974D01*
X216601Y189740D01*
X215663D01*
X215194Y189974D01*
X214726Y190443D01*
X214491Y190912D01*
Y191615D01*
X215663D02*
X214491D01*
X212851Y194662D02*
Y189740D01*
Y194662D02*
X209569Y189740D01*
Y194662D02*
Y189740D01*
X207694Y194662D02*
Y189740D01*
Y194662D02*
X206054D01*
X205351Y194427D01*
X204882Y193959D01*
X204648Y193490D01*
X204413Y192787D01*
Y191615D01*
X204648Y190912D01*
X204882Y190443D01*
X205351Y189974D01*
X206054Y189740D01*
X207694D01*
M02*
