G04 CAM350 V10.1.0 (Build 363) Date:  Mon Jun 15 21:36:37 2015 *
G04 Database: (Untitled) *
G04 Layer 10: PCB1.GTO *
%FSLAX25Y25*%
%MOIN*%
%SFA1.000B1.000*%

%MIA0B0*%
%IPPOS*%
%ADD71C,0.01000*%
%ADD53C,0.00800*%
%LNPCB1.GTO*%
%LPD*%
G54D71*
X375625Y240000D02*
G01X377875D01*
X372500Y231500D02*
G01Y240000D01*
X358500Y253500D02*
G01X380000D01*
X358500Y231500D02*
G01X381000D01*
X358000Y240000D02*
G01Y245000D01*
X381000Y240000D02*
G01Y245000D01*
X372500Y240000D02*
G01X375625D01*
X377875D02*
G01X381000D01*
X377875Y265000D02*
G01X381000D01*
X372500D02*
G01X375625D01*
X381000D02*
G01Y270000D01*
X358000Y265000D02*
G01Y270000D01*
X358500Y256500D02*
G01X381000D01*
X358500Y278500D02*
G01X380000D01*
X372500Y256500D02*
G01Y265000D01*
X375625D02*
G01X377875D01*
X375625Y290000D02*
G01X377875D01*
X372500Y281500D02*
G01Y290000D01*
X358500Y303500D02*
G01X380000D01*
X358500Y281500D02*
G01X381000D01*
X358000Y290000D02*
G01Y295000D01*
X381000Y290000D02*
G01Y295000D01*
X372500Y290000D02*
G01X375625D01*
X377875D02*
G01X381000D01*
X377875Y315000D02*
G01X381000D01*
X372500D02*
G01X375625D01*
X381000D02*
G01Y320000D01*
X358000Y315000D02*
G01Y320000D01*
X358500Y306500D02*
G01X381000D01*
X358500Y328500D02*
G01X380000D01*
X372500Y306500D02*
G01Y315000D01*
X375625D02*
G01X377875D01*
X375625Y340000D02*
G01X377875D01*
X372500Y331500D02*
G01Y340000D01*
X358500Y353500D02*
G01X380000D01*
X358500Y331500D02*
G01X381000D01*
X358000Y340000D02*
G01Y345000D01*
X381000Y340000D02*
G01Y345000D01*
X372500Y340000D02*
G01X375625D01*
X377875D02*
G01X381000D01*
X377875Y365500D02*
G01X381000D01*
X372500D02*
G01X375625D01*
X381000D02*
G01Y370500D01*
X358000Y365500D02*
G01Y370500D01*
X358500Y357000D02*
G01X381000D01*
X358500Y379000D02*
G01X380000D01*
X372500Y357000D02*
G01Y365500D01*
X375625D02*
G01X377875D01*
X375625Y390500D02*
G01X377875D01*
X372500Y382000D02*
G01Y390500D01*
X358500Y404000D02*
G01X380000D01*
X358500Y382000D02*
G01X381000D01*
X358000Y390500D02*
G01Y395500D01*
X381000Y390500D02*
G01Y395500D01*
X372500Y390500D02*
G01X375625D01*
X377875D02*
G01X381000D01*
X377875Y415000D02*
G01X381000D01*
X372500D02*
G01X375625D01*
X381000D02*
G01Y420000D01*
X358000Y415000D02*
G01Y420000D01*
X358500Y406500D02*
G01X381000D01*
X358500Y428500D02*
G01X380000D01*
X372500Y406500D02*
G01Y415000D01*
X375625D02*
G01X377875D01*
X375625Y440000D02*
G01X377875D01*
X372500Y431500D02*
G01Y440000D01*
X358500Y453500D02*
G01X380000D01*
X358500Y431500D02*
G01X381000D01*
X358000Y440000D02*
G01Y445000D01*
X381000Y440000D02*
G01Y445000D01*
X372500Y440000D02*
G01X375625D01*
X377875D02*
G01X381000D01*
X377875Y465000D02*
G01X381000D01*
X372500D02*
G01X375625D01*
X381000D02*
G01Y470000D01*
X358000Y465000D02*
G01Y470000D01*
X358500Y456500D02*
G01X381000D01*
X358500Y478500D02*
G01X380000D01*
X372500Y456500D02*
G01Y465000D01*
X375625D02*
G01X377875D01*
X350125Y240000D02*
G01X352375D01*
X347000Y231500D02*
G01Y240000D01*
X333000Y253500D02*
G01X354500D01*
X333000Y231500D02*
G01X355500D01*
X332500Y240000D02*
G01Y245000D01*
X355500Y240000D02*
G01Y245000D01*
X347000Y240000D02*
G01X350125D01*
X352375D02*
G01X355500D01*
X352375Y265000D02*
G01X355500D01*
X347000D02*
G01X350125D01*
X355500D02*
G01Y270000D01*
X332500Y265000D02*
G01Y270000D01*
X333000Y256500D02*
G01X355500D01*
X333000Y278500D02*
G01X354500D01*
X347000Y256500D02*
G01Y265000D01*
X350125D02*
G01X352375D01*
X350125Y290000D02*
G01X352375D01*
X347000Y281500D02*
G01Y290000D01*
X333000Y303500D02*
G01X354500D01*
X333000Y281500D02*
G01X355500D01*
X332500Y290000D02*
G01Y295000D01*
X355500Y290000D02*
G01Y295000D01*
X347000Y290000D02*
G01X350125D01*
X352375D02*
G01X355500D01*
X352375Y315000D02*
G01X355500D01*
X347000D02*
G01X350125D01*
X355500D02*
G01Y320000D01*
X332500Y315000D02*
G01Y320000D01*
X333000Y306500D02*
G01X355500D01*
X333000Y328500D02*
G01X354500D01*
X347000Y306500D02*
G01Y315000D01*
X350125D02*
G01X352375D01*
X350125Y340000D02*
G01X352375D01*
X347000Y331500D02*
G01Y340000D01*
X333000Y353500D02*
G01X354500D01*
X333000Y331500D02*
G01X355500D01*
X332500Y340000D02*
G01Y345000D01*
X355500Y340000D02*
G01Y345000D01*
X347000Y340000D02*
G01X350125D01*
X352375D02*
G01X355500D01*
X351875Y365500D02*
G01X355000D01*
X346500D02*
G01X349625D01*
X355000D02*
G01Y370500D01*
X332000Y365500D02*
G01Y370500D01*
X332500Y357000D02*
G01X355000D01*
X332500Y379000D02*
G01X354000D01*
X346500Y357000D02*
G01Y365500D01*
X349625D02*
G01X351875D01*
X349625Y390500D02*
G01X351875D01*
X346500Y382000D02*
G01Y390500D01*
X332500Y404000D02*
G01X354000D01*
X332500Y382000D02*
G01X355000D01*
X332000Y390500D02*
G01Y395500D01*
X355000Y390500D02*
G01Y395500D01*
X346500Y390500D02*
G01X349625D01*
X351875D02*
G01X355000D01*
X351875Y415000D02*
G01X355000D01*
X346500D02*
G01X349625D01*
X355000D02*
G01Y420000D01*
X332000Y415000D02*
G01Y420000D01*
X332500Y406500D02*
G01X355000D01*
X332500Y428500D02*
G01X354000D01*
X346500Y406500D02*
G01Y415000D01*
X349625D02*
G01X351875D01*
X349625Y440000D02*
G01X351875D01*
X346500Y431500D02*
G01Y440000D01*
X332500Y453500D02*
G01X354000D01*
X332500Y431500D02*
G01X355000D01*
X332000Y440000D02*
G01Y445000D01*
X355000Y440000D02*
G01Y445000D01*
X346500Y440000D02*
G01X349625D01*
X351875D02*
G01X355000D01*
X351875Y465000D02*
G01X355000D01*
X346500D02*
G01X349625D01*
X355000D02*
G01Y470000D01*
X332000Y465000D02*
G01Y470000D01*
X332500Y456500D02*
G01X355000D01*
X332500Y478500D02*
G01X354000D01*
X346500Y456500D02*
G01Y465000D01*
X349625D02*
G01X351875D01*
X323625Y240000D02*
G01X325875D01*
X320500Y231500D02*
G01Y240000D01*
X306500Y253500D02*
G01X328000D01*
X306500Y231500D02*
G01X329000D01*
X306000Y240000D02*
G01Y245000D01*
X329000Y240000D02*
G01Y245000D01*
X320500Y240000D02*
G01X323625D01*
X325875D02*
G01X329000D01*
X325875Y265000D02*
G01X329000D01*
X320500D02*
G01X323625D01*
X329000D02*
G01Y270000D01*
X306000Y265000D02*
G01Y270000D01*
X306500Y256500D02*
G01X329000D01*
X306500Y278500D02*
G01X328000D01*
X320500Y256500D02*
G01Y265000D01*
X323625D02*
G01X325875D01*
X323625Y290000D02*
G01X325875D01*
X320500Y281500D02*
G01Y290000D01*
X306500Y303500D02*
G01X328000D01*
X306500Y281500D02*
G01X329000D01*
X306000Y290000D02*
G01Y295000D01*
X329000Y290000D02*
G01Y295000D01*
X320500Y290000D02*
G01X323625D01*
X325875D02*
G01X329000D01*
X325875Y315000D02*
G01X329000D01*
X320500D02*
G01X323625D01*
X329000D02*
G01Y320000D01*
X306000Y315000D02*
G01Y320000D01*
X306500Y306500D02*
G01X329000D01*
X306500Y328500D02*
G01X328000D01*
X320500Y306500D02*
G01Y315000D01*
X323625D02*
G01X325875D01*
X323625Y340000D02*
G01X325875D01*
X320500Y331500D02*
G01Y340000D01*
X306500Y353500D02*
G01X328000D01*
X306500Y331500D02*
G01X329000D01*
X306000Y340000D02*
G01Y345000D01*
X329000Y340000D02*
G01Y345000D01*
X320500Y340000D02*
G01X323625D01*
X325875D02*
G01X329000D01*
X325875Y365500D02*
G01X329000D01*
X320500D02*
G01X323625D01*
X329000D02*
G01Y370500D01*
X306000Y365500D02*
G01Y370500D01*
X306500Y357000D02*
G01X329000D01*
X306500Y379000D02*
G01X328000D01*
X320500Y357000D02*
G01Y365500D01*
X323625D02*
G01X325875D01*
X323625Y390500D02*
G01X325875D01*
X320500Y382000D02*
G01Y390500D01*
X306500Y404000D02*
G01X328000D01*
X306500Y382000D02*
G01X329000D01*
X306000Y390500D02*
G01Y395500D01*
X329000Y390500D02*
G01Y395500D01*
X320500Y390500D02*
G01X323625D01*
X325875D02*
G01X329000D01*
X325875Y415000D02*
G01X329000D01*
X320500D02*
G01X323625D01*
X329000D02*
G01Y420000D01*
X306000Y415000D02*
G01Y420000D01*
X306500Y406500D02*
G01X329000D01*
X306500Y428500D02*
G01X328000D01*
X320500Y406500D02*
G01Y415000D01*
X323625D02*
G01X325875D01*
X323625Y440000D02*
G01X325875D01*
X320500Y431500D02*
G01Y440000D01*
X306500Y453500D02*
G01X328000D01*
X306500Y431500D02*
G01X329000D01*
X306000Y440000D02*
G01Y445000D01*
X329000Y440000D02*
G01Y445000D01*
X320500Y440000D02*
G01X323625D01*
X325875D02*
G01X329000D01*
X325875Y465000D02*
G01X329000D01*
X320500D02*
G01X323625D01*
X329000D02*
G01Y470000D01*
X306000Y465000D02*
G01Y470000D01*
X306500Y456500D02*
G01X329000D01*
X306500Y478500D02*
G01X328000D01*
X320500Y456500D02*
G01Y465000D01*
X323625D02*
G01X325875D01*
X297125Y240000D02*
G01X299375D01*
X294000Y231500D02*
G01Y240000D01*
X280000Y253500D02*
G01X301500D01*
X280000Y231500D02*
G01X302500D01*
X279500Y240000D02*
G01Y245000D01*
X302500Y240000D02*
G01Y245000D01*
X294000Y240000D02*
G01X297125D01*
X299375D02*
G01X302500D01*
X299375Y265000D02*
G01X302500D01*
X294000D02*
G01X297125D01*
X302500D02*
G01Y270000D01*
X279500Y265000D02*
G01Y270000D01*
X280000Y256500D02*
G01X302500D01*
X280000Y278500D02*
G01X301500D01*
X294000Y256500D02*
G01Y265000D01*
X297125D02*
G01X299375D01*
X297125Y290000D02*
G01X299375D01*
X294000Y281500D02*
G01Y290000D01*
X280000Y303500D02*
G01X301500D01*
X280000Y281500D02*
G01X302500D01*
X279500Y290000D02*
G01Y295000D01*
X302500Y290000D02*
G01Y295000D01*
X294000Y290000D02*
G01X297125D01*
X299375D02*
G01X302500D01*
X299375Y315000D02*
G01X302500D01*
X294000D02*
G01X297125D01*
X302500D02*
G01Y320000D01*
X279500Y315000D02*
G01Y320000D01*
X280000Y306500D02*
G01X302500D01*
X280000Y328500D02*
G01X301500D01*
X294000Y306500D02*
G01Y315000D01*
X297125D02*
G01X299375D01*
X297125Y340000D02*
G01X299375D01*
X294000Y331500D02*
G01Y340000D01*
X280000Y353500D02*
G01X301500D01*
X280000Y331500D02*
G01X302500D01*
X279500Y340000D02*
G01Y345000D01*
X302500Y340000D02*
G01Y345000D01*
X294000Y340000D02*
G01X297125D01*
X299375D02*
G01X302500D01*
X299375Y365500D02*
G01X302500D01*
X294000D02*
G01X297125D01*
X302500D02*
G01Y370500D01*
X279500Y365500D02*
G01Y370500D01*
X280000Y357000D02*
G01X302500D01*
X280000Y379000D02*
G01X301500D01*
X294000Y357000D02*
G01Y365500D01*
X297125D02*
G01X299375D01*
X297125Y390500D02*
G01X299375D01*
X294000Y382000D02*
G01Y390500D01*
X280000Y404000D02*
G01X301500D01*
X280000Y382000D02*
G01X302500D01*
X279500Y390500D02*
G01Y395500D01*
X302500Y390500D02*
G01Y395500D01*
X294000Y390500D02*
G01X297125D01*
X299375D02*
G01X302500D01*
X299375Y415000D02*
G01X302500D01*
X294000D02*
G01X297125D01*
X302500D02*
G01Y420000D01*
X279500Y415000D02*
G01Y420000D01*
X280000Y406500D02*
G01X302500D01*
X280000Y428500D02*
G01X301500D01*
X294000Y406500D02*
G01Y415000D01*
X297125D02*
G01X299375D01*
X297125Y440000D02*
G01X299375D01*
X294000Y431500D02*
G01Y440000D01*
X280000Y453500D02*
G01X301500D01*
X280000Y431500D02*
G01X302500D01*
X279500Y440000D02*
G01Y445000D01*
X302500Y440000D02*
G01Y445000D01*
X294000Y440000D02*
G01X297125D01*
X299375D02*
G01X302500D01*
X299375Y465000D02*
G01X302500D01*
X294000D02*
G01X297125D01*
X302500D02*
G01Y470000D01*
X279500Y465000D02*
G01Y470000D01*
X280000Y456500D02*
G01X302500D01*
X280000Y478500D02*
G01X301500D01*
X294000Y456500D02*
G01Y465000D01*
X297125D02*
G01X299375D01*
X271125Y240000D02*
G01X273375D01*
X268000Y231500D02*
G01Y240000D01*
X254000Y253500D02*
G01X275500D01*
X254000Y231500D02*
G01X276500D01*
X253500Y240000D02*
G01Y245000D01*
X276500Y240000D02*
G01Y245000D01*
X268000Y240000D02*
G01X271125D01*
X273375D02*
G01X276500D01*
X273375Y265000D02*
G01X276500D01*
X268000D02*
G01X271125D01*
X276500D02*
G01Y270000D01*
X253500Y265000D02*
G01Y270000D01*
X254000Y256500D02*
G01X276500D01*
X254000Y278500D02*
G01X275500D01*
X268000Y256500D02*
G01Y265000D01*
X271125D02*
G01X273375D01*
X271125Y290000D02*
G01X273375D01*
X268000Y281500D02*
G01Y290000D01*
X254000Y303500D02*
G01X275500D01*
X254000Y281500D02*
G01X276500D01*
X253500Y290000D02*
G01Y295000D01*
X276500Y290000D02*
G01Y295000D01*
X268000Y290000D02*
G01X271125D01*
X273375D02*
G01X276500D01*
X273375Y315000D02*
G01X276500D01*
X268000D02*
G01X271125D01*
X276500D02*
G01Y320000D01*
X253500Y315000D02*
G01Y320000D01*
X254000Y306500D02*
G01X276500D01*
X254000Y328500D02*
G01X275500D01*
X268000Y306500D02*
G01Y315000D01*
X271125D02*
G01X273375D01*
X271125Y340000D02*
G01X273375D01*
X268000Y331500D02*
G01Y340000D01*
X254000Y353500D02*
G01X275500D01*
X254000Y331500D02*
G01X276500D01*
X253500Y340000D02*
G01Y345000D01*
X276500Y340000D02*
G01Y345000D01*
X268000Y340000D02*
G01X271125D01*
X273375D02*
G01X276500D01*
X273375Y365000D02*
G01X276500D01*
X268000D02*
G01X271125D01*
X276500D02*
G01Y370000D01*
X253500Y365000D02*
G01Y370000D01*
X254000Y356500D02*
G01X276500D01*
X254000Y378500D02*
G01X275500D01*
X268000Y356500D02*
G01Y365000D01*
X271125D02*
G01X273375D01*
X271125Y390500D02*
G01X273375D01*
X268000Y382000D02*
G01Y390500D01*
X254000Y404000D02*
G01X275500D01*
X254000Y382000D02*
G01X276500D01*
X253500Y390500D02*
G01Y395500D01*
X276500Y390500D02*
G01Y395500D01*
X268000Y390500D02*
G01X271125D01*
X273375D02*
G01X276500D01*
X273375Y415000D02*
G01X276500D01*
X268000D02*
G01X271125D01*
X276500D02*
G01Y420000D01*
X253500Y415000D02*
G01Y420000D01*
X254000Y406500D02*
G01X276500D01*
X254000Y428500D02*
G01X275500D01*
X268000Y406500D02*
G01Y415000D01*
X271125D02*
G01X273375D01*
X271125Y440000D02*
G01X273375D01*
X268000Y431500D02*
G01Y440000D01*
X254000Y453500D02*
G01X275500D01*
X254000Y431500D02*
G01X276500D01*
X253500Y440000D02*
G01Y445000D01*
X276500Y440000D02*
G01Y445000D01*
X268000Y440000D02*
G01X271125D01*
X273375D02*
G01X276500D01*
X273375Y465000D02*
G01X276500D01*
X268000D02*
G01X271125D01*
X276500D02*
G01Y470000D01*
X253500Y465000D02*
G01Y470000D01*
X254000Y456500D02*
G01X276500D01*
X254000Y478500D02*
G01X275500D01*
X268000Y456500D02*
G01Y465000D01*
X271125D02*
G01X273375D01*
X244625Y240000D02*
G01X246875D01*
X241500Y231500D02*
G01Y240000D01*
X227500Y253500D02*
G01X249000D01*
X227500Y231500D02*
G01X250000D01*
X227000Y240000D02*
G01Y245000D01*
X250000Y240000D02*
G01Y245000D01*
X241500Y240000D02*
G01X244625D01*
X246875D02*
G01X250000D01*
X247375Y265000D02*
G01X250500D01*
X242000D02*
G01X245125D01*
X250500D02*
G01Y270000D01*
X227500Y265000D02*
G01Y270000D01*
X228000Y256500D02*
G01X250500D01*
X228000Y278500D02*
G01X249500D01*
X242000Y256500D02*
G01Y265000D01*
X245125D02*
G01X247375D01*
X245125Y290000D02*
G01X247375D01*
X242000Y281500D02*
G01Y290000D01*
X228000Y303500D02*
G01X249500D01*
X228000Y281500D02*
G01X250500D01*
X227500Y290000D02*
G01Y295000D01*
X250500Y290000D02*
G01Y295000D01*
X242000Y290000D02*
G01X245125D01*
X247375D02*
G01X250500D01*
X247375Y315000D02*
G01X250500D01*
X242000D02*
G01X245125D01*
X250500D02*
G01Y320000D01*
X227500Y315000D02*
G01Y320000D01*
X228000Y306500D02*
G01X250500D01*
X228000Y328500D02*
G01X249500D01*
X242000Y306500D02*
G01Y315000D01*
X245125D02*
G01X247375D01*
X245125Y340000D02*
G01X247375D01*
X242000Y331500D02*
G01Y340000D01*
X228000Y353500D02*
G01X249500D01*
X228000Y331500D02*
G01X250500D01*
X227500Y340000D02*
G01Y345000D01*
X250500Y340000D02*
G01Y345000D01*
X242000Y340000D02*
G01X245125D01*
X247375D02*
G01X250500D01*
X247375Y365000D02*
G01X250500D01*
X242000D02*
G01X245125D01*
X250500D02*
G01Y370000D01*
X227500Y365000D02*
G01Y370000D01*
X228000Y356500D02*
G01X250500D01*
X228000Y378500D02*
G01X249500D01*
X242000Y356500D02*
G01Y365000D01*
X245125D02*
G01X247375D01*
X245125Y390500D02*
G01X247375D01*
X242000Y382000D02*
G01Y390500D01*
X228000Y404000D02*
G01X249500D01*
X228000Y382000D02*
G01X250500D01*
X227500Y390500D02*
G01Y395500D01*
X250500Y390500D02*
G01Y395500D01*
X242000Y390500D02*
G01X245125D01*
X247375D02*
G01X250500D01*
X247375Y415000D02*
G01X250500D01*
X242000D02*
G01X245125D01*
X250500D02*
G01Y420000D01*
X227500Y415000D02*
G01Y420000D01*
X228000Y406500D02*
G01X250500D01*
X228000Y428500D02*
G01X249500D01*
X242000Y406500D02*
G01Y415000D01*
X245125D02*
G01X247375D01*
X245125Y440000D02*
G01X247375D01*
X242000Y431500D02*
G01Y440000D01*
X228000Y453500D02*
G01X249500D01*
X228000Y431500D02*
G01X250500D01*
X227500Y440000D02*
G01Y445000D01*
X250500Y440000D02*
G01Y445000D01*
X242000Y440000D02*
G01X245125D01*
X247375D02*
G01X250500D01*
X247375Y465000D02*
G01X250500D01*
X242000D02*
G01X245125D01*
X250500D02*
G01Y470000D01*
X227500Y465000D02*
G01Y470000D01*
X228000Y456500D02*
G01X250500D01*
X228000Y478500D02*
G01X249500D01*
X242000Y456500D02*
G01Y465000D01*
X245125D02*
G01X247375D01*
X218625Y240000D02*
G01X220875D01*
X215500Y231500D02*
G01Y240000D01*
X201500Y253500D02*
G01X223000D01*
X201500Y231500D02*
G01X224000D01*
X201000Y240000D02*
G01Y245000D01*
X224000Y240000D02*
G01Y245000D01*
X215500Y240000D02*
G01X218625D01*
X220875D02*
G01X224000D01*
X220875Y265000D02*
G01X224000D01*
X215500D02*
G01X218625D01*
X224000D02*
G01Y270000D01*
X201000Y265000D02*
G01Y270000D01*
X201500Y256500D02*
G01X224000D01*
X201500Y278500D02*
G01X223000D01*
X215500Y256500D02*
G01Y265000D01*
X218625D02*
G01X220875D01*
X218625Y290000D02*
G01X220875D01*
X215500Y281500D02*
G01Y290000D01*
X201500Y303500D02*
G01X223000D01*
X201500Y281500D02*
G01X224000D01*
X201000Y290000D02*
G01Y295000D01*
X224000Y290000D02*
G01Y295000D01*
X215500Y290000D02*
G01X218625D01*
X220875D02*
G01X224000D01*
X220875Y315000D02*
G01X224000D01*
X215500D02*
G01X218625D01*
X224000D02*
G01Y320000D01*
X201000Y315000D02*
G01Y320000D01*
X201500Y306500D02*
G01X224000D01*
X201500Y328500D02*
G01X223000D01*
X215500Y306500D02*
G01Y315000D01*
X218625D02*
G01X220875D01*
X218625Y340000D02*
G01X220875D01*
X215500Y331500D02*
G01Y340000D01*
X201500Y353500D02*
G01X223000D01*
X201500Y331500D02*
G01X224000D01*
X201000Y340000D02*
G01Y345000D01*
X224000Y340000D02*
G01Y345000D01*
X215500Y340000D02*
G01X218625D01*
X220875D02*
G01X224000D01*
X220875Y365000D02*
G01X224000D01*
X215500D02*
G01X218625D01*
X224000D02*
G01Y370000D01*
X201000Y365000D02*
G01Y370000D01*
X201500Y356500D02*
G01X224000D01*
X201500Y378500D02*
G01X223000D01*
X215500Y356500D02*
G01Y365000D01*
X218625D02*
G01X220875D01*
X218625Y390500D02*
G01X220875D01*
X215500Y382000D02*
G01Y390500D01*
X201500Y404000D02*
G01X223000D01*
X201500Y382000D02*
G01X224000D01*
X201000Y390500D02*
G01Y395500D01*
X224000Y390500D02*
G01Y395500D01*
X215500Y390500D02*
G01X218625D01*
X220875D02*
G01X224000D01*
X220875Y415000D02*
G01X224000D01*
X215500D02*
G01X218625D01*
X224000D02*
G01Y420000D01*
X201000Y415000D02*
G01Y420000D01*
X201500Y406500D02*
G01X224000D01*
X201500Y428500D02*
G01X223000D01*
X215500Y406500D02*
G01Y415000D01*
X218625D02*
G01X220875D01*
X218625Y440000D02*
G01X220875D01*
X215500Y431500D02*
G01Y440000D01*
X201500Y453500D02*
G01X223000D01*
X201500Y431500D02*
G01X224000D01*
X201000Y440000D02*
G01Y445000D01*
X224000Y440000D02*
G01Y445000D01*
X215500Y440000D02*
G01X218625D01*
X220875D02*
G01X224000D01*
X220875Y465000D02*
G01X224000D01*
X215500D02*
G01X218625D01*
X224000D02*
G01Y470000D01*
X201000Y465000D02*
G01Y470000D01*
X201500Y456500D02*
G01X224000D01*
X201500Y478500D02*
G01X223000D01*
X215500Y456500D02*
G01Y465000D01*
X218625D02*
G01X220875D01*
X192625Y240000D02*
G01X194875D01*
X189500Y231500D02*
G01Y240000D01*
X175500Y253500D02*
G01X197000D01*
X175500Y231500D02*
G01X198000D01*
X175000Y240000D02*
G01Y245000D01*
X198000Y240000D02*
G01Y245000D01*
X189500Y240000D02*
G01X192625D01*
X194875D02*
G01X198000D01*
X194875Y265000D02*
G01X198000D01*
X189500D02*
G01X192625D01*
X198000D02*
G01Y270000D01*
X175000Y265000D02*
G01Y270000D01*
X175500Y256500D02*
G01X198000D01*
X175500Y278500D02*
G01X197000D01*
X189500Y256500D02*
G01Y265000D01*
X192625D02*
G01X194875D01*
X192625Y290000D02*
G01X194875D01*
X189500Y281500D02*
G01Y290000D01*
X175500Y303500D02*
G01X197000D01*
X175500Y281500D02*
G01X198000D01*
X175000Y290000D02*
G01Y295000D01*
X198000Y290000D02*
G01Y295000D01*
X189500Y290000D02*
G01X192625D01*
X194875D02*
G01X198000D01*
X194875Y315000D02*
G01X198000D01*
X189500D02*
G01X192625D01*
X198000D02*
G01Y320000D01*
X175000Y315000D02*
G01Y320000D01*
X175500Y306500D02*
G01X198000D01*
X175500Y328500D02*
G01X197000D01*
X189500Y306500D02*
G01Y315000D01*
X192625D02*
G01X194875D01*
X192625Y340000D02*
G01X194875D01*
X189500Y331500D02*
G01Y340000D01*
X175500Y353500D02*
G01X197000D01*
X175500Y331500D02*
G01X198000D01*
X175000Y340000D02*
G01Y345000D01*
X198000Y340000D02*
G01Y345000D01*
X189500Y340000D02*
G01X192625D01*
X194875D02*
G01X198000D01*
X194875Y365000D02*
G01X198000D01*
X189500D02*
G01X192625D01*
X198000D02*
G01Y370000D01*
X175000Y365000D02*
G01Y370000D01*
X175500Y356500D02*
G01X198000D01*
X175500Y378500D02*
G01X197000D01*
X189500Y356500D02*
G01Y365000D01*
X192625D02*
G01X194875D01*
X192625Y390500D02*
G01X194875D01*
X189500Y382000D02*
G01Y390500D01*
X175500Y404000D02*
G01X197000D01*
X175500Y382000D02*
G01X198000D01*
X175000Y390500D02*
G01Y395500D01*
X198000Y390500D02*
G01Y395500D01*
X189500Y390500D02*
G01X192625D01*
X194875D02*
G01X198000D01*
X194875Y415000D02*
G01X198000D01*
X189500D02*
G01X192625D01*
X198000D02*
G01Y420000D01*
X175000Y415000D02*
G01Y420000D01*
X175500Y406500D02*
G01X198000D01*
X175500Y428500D02*
G01X197000D01*
X189500Y406500D02*
G01Y415000D01*
X192625D02*
G01X194875D01*
X192625Y440000D02*
G01X194875D01*
X189500Y431500D02*
G01Y440000D01*
X175500Y453500D02*
G01X197000D01*
X175500Y431500D02*
G01X198000D01*
X175000Y440000D02*
G01Y445000D01*
X198000Y440000D02*
G01Y445000D01*
X189500Y440000D02*
G01X192625D01*
X194875D02*
G01X198000D01*
X194875Y465000D02*
G01X198000D01*
X189500D02*
G01X192625D01*
X198000D02*
G01Y470000D01*
X175000Y465000D02*
G01Y470000D01*
X175500Y456500D02*
G01X198000D01*
X175500Y478500D02*
G01X197000D01*
X189500Y456500D02*
G01Y465000D01*
X192625D02*
G01X194875D01*
X166125Y240000D02*
G01X168375D01*
X163000Y231500D02*
G01Y240000D01*
X149000Y253500D02*
G01X170500D01*
X149000Y231500D02*
G01X171500D01*
X148500Y240000D02*
G01Y245000D01*
X171500Y240000D02*
G01Y245000D01*
X163000Y240000D02*
G01X166125D01*
X168375D02*
G01X171500D01*
X168375Y265000D02*
G01X171500D01*
X163000D02*
G01X166125D01*
X171500D02*
G01Y270000D01*
X148500Y265000D02*
G01Y270000D01*
X149000Y256500D02*
G01X171500D01*
X149000Y278500D02*
G01X170500D01*
X163000Y256500D02*
G01Y265000D01*
X166125D02*
G01X168375D01*
X166125Y290000D02*
G01X168375D01*
X163000Y281500D02*
G01Y290000D01*
X149000Y303500D02*
G01X170500D01*
X149000Y281500D02*
G01X171500D01*
X148500Y290000D02*
G01Y295000D01*
X171500Y290000D02*
G01Y295000D01*
X163000Y290000D02*
G01X166125D01*
X168375D02*
G01X171500D01*
X168375Y315000D02*
G01X171500D01*
X163000D02*
G01X166125D01*
X171500D02*
G01Y320000D01*
X148500Y315000D02*
G01Y320000D01*
X149000Y306500D02*
G01X171500D01*
X149000Y328500D02*
G01X170500D01*
X163000Y306500D02*
G01Y315000D01*
X166125D02*
G01X168375D01*
X166125Y340000D02*
G01X168375D01*
X163000Y331500D02*
G01Y340000D01*
X149000Y353500D02*
G01X170500D01*
X149000Y331500D02*
G01X171500D01*
X148500Y340000D02*
G01Y345000D01*
X171500Y340000D02*
G01Y345000D01*
X163000Y340000D02*
G01X166125D01*
X168375D02*
G01X171500D01*
X168375Y365000D02*
G01X171500D01*
X163000D02*
G01X166125D01*
X171500D02*
G01Y370000D01*
X148500Y365000D02*
G01Y370000D01*
X149000Y356500D02*
G01X171500D01*
X149000Y378500D02*
G01X170500D01*
X163000Y356500D02*
G01Y365000D01*
X166125D02*
G01X168375D01*
X166125Y390500D02*
G01X168375D01*
X163000Y382000D02*
G01Y390500D01*
X149000Y404000D02*
G01X170500D01*
X149000Y382000D02*
G01X171500D01*
X148500Y390500D02*
G01Y395500D01*
X171500Y390500D02*
G01Y395500D01*
X163000Y390500D02*
G01X166125D01*
X168375D02*
G01X171500D01*
X168375Y415000D02*
G01X171500D01*
X163000D02*
G01X166125D01*
X171500D02*
G01Y420000D01*
X148500Y415000D02*
G01Y420000D01*
X149000Y406500D02*
G01X171500D01*
X149000Y428500D02*
G01X170500D01*
X163000Y406500D02*
G01Y415000D01*
X166125D02*
G01X168375D01*
X166125Y440000D02*
G01X168375D01*
X163000Y431500D02*
G01Y440000D01*
X149000Y453500D02*
G01X170500D01*
X149000Y431500D02*
G01X171500D01*
X148500Y440000D02*
G01Y445000D01*
X171500Y440000D02*
G01Y445000D01*
X163000Y440000D02*
G01X166125D01*
X168375D02*
G01X171500D01*
X168375Y465000D02*
G01X171500D01*
X163000D02*
G01X166125D01*
X171500D02*
G01Y470000D01*
X148500Y465000D02*
G01Y470000D01*
X149000Y456500D02*
G01X171500D01*
X149000Y478500D02*
G01X170500D01*
X163000Y456500D02*
G01Y465000D01*
X166125D02*
G01X168375D01*
X140125Y240000D02*
G01X142375D01*
X137000Y231500D02*
G01Y240000D01*
X123000Y253500D02*
G01X144500D01*
X123000Y231500D02*
G01X145500D01*
X122500Y240000D02*
G01Y245000D01*
X145500Y240000D02*
G01Y245000D01*
X137000Y240000D02*
G01X140125D01*
X142375D02*
G01X145500D01*
X142375Y265000D02*
G01X145500D01*
X137000D02*
G01X140125D01*
X145500D02*
G01Y270000D01*
X122500Y265000D02*
G01Y270000D01*
X123000Y256500D02*
G01X145500D01*
X123000Y278500D02*
G01X144500D01*
X137000Y256500D02*
G01Y265000D01*
X140125D02*
G01X142375D01*
X140125Y290000D02*
G01X142375D01*
X137000Y281500D02*
G01Y290000D01*
X123000Y303500D02*
G01X144500D01*
X123000Y281500D02*
G01X145500D01*
X122500Y290000D02*
G01Y295000D01*
X145500Y290000D02*
G01Y295000D01*
X137000Y290000D02*
G01X140125D01*
X142375D02*
G01X145500D01*
X142375Y315000D02*
G01X145500D01*
X137000D02*
G01X140125D01*
X145500D02*
G01Y320000D01*
X122500Y315000D02*
G01Y320000D01*
X123000Y306500D02*
G01X145500D01*
X123000Y328500D02*
G01X144500D01*
X137000Y306500D02*
G01Y315000D01*
X140125D02*
G01X142375D01*
X140125Y340000D02*
G01X142375D01*
X137000Y331500D02*
G01Y340000D01*
X123000Y353500D02*
G01X144500D01*
X123000Y331500D02*
G01X145500D01*
X122500Y340000D02*
G01Y345000D01*
X145500Y340000D02*
G01Y345000D01*
X137000Y340000D02*
G01X140125D01*
X142375D02*
G01X145500D01*
X142375Y365000D02*
G01X145500D01*
X137000D02*
G01X140125D01*
X145500D02*
G01Y370000D01*
X122500Y365000D02*
G01Y370000D01*
X123000Y356500D02*
G01X145500D01*
X123000Y378500D02*
G01X144500D01*
X137000Y356500D02*
G01Y365000D01*
X140125D02*
G01X142375D01*
X140125Y390500D02*
G01X142375D01*
X137000Y382000D02*
G01Y390500D01*
X123000Y404000D02*
G01X144500D01*
X123000Y382000D02*
G01X145500D01*
X122500Y390500D02*
G01Y395500D01*
X145500Y390500D02*
G01Y395500D01*
X137000Y390500D02*
G01X140125D01*
X142375D02*
G01X145500D01*
X142375Y415000D02*
G01X145500D01*
X137000D02*
G01X140125D01*
X145500D02*
G01Y420000D01*
X122500Y415000D02*
G01Y420000D01*
X123000Y406500D02*
G01X145500D01*
X123000Y428500D02*
G01X144500D01*
X137000Y406500D02*
G01Y415000D01*
X140125D02*
G01X142375D01*
X140125Y440000D02*
G01X142375D01*
X137000Y431500D02*
G01Y440000D01*
X123000Y453500D02*
G01X144500D01*
X123000Y431500D02*
G01X145500D01*
X122500Y440000D02*
G01Y445000D01*
X145500Y440000D02*
G01Y445000D01*
X137000Y440000D02*
G01X140125D01*
X142375D02*
G01X145500D01*
X142375Y465000D02*
G01X145500D01*
X137000D02*
G01X140125D01*
X145500D02*
G01Y470000D01*
X122500Y465000D02*
G01Y470000D01*
X123000Y456500D02*
G01X145500D01*
X123000Y478500D02*
G01X144500D01*
X137000Y456500D02*
G01Y465000D01*
X140125D02*
G01X142375D01*
G54D53*
G01X272627Y217412D02*
Y212490D01*
Y217412D02*
X274737D01*
X275440Y217177D01*
X275674Y216943D01*
X275909Y216474D01*
Y215771D01*
X275674Y215302D01*
X275440Y215068D01*
X274737Y214834D01*
X272627D01*
X277315Y217412D02*
X277549Y217177D01*
X277784Y217412D01*
X277549Y217646D01*
X277315Y217412D01*
X277549Y215771D02*
Y212490D01*
X282002Y215068D02*
X281534Y215537D01*
X281065Y215771D01*
X280362D01*
X279893Y215537D01*
X279424Y215068D01*
X279190Y214365D01*
Y213896D01*
X279424Y213193D01*
X279893Y212724D01*
X280362Y212490D01*
X281065D01*
X281534Y212724D01*
X282002Y213193D01*
X283409Y217412D02*
X286690Y212490D01*
Y217412D02*
X283409Y212490D01*
X288096Y214365D02*
X290909D01*
Y214834D01*
X290674Y215302D01*
X290440Y215537D01*
X289971Y215771D01*
X289268D01*
X288799Y215537D01*
X288331Y215068D01*
X288096Y214365D01*
Y213896D01*
X288331Y213193D01*
X288799Y212724D01*
X289268Y212490D01*
X289971D01*
X290440Y212724D01*
X290909Y213193D01*
X292549Y217412D02*
Y212490D01*
X298174Y217412D02*
Y212490D01*
Y217412D02*
X300284D01*
X300987Y217177D01*
X301221Y216943D01*
X301456Y216474D01*
Y215771D01*
X301221Y215302D01*
X300987Y215068D01*
X300284Y214834D01*
X298174D01*
X305674Y215771D02*
Y212490D01*
Y215068D02*
X305206Y215537D01*
X304737Y215771D01*
X304034D01*
X303565Y215537D01*
X303096Y215068D01*
X302862Y214365D01*
Y213896D01*
X303096Y213193D01*
X303565Y212724D01*
X304034Y212490D01*
X304737D01*
X305206Y212724D01*
X305674Y213193D01*
X307549Y215771D02*
Y212490D01*
Y214834D02*
X308252Y215537D01*
X308721Y215771D01*
X309424D01*
X309893Y215537D01*
X310127Y214834D01*
Y212490D01*
X311768Y214365D02*
X314581D01*
Y214834D01*
X314346Y215302D01*
X314112Y215537D01*
X313643Y215771D01*
X312940D01*
X312471Y215537D01*
X312002Y215068D01*
X311768Y214365D01*
Y213896D01*
X312002Y213193D01*
X312471Y212724D01*
X312940Y212490D01*
X313643D01*
X314112Y212724D01*
X314581Y213193D01*
X316221Y217412D02*
Y212490D01*
X275909Y203740D02*
X275674Y204209D01*
X275206Y204677D01*
X274737Y204912D01*
X273799D01*
X273331Y204677D01*
X272862Y204209D01*
X272627Y203740D01*
X272393Y203037D01*
Y201865D01*
X272627Y201162D01*
X272862Y200693D01*
X273331Y200224D01*
X273799Y199990D01*
X274737D01*
X275206Y200224D01*
X275674Y200693D01*
X275909Y201162D01*
X277549Y204912D02*
Y199990D01*
Y204912D02*
X280596D01*
X277549Y202568D02*
X279424D01*
X277549Y199990D02*
X280596D01*
X282002Y204912D02*
Y199990D01*
X285284Y204912D02*
Y199990D01*
X282002Y202568D02*
X285284D01*
X290909Y203740D02*
Y203974D01*
X291143Y204443D01*
X291377Y204677D01*
X291846Y204912D01*
X292784D01*
X293252Y204677D01*
X293487Y204443D01*
X293721Y203974D01*
Y203506D01*
X293487Y203037D01*
X293018Y202334D01*
X290674Y199990D01*
X293956D01*
X296768Y204912D02*
X296065Y204677D01*
X295596Y203974D01*
X295362Y202802D01*
Y202099D01*
X295596Y200927D01*
X296065Y200224D01*
X296768Y199990D01*
X297237D01*
X297940Y200224D01*
X298409Y200927D01*
X298643Y202099D01*
Y202802D01*
X298409Y203974D01*
X297940Y204677D01*
X297237Y204912D01*
X296768D01*
X300752Y203974D02*
X301221Y204209D01*
X301924Y204912D01*
Y199990D01*
X307549Y204912D02*
X305206D01*
X304971Y202802D01*
X305206Y203037D01*
X305909Y203271D01*
X306612D01*
X307315Y203037D01*
X307784Y202568D01*
X308018Y201865D01*
Y201396D01*
X307784Y200693D01*
X307315Y200224D01*
X306612Y199990D01*
X305909D01*
X305206Y200224D01*
X304971Y200459D01*
X304737Y200927D01*
G01X521755Y482064D02*
Y472220D01*
Y482064D02*
X525974D01*
X527380Y481595D01*
X527849Y481126D01*
X528317Y480189D01*
Y478782D01*
X527849Y477845D01*
X527380Y477376D01*
X525974Y476907D01*
X521755D01*
X538161Y479720D02*
X537692Y480657D01*
X536755Y481595D01*
X535817Y482064D01*
X533942D01*
X533005Y481595D01*
X532067Y480657D01*
X531599Y479720D01*
X531130Y478314D01*
Y475970D01*
X531599Y474564D01*
X532067Y473626D01*
X533005Y472689D01*
X533942Y472220D01*
X535817D01*
X536755Y472689D01*
X537692Y473626D01*
X538161Y474564D01*
X541442Y482064D02*
Y472220D01*
Y482064D02*
X545661D01*
X547067Y481595D01*
X547536Y481126D01*
X548005Y480189D01*
Y479251D01*
X547536Y478314D01*
X547067Y477845D01*
X545661Y477376D01*
X541442D02*
X545661D01*
X547067Y476907D01*
X547536Y476439D01*
X548005Y475501D01*
Y474095D01*
X547536Y473157D01*
X547067Y472689D01*
X545661Y472220D01*
X541442D01*
X558786Y482064D02*
Y472220D01*
Y482064D02*
X564880D01*
X558786Y477376D02*
X562536D01*
X569567Y482064D02*
X565817Y472220D01*
X569567Y482064D02*
X573317Y472220D01*
X567224Y475501D02*
X571911D01*
X575661Y482064D02*
Y472220D01*
Y482064D02*
X579880D01*
X581286Y481595D01*
X581755Y481126D01*
X582224Y480189D01*
Y479251D01*
X581755Y478314D01*
X581286Y477845D01*
X579880Y477376D01*
X575661D02*
X579880D01*
X581286Y476907D01*
X581755Y476439D01*
X582224Y475501D01*
Y474095D01*
X581755Y473157D01*
X581286Y472689D01*
X579880Y472220D01*
X575661D01*
X585505Y482064D02*
Y472220D01*
Y482064D02*
X589724D01*
X591130Y481595D01*
X591599Y481126D01*
X592067Y480189D01*
Y479251D01*
X591599Y478314D01*
X591130Y477845D01*
X589724Y477376D01*
X585505D01*
X588786D02*
X592067Y472220D01*
X595349Y482064D02*
Y472220D01*
X605661Y479720D02*
X605192Y480657D01*
X604255Y481595D01*
X603317Y482064D01*
X601442D01*
X600505Y481595D01*
X599567Y480657D01*
X599099Y479720D01*
X598630Y478314D01*
Y475970D01*
X599099Y474564D01*
X599567Y473626D01*
X600505Y472689D01*
X601442Y472220D01*
X603317D01*
X604255Y472689D01*
X605192Y473626D01*
X605661Y474564D01*
X611286Y482064D02*
X607536Y472220D01*
X611286Y482064D02*
X615036Y472220D01*
X608942Y475501D02*
X613630D01*
X619255Y482064D02*
Y472220D01*
X615974Y482064D02*
X622536D01*
X624880D02*
Y472220D01*
X630974Y482064D02*
X630036Y481595D01*
X629099Y480657D01*
X628630Y479720D01*
X628161Y478314D01*
Y475970D01*
X628630Y474564D01*
X629099Y473626D01*
X630036Y472689D01*
X630974Y472220D01*
X632849D01*
X633786Y472689D01*
X634724Y473626D01*
X635192Y474564D01*
X635661Y475970D01*
Y478314D01*
X635192Y479720D01*
X634724Y480657D01*
X633786Y481595D01*
X632849Y482064D01*
X630974D01*
X638942D02*
Y472220D01*
Y482064D02*
X645505Y472220D01*
Y482064D02*
Y472220D01*
X656755Y482064D02*
Y472220D01*
Y482064D02*
X663317Y472220D01*
Y482064D02*
Y472220D01*
X669411Y482064D02*
X668474Y481595D01*
X667536Y480657D01*
X667067Y479720D01*
X666599Y478314D01*
Y475970D01*
X667067Y474564D01*
X667536Y473626D01*
X668474Y472689D01*
X669411Y472220D01*
X671286D01*
X672224Y472689D01*
X673161Y473626D01*
X673630Y474564D01*
X674099Y475970D01*
Y478314D01*
X673630Y479720D01*
X673161Y480657D01*
X672224Y481595D01*
X671286Y482064D01*
X669411D01*
X679255D02*
Y472220D01*
X675974Y482064D02*
X682536D01*
X684880D02*
Y472220D01*
Y482064D02*
X690974D01*
X684880Y477376D02*
X688630D01*
X684880Y472220D02*
X690974D01*
X699880Y480657D02*
X698942Y481595D01*
X697536Y482064D01*
X695661D01*
X694255Y481595D01*
X693317Y480657D01*
Y479720D01*
X693786Y478782D01*
X694255Y478314D01*
X695192Y477845D01*
X698005Y476907D01*
X698942Y476439D01*
X699411Y475970D01*
X699880Y475032D01*
Y473626D01*
X698942Y472689D01*
X697536Y472220D01*
X695661D01*
X694255Y472689D01*
X693317Y473626D01*
X703630Y478782D02*
X703161Y478314D01*
X703630Y477845D01*
X704099Y478314D01*
X703630Y478782D01*
Y473157D02*
X703161Y472689D01*
X703630Y472220D01*
X704099Y472689D01*
X703630Y473157D01*
X522692Y460189D02*
X523630Y460657D01*
X525036Y462064D01*
Y452220D01*
X531599Y453157D02*
X531130Y452689D01*
X531599Y452220D01*
X532067Y452689D01*
X531599Y453157D01*
X550817Y462064D02*
Y452220D01*
Y462064D02*
X555036D01*
X556442Y461595D01*
X556911Y461126D01*
X557380Y460189D01*
Y459251D01*
X556911Y458314D01*
X556442Y457845D01*
X555036Y457376D01*
X550817D02*
X555036D01*
X556442Y456907D01*
X556911Y456439D01*
X557380Y455501D01*
Y454095D01*
X556911Y453157D01*
X556442Y452689D01*
X555036Y452220D01*
X550817D01*
X563005Y462064D02*
X562067Y461595D01*
X561130Y460657D01*
X560661Y459720D01*
X560192Y458314D01*
Y455970D01*
X560661Y454564D01*
X561130Y453626D01*
X562067Y452689D01*
X563005Y452220D01*
X564880D01*
X565817Y452689D01*
X566755Y453626D01*
X567224Y454564D01*
X567692Y455970D01*
Y458314D01*
X567224Y459720D01*
X566755Y460657D01*
X565817Y461595D01*
X564880Y462064D01*
X563005D01*
X573317D02*
X569567Y452220D01*
X573317Y462064D02*
X577067Y452220D01*
X570974Y455501D02*
X575661D01*
X579411Y462064D02*
Y452220D01*
Y462064D02*
X583630D01*
X585036Y461595D01*
X585505Y461126D01*
X585974Y460189D01*
Y459251D01*
X585505Y458314D01*
X585036Y457845D01*
X583630Y457376D01*
X579411D01*
X582692D02*
X585974Y452220D01*
X589255Y462064D02*
Y452220D01*
Y462064D02*
X592536D01*
X593942Y461595D01*
X594880Y460657D01*
X595349Y459720D01*
X595817Y458314D01*
Y455970D01*
X595349Y454564D01*
X594880Y453626D01*
X593942Y452689D01*
X592536Y452220D01*
X589255D01*
X606599Y462064D02*
Y452220D01*
Y462064D02*
X610349Y452220D01*
X614099Y462064D02*
X610349Y452220D01*
X614099Y462064D02*
Y452220D01*
X620192Y462064D02*
X616442Y452220D01*
X620192Y462064D02*
X623942Y452220D01*
X617849Y455501D02*
X622536D01*
X628161Y462064D02*
Y452220D01*
X624880Y462064D02*
X631442D01*
X633786D02*
Y452220D01*
Y462064D02*
X639880D01*
X633786Y457376D02*
X637536D01*
X633786Y452220D02*
X639880D01*
X642692Y462064D02*
Y452220D01*
Y462064D02*
X646911D01*
X648317Y461595D01*
X648786Y461126D01*
X649255Y460189D01*
Y459251D01*
X648786Y458314D01*
X648317Y457845D01*
X646911Y457376D01*
X642692D01*
X645974D02*
X649255Y452220D01*
X652536Y462064D02*
Y452220D01*
X658630Y462064D02*
X654880Y452220D01*
X658630Y462064D02*
X662380Y452220D01*
X656286Y455501D02*
X660974D01*
X664724Y462064D02*
Y452220D01*
Y452220D02*
X670349D01*
X680192Y462064D02*
Y452220D01*
X690036Y460657D02*
X689099Y461595D01*
X687692Y462064D01*
X685817D01*
X684411Y461595D01*
X683474Y460657D01*
Y459720D01*
X683942Y458782D01*
X684411Y458314D01*
X685349Y457845D01*
X688161Y456907D01*
X689099Y456439D01*
X689567Y455970D01*
X690036Y455032D01*
Y453626D01*
X689099Y452689D01*
X687692Y452220D01*
X685817D01*
X684411Y452689D01*
X683474Y453626D01*
X700817Y462064D02*
Y452220D01*
Y462064D02*
X706911D01*
X700817Y457376D02*
X704567D01*
X709255Y462064D02*
Y452220D01*
Y462064D02*
X713474D01*
X714880Y461595D01*
X715349Y461126D01*
X715817Y460189D01*
Y459251D01*
X715349Y458314D01*
X714880Y457845D01*
X713474Y457376D01*
X709255D01*
X712536D02*
X715817Y452220D01*
X723317Y462064D02*
X718630Y455501D01*
X725661D01*
X723317Y462064D02*
Y452220D01*
X737849Y462064D02*
Y452220D01*
X734567Y462064D02*
X741130D01*
X750036Y459720D02*
X749567Y460657D01*
X748630Y461595D01*
X747692Y462064D01*
X745817D01*
X744880Y461595D01*
X743942Y460657D01*
X743474Y459720D01*
X743005Y458314D01*
Y455970D01*
X743474Y454564D01*
X743942Y453626D01*
X744880Y452689D01*
X745817Y452220D01*
X747692D01*
X748630Y452689D01*
X749567Y453626D01*
X750036Y454564D01*
Y455970D01*
X747692D02*
X750036D01*
X754255Y460189D02*
X755192Y460657D01*
X756599Y462064D01*
Y452220D01*
X767849Y462064D02*
X763161D01*
X762692Y457845D01*
X763161Y458314D01*
X764567Y458782D01*
X765974D01*
X767380Y458314D01*
X768317Y457376D01*
X768786Y455970D01*
Y455032D01*
X768317Y453626D01*
X767380Y452689D01*
X765974Y452220D01*
X764567D01*
X763161Y452689D01*
X762692Y453157D01*
X762224Y454095D01*
X774411Y462064D02*
X773005Y461595D01*
X772067Y460189D01*
X771599Y457845D01*
Y456439D01*
X772067Y454095D01*
X773005Y452689D01*
X774411Y452220D01*
X775349D01*
X776755Y452689D01*
X777692Y454095D01*
X778161Y456439D01*
Y457845D01*
X777692Y460189D01*
X776755Y461595D01*
X775349Y462064D01*
X774411D01*
X521755Y439720D02*
Y440189D01*
X522224Y441126D01*
X522692Y441595D01*
X523630Y442064D01*
X525505D01*
X526442Y441595D01*
X526911Y441126D01*
X527380Y440189D01*
Y439251D01*
X526911Y438314D01*
X525974Y436907D01*
X521286Y432220D01*
X527849D01*
X531599Y433157D02*
X531130Y432689D01*
X531599Y432220D01*
X532067Y432689D01*
X531599Y433157D01*
X550817Y442064D02*
Y432220D01*
Y442064D02*
X556911D01*
X550817Y437376D02*
X554567D01*
X550817Y432220D02*
X556911D01*
X559724Y442064D02*
Y432220D01*
Y442064D02*
X566286Y432220D01*
Y442064D02*
Y432220D01*
X570036Y442064D02*
Y432220D01*
Y442064D02*
X573317D01*
X574724Y441595D01*
X575661Y440657D01*
X576130Y439720D01*
X576599Y438314D01*
Y435970D01*
X576130Y434564D01*
X575661Y433626D01*
X574724Y432689D01*
X573317Y432220D01*
X570036D01*
X587380Y442064D02*
Y432220D01*
X593005Y442064D02*
Y432220D01*
X589724Y442064D02*
X596286D01*
X598630D02*
Y432220D01*
Y442064D02*
X604724D01*
X598630Y437376D02*
X602380D01*
X598630Y432220D02*
X604724D01*
X607536Y442064D02*
Y432220D01*
Y442064D02*
X611286Y432220D01*
X615036Y442064D02*
X611286Y432220D01*
X615036Y442064D02*
Y432220D01*
X628161Y442064D02*
Y432220D01*
X624880Y442064D02*
X631442D01*
X633786D02*
Y432220D01*
X640349Y442064D02*
Y432220D01*
X633786Y437376D02*
X640349D01*
X644099Y442064D02*
Y432220D01*
X654411Y439720D02*
X653942Y440657D01*
X653005Y441595D01*
X652067Y442064D01*
X650192D01*
X649255Y441595D01*
X648317Y440657D01*
X647849Y439720D01*
X647380Y438314D01*
Y435970D01*
X647849Y434564D01*
X648317Y433626D01*
X649255Y432689D01*
X650192Y432220D01*
X652067D01*
X653005Y432689D01*
X653942Y433626D01*
X654411Y434564D01*
X657692Y442064D02*
Y432220D01*
X664255Y442064D02*
X657692Y435501D01*
X660036Y437845D02*
X664255Y432220D01*
X667536Y442064D02*
Y432220D01*
Y442064D02*
X674099Y432220D01*
Y442064D02*
Y432220D01*
X677849Y442064D02*
Y432220D01*
Y442064D02*
X683942D01*
X677849Y437376D02*
X681599D01*
X677849Y432220D02*
X683942D01*
X692849Y440657D02*
X691911Y441595D01*
X690505Y442064D01*
X688630D01*
X687224Y441595D01*
X686286Y440657D01*
Y439720D01*
X686755Y438782D01*
X687224Y438314D01*
X688161Y437845D01*
X690974Y436907D01*
X691911Y436439D01*
X692380Y435970D01*
X692849Y435032D01*
Y433626D01*
X691911Y432689D01*
X690505Y432220D01*
X688630D01*
X687224Y432689D01*
X686286Y433626D01*
X702224Y440657D02*
X701286Y441595D01*
X699880Y442064D01*
X698005D01*
X696599Y441595D01*
X695661Y440657D01*
Y439720D01*
X696130Y438782D01*
X696599Y438314D01*
X697536Y437845D01*
X700349Y436907D01*
X701286Y436439D01*
X701755Y435970D01*
X702224Y435032D01*
Y433626D01*
X701286Y432689D01*
X699880Y432220D01*
X698005D01*
X696599Y432689D01*
X695661Y433626D01*
X719099Y440657D02*
X718161Y441595D01*
X716755Y442064D01*
X714880D01*
X713474Y441595D01*
X712536Y440657D01*
Y439720D01*
X713005Y438782D01*
X713474Y438314D01*
X714411Y437845D01*
X717224Y436907D01*
X718161Y436439D01*
X718630Y435970D01*
X719099Y435032D01*
Y433626D01*
X718161Y432689D01*
X716755Y432220D01*
X714880D01*
X713474Y432689D01*
X712536Y433626D01*
X722380Y442064D02*
Y432220D01*
X728942Y442064D02*
Y432220D01*
X722380Y437376D02*
X728942D01*
X735036Y442064D02*
X734099Y441595D01*
X733161Y440657D01*
X732692Y439720D01*
X732224Y438314D01*
Y435970D01*
X732692Y434564D01*
X733161Y433626D01*
X734099Y432689D01*
X735036Y432220D01*
X736911D01*
X737849Y432689D01*
X738786Y433626D01*
X739255Y434564D01*
X739724Y435970D01*
Y438314D01*
X739255Y439720D01*
X738786Y440657D01*
X737849Y441595D01*
X736911Y442064D01*
X735036D01*
X743005D02*
Y435032D01*
X743474Y433626D01*
X744411Y432689D01*
X745817Y432220D01*
X746755D01*
X748161Y432689D01*
X749099Y433626D01*
X749567Y435032D01*
Y442064D01*
X753317D02*
Y432220D01*
Y432220D02*
X758942D01*
X761286Y442064D02*
Y432220D01*
Y442064D02*
X764567D01*
X765974Y441595D01*
X766911Y440657D01*
X767380Y439720D01*
X767849Y438314D01*
Y435970D01*
X767380Y434564D01*
X766911Y433626D01*
X765974Y432689D01*
X764567Y432220D01*
X761286D01*
X778630Y442064D02*
Y432220D01*
Y442064D02*
X782849D01*
X784255Y441595D01*
X784724Y441126D01*
X785192Y440189D01*
Y439251D01*
X784724Y438314D01*
X784255Y437845D01*
X782849Y437376D01*
X778630D02*
X782849D01*
X784255Y436907D01*
X784724Y436439D01*
X785192Y435501D01*
Y434095D01*
X784724Y433157D01*
X784255Y432689D01*
X782849Y432220D01*
X778630D01*
X788474Y442064D02*
Y432220D01*
Y442064D02*
X794567D01*
X788474Y437376D02*
X792224D01*
X788474Y432220D02*
X794567D01*
X807224Y442064D02*
X805817Y441595D01*
X804880Y440189D01*
X804411Y437845D01*
Y436439D01*
X804880Y434095D01*
X805817Y432689D01*
X807224Y432220D01*
X808161D01*
X809567Y432689D01*
X810505Y434095D01*
X810974Y436439D01*
Y437845D01*
X810505Y440189D01*
X809567Y441595D01*
X808161Y442064D01*
X807224D01*
X814724Y433157D02*
X814255Y432689D01*
X814724Y432220D01*
X815192Y432689D01*
X814724Y433157D01*
X821286Y442064D02*
X819880Y441595D01*
X818942Y440189D01*
X818474Y437845D01*
Y436439D01*
X818942Y434095D01*
X819880Y432689D01*
X821286Y432220D01*
X822224D01*
X823630Y432689D01*
X824567Y434095D01*
X825036Y436439D01*
Y437845D01*
X824567Y440189D01*
X823630Y441595D01*
X822224Y442064D01*
X821286D01*
X833942Y440657D02*
X833474Y441595D01*
X832067Y442064D01*
X831130D01*
X829724Y441595D01*
X828786Y440189D01*
X828317Y437845D01*
Y435501D01*
X828786Y433626D01*
X829724Y432689D01*
X831130Y432220D01*
X831599D01*
X833005Y432689D01*
X833942Y433626D01*
X834411Y435032D01*
Y435501D01*
X833942Y436907D01*
X833005Y437845D01*
X831599Y438314D01*
X831130D01*
X829724Y437845D01*
X828786Y436907D01*
X828317Y435501D01*
X837692Y439720D02*
Y440189D01*
X838161Y441126D01*
X838630Y441595D01*
X839567Y442064D01*
X841442D01*
X842380Y441595D01*
X842849Y441126D01*
X843317Y440189D01*
Y439251D01*
X842849Y438314D01*
X841911Y436907D01*
X837224Y432220D01*
X843786D01*
X847067Y442064D02*
Y438782D01*
X850817Y442064D02*
Y438782D01*
X522224Y422064D02*
X527380D01*
X524567Y418314D01*
X525974D01*
X526911Y417845D01*
X527380Y417376D01*
X527849Y415970D01*
Y415032D01*
X527380Y413626D01*
X526442Y412689D01*
X525036Y412220D01*
X523630D01*
X522224Y412689D01*
X521755Y413157D01*
X521286Y414095D01*
X531599Y413157D02*
X531130Y412689D01*
X531599Y412220D01*
X532067Y412689D01*
X531599Y413157D01*
X551755Y420189D02*
X552692Y420657D01*
X554099Y422064D01*
Y412220D01*
X570036Y422064D02*
X569099Y421595D01*
X568161Y420657D01*
X567692Y419720D01*
X567224Y418314D01*
Y415970D01*
X567692Y414564D01*
X568161Y413626D01*
X569099Y412689D01*
X570036Y412220D01*
X571911D01*
X572849Y412689D01*
X573786Y413626D01*
X574255Y414564D01*
X574724Y415970D01*
Y418314D01*
X574255Y419720D01*
X573786Y420657D01*
X572849Y421595D01*
X571911Y422064D01*
X570036D01*
X584099D02*
X577536Y412220D01*
Y422064D02*
X584099D01*
X577536Y412220D02*
X584099D01*
X601442Y419720D02*
X600974Y420657D01*
X600036Y421595D01*
X599099Y422064D01*
X597224D01*
X596286Y421595D01*
X595349Y420657D01*
X594880Y419720D01*
X594411Y418314D01*
Y415970D01*
X594880Y414564D01*
X595349Y413626D01*
X596286Y412689D01*
X597224Y412220D01*
X599099D01*
X600036Y412689D01*
X600974Y413626D01*
X601442Y414564D01*
X607067Y422064D02*
X606130Y421595D01*
X605192Y420657D01*
X604724Y419720D01*
X604255Y418314D01*
Y415970D01*
X604724Y414564D01*
X605192Y413626D01*
X606130Y412689D01*
X607067Y412220D01*
X608942D01*
X609880Y412689D01*
X610817Y413626D01*
X611286Y414564D01*
X611755Y415970D01*
Y418314D01*
X611286Y419720D01*
X610817Y420657D01*
X609880Y421595D01*
X608942Y422064D01*
X607067D01*
X615036D02*
Y412220D01*
Y422064D02*
X619255D01*
X620661Y421595D01*
X621130Y421126D01*
X621599Y420189D01*
Y418782D01*
X621130Y417845D01*
X620661Y417376D01*
X619255Y416907D01*
X615036D01*
X624880Y422064D02*
Y412220D01*
Y422064D02*
X629099D01*
X630505Y421595D01*
X630974Y421126D01*
X631442Y420189D01*
Y418782D01*
X630974Y417845D01*
X630505Y417376D01*
X629099Y416907D01*
X624880D01*
X634724Y422064D02*
Y412220D01*
Y422064D02*
X640817D01*
X634724Y417376D02*
X638474D01*
X634724Y412220D02*
X640817D01*
X643630Y422064D02*
Y412220D01*
Y422064D02*
X647849D01*
X649255Y421595D01*
X649724Y421126D01*
X650192Y420189D01*
Y419251D01*
X649724Y418314D01*
X649255Y417845D01*
X647849Y417376D01*
X643630D01*
X646911D02*
X650192Y412220D01*
X660974Y422064D02*
Y412220D01*
Y422064D02*
X665192D01*
X666599Y421595D01*
X667067Y421126D01*
X667536Y420189D01*
Y418782D01*
X667067Y417845D01*
X666599Y417376D01*
X665192Y416907D01*
X660974D01*
X670817Y422064D02*
Y412220D01*
Y412220D02*
X676442D01*
X681130Y422064D02*
X677380Y412220D01*
X681130Y422064D02*
X684880Y412220D01*
X678786Y415501D02*
X683474D01*
X689099Y422064D02*
Y412220D01*
X685817Y422064D02*
X692380D01*
X694724D02*
Y412220D01*
X698474Y422064D02*
Y412220D01*
Y422064D02*
X705036Y412220D01*
Y422064D02*
Y412220D01*
X715349Y419720D02*
X714880Y420657D01*
X713942Y421595D01*
X713005Y422064D01*
X711130D01*
X710192Y421595D01*
X709255Y420657D01*
X708786Y419720D01*
X708317Y418314D01*
Y415970D01*
X708786Y414564D01*
X709255Y413626D01*
X710192Y412689D01*
X711130Y412220D01*
X713005D01*
X713942Y412689D01*
X714880Y413626D01*
X715349Y414564D01*
Y415970D01*
X713005D02*
X715349D01*
X525974Y402064D02*
X521286Y395501D01*
X528317D01*
X525974Y402064D02*
Y392220D01*
X531599Y393157D02*
X531130Y392689D01*
X531599Y392220D01*
X532067Y392689D01*
X531599Y393157D01*
X557380Y399720D02*
X556911Y400657D01*
X555974Y401595D01*
X555036Y402064D01*
X553161D01*
X552224Y401595D01*
X551286Y400657D01*
X550817Y399720D01*
X550349Y398314D01*
Y395970D01*
X550817Y394564D01*
X551286Y393626D01*
X552224Y392689D01*
X553161Y392220D01*
X555036D01*
X555974Y392689D01*
X556911Y393626D01*
X557380Y394564D01*
Y395970D01*
X555036D02*
X557380D01*
X560661Y402064D02*
Y392220D01*
Y392220D02*
X566286D01*
X570974Y402064D02*
X570036Y401595D01*
X569099Y400657D01*
X568630Y399720D01*
X568161Y398314D01*
Y395970D01*
X568630Y394564D01*
X569099Y393626D01*
X570036Y392689D01*
X570974Y392220D01*
X572849D01*
X573786Y392689D01*
X574724Y393626D01*
X575192Y394564D01*
X575661Y395970D01*
Y398314D01*
X575192Y399720D01*
X574724Y400657D01*
X573786Y401595D01*
X572849Y402064D01*
X570974D01*
X585036Y400657D02*
X584099Y401595D01*
X582692Y402064D01*
X580817D01*
X579411Y401595D01*
X578474Y400657D01*
Y399720D01*
X578942Y398782D01*
X579411Y398314D01*
X580349Y397845D01*
X583161Y396907D01*
X584099Y396439D01*
X584567Y395970D01*
X585036Y395032D01*
Y393626D01*
X584099Y392689D01*
X582692Y392220D01*
X580817D01*
X579411Y392689D01*
X578474Y393626D01*
X594411Y400657D02*
X593474Y401595D01*
X592067Y402064D01*
X590192D01*
X588786Y401595D01*
X587849Y400657D01*
Y399720D01*
X588317Y398782D01*
X588786Y398314D01*
X589724Y397845D01*
X592536Y396907D01*
X593474Y396439D01*
X593942Y395970D01*
X594411Y395032D01*
Y393626D01*
X593474Y392689D01*
X592067Y392220D01*
X590192D01*
X588786Y392689D01*
X587849Y393626D01*
X605192Y402064D02*
Y392220D01*
Y402064D02*
X609411D01*
X610817Y401595D01*
X611286Y401126D01*
X611755Y400189D01*
Y399251D01*
X611286Y398314D01*
X610817Y397845D01*
X609411Y397376D01*
X605192D02*
X609411D01*
X610817Y396907D01*
X611286Y396439D01*
X611755Y395501D01*
Y394095D01*
X611286Y393157D01*
X610817Y392689D01*
X609411Y392220D01*
X605192D01*
X615036Y402064D02*
Y392220D01*
Y392220D02*
X620661D01*
X623005Y402064D02*
Y395032D01*
X623474Y393626D01*
X624411Y392689D01*
X625817Y392220D01*
X626755D01*
X628161Y392689D01*
X629099Y393626D01*
X629567Y395032D01*
Y402064D01*
X633317D02*
Y392220D01*
Y402064D02*
X639411D01*
X633317Y397376D02*
X637067D01*
X633317Y392220D02*
X639411D01*
X649724Y402064D02*
Y392220D01*
Y392220D02*
X655349D01*
X657692Y402064D02*
Y392220D01*
Y402064D02*
X661911D01*
X663317Y401595D01*
X663786Y401126D01*
X664255Y400189D01*
Y398782D01*
X663786Y397845D01*
X663317Y397376D01*
X661911Y396907D01*
X657692D01*
X667536Y402064D02*
Y392220D01*
X684880Y400657D02*
X683942Y401595D01*
X682536Y402064D01*
X680661D01*
X679255Y401595D01*
X678317Y400657D01*
Y399720D01*
X678786Y398782D01*
X679255Y398314D01*
X680192Y397845D01*
X683005Y396907D01*
X683942Y396439D01*
X684411Y395970D01*
X684880Y395032D01*
Y393626D01*
X683942Y392689D01*
X682536Y392220D01*
X680661D01*
X679255Y392689D01*
X678317Y393626D01*
X690505Y402064D02*
X689567Y401595D01*
X688630Y400657D01*
X688161Y399720D01*
X687692Y398314D01*
Y395970D01*
X688161Y394564D01*
X688630Y393626D01*
X689567Y392689D01*
X690505Y392220D01*
X692380D01*
X693317Y392689D01*
X694255Y393626D01*
X694724Y394564D01*
X695192Y395970D01*
Y398314D01*
X694724Y399720D01*
X694255Y400657D01*
X693317Y401595D01*
X692380Y402064D01*
X690505D01*
X698474D02*
Y392220D01*
Y392220D02*
X704099D01*
X706442Y402064D02*
Y392220D01*
Y402064D02*
X709724D01*
X711130Y401595D01*
X712067Y400657D01*
X712536Y399720D01*
X713005Y398314D01*
Y395970D01*
X712536Y394564D01*
X712067Y393626D01*
X711130Y392689D01*
X709724Y392220D01*
X706442D01*
X716286Y402064D02*
Y392220D01*
Y402064D02*
X722380D01*
X716286Y397376D02*
X720036D01*
X716286Y392220D02*
X722380D01*
X725192Y402064D02*
Y392220D01*
Y402064D02*
X729411D01*
X730817Y401595D01*
X731286Y401126D01*
X731755Y400189D01*
Y399251D01*
X731286Y398314D01*
X730817Y397845D01*
X729411Y397376D01*
X725192D01*
X728474D02*
X731755Y392220D01*
X735036Y402064D02*
Y392220D01*
Y402064D02*
X738786Y392220D01*
X742536Y402064D02*
X738786Y392220D01*
X742536Y402064D02*
Y392220D01*
X748630Y402064D02*
X744880Y392220D01*
X748630Y402064D02*
X752380Y392220D01*
X746286Y395501D02*
X750974D01*
X760817Y400657D02*
X759880Y401595D01*
X758474Y402064D01*
X756599D01*
X755192Y401595D01*
X754255Y400657D01*
Y399720D01*
X754724Y398782D01*
X755192Y398314D01*
X756130Y397845D01*
X758942Y396907D01*
X759880Y396439D01*
X760349Y395970D01*
X760817Y395032D01*
Y393626D01*
X759880Y392689D01*
X758474Y392220D01*
X756599D01*
X755192Y392689D01*
X754255Y393626D01*
X764099Y402064D02*
Y392220D01*
X770661Y402064D02*
X764099Y395501D01*
X766442Y397845D02*
X770661Y392220D01*
X783786Y402064D02*
X782849Y401595D01*
X781911Y400657D01*
X781442Y399720D01*
X780974Y398314D01*
Y395970D01*
X781442Y394564D01*
X781911Y393626D01*
X782849Y392689D01*
X783786Y392220D01*
X785661D01*
X786599Y392689D01*
X787536Y393626D01*
X788005Y394564D01*
X788474Y395970D01*
Y398314D01*
X788005Y399720D01*
X787536Y400657D01*
X786599Y401595D01*
X785661Y402064D01*
X783786D01*
X790349D02*
X794099Y392220D01*
X797849Y402064D02*
X794099Y392220D01*
X800192Y402064D02*
Y392220D01*
Y402064D02*
X806286D01*
X800192Y397376D02*
X803942D01*
X800192Y392220D02*
X806286D01*
X809099Y402064D02*
Y392220D01*
Y402064D02*
X813317D01*
X814724Y401595D01*
X815192Y401126D01*
X815661Y400189D01*
Y399251D01*
X815192Y398314D01*
X814724Y397845D01*
X813317Y397376D01*
X809099D01*
X812380D02*
X815661Y392220D01*
X826442Y402064D02*
Y392220D01*
Y402064D02*
X830661D01*
X832067Y401595D01*
X832536Y401126D01*
X833005Y400189D01*
Y399251D01*
X832536Y398314D01*
X832067Y397845D01*
X830661Y397376D01*
X826442D02*
X830661D01*
X832067Y396907D01*
X832536Y396439D01*
X833005Y395501D01*
Y394095D01*
X832536Y393157D01*
X832067Y392689D01*
X830661Y392220D01*
X826442D01*
X838630Y402064D02*
X834880Y392220D01*
X838630Y402064D02*
X842380Y392220D01*
X836286Y395501D02*
X840974D01*
X844724Y402064D02*
Y392220D01*
Y402064D02*
X848942D01*
X850349Y401595D01*
X850817Y401126D01*
X851286Y400189D01*
Y399251D01*
X850817Y398314D01*
X850349Y397845D01*
X848942Y397376D01*
X844724D01*
X848005D02*
X851286Y392220D01*
X854567Y402064D02*
Y392220D01*
Y402064D02*
X860661D01*
X854567Y397376D02*
X858317D01*
X854567Y392220D02*
X860661D01*
X877536Y399720D02*
X877067Y400657D01*
X876130Y401595D01*
X875192Y402064D01*
X873317D01*
X872380Y401595D01*
X871442Y400657D01*
X870974Y399720D01*
X870505Y398314D01*
Y395970D01*
X870974Y394564D01*
X871442Y393626D01*
X872380Y392689D01*
X873317Y392220D01*
X875192D01*
X876130Y392689D01*
X877067Y393626D01*
X877536Y394564D01*
X883161Y402064D02*
X882224Y401595D01*
X881286Y400657D01*
X880817Y399720D01*
X880349Y398314D01*
Y395970D01*
X880817Y394564D01*
X881286Y393626D01*
X882224Y392689D01*
X883161Y392220D01*
X885036D01*
X885974Y392689D01*
X886911Y393626D01*
X887380Y394564D01*
X887849Y395970D01*
Y398314D01*
X887380Y399720D01*
X886911Y400657D01*
X885974Y401595D01*
X885036Y402064D01*
X883161D01*
X891130D02*
Y392220D01*
Y402064D02*
X895349D01*
X896755Y401595D01*
X897224Y401126D01*
X897692Y400189D01*
Y398782D01*
X897224Y397845D01*
X896755Y397376D01*
X895349Y396907D01*
X891130D01*
X900974Y402064D02*
Y392220D01*
Y402064D02*
X905192D01*
X906599Y401595D01*
X907067Y401126D01*
X907536Y400189D01*
Y398782D01*
X907067Y397845D01*
X906599Y397376D01*
X905192Y396907D01*
X900974D01*
X910817Y402064D02*
Y392220D01*
Y402064D02*
X916911D01*
X910817Y397376D02*
X914567D01*
X910817Y392220D02*
X916911D01*
X919724Y402064D02*
Y392220D01*
Y402064D02*
X923942D01*
X925349Y401595D01*
X925817Y401126D01*
X926286Y400189D01*
Y399251D01*
X925817Y398314D01*
X925349Y397845D01*
X923942Y397376D01*
X919724D01*
X923005D02*
X926286Y392220D01*
X526911Y382064D02*
X522224D01*
X521755Y377845D01*
X522224Y378314D01*
X523630Y378782D01*
X525036D01*
X526442Y378314D01*
X527380Y377376D01*
X527849Y375970D01*
Y375032D01*
X527380Y373626D01*
X526442Y372689D01*
X525036Y372220D01*
X523630D01*
X522224Y372689D01*
X521755Y373157D01*
X521286Y374095D01*
X531599Y373157D02*
X531130Y372689D01*
X531599Y372220D01*
X532067Y372689D01*
X531599Y373157D01*
X550817Y382064D02*
Y372220D01*
X557380Y382064D02*
Y372220D01*
X550817Y377376D02*
X557380D01*
X563474Y382064D02*
X562536Y381595D01*
X561599Y380657D01*
X561130Y379720D01*
X560661Y378314D01*
Y375970D01*
X561130Y374564D01*
X561599Y373626D01*
X562536Y372689D01*
X563474Y372220D01*
X565349D01*
X566286Y372689D01*
X567224Y373626D01*
X567692Y374564D01*
X568161Y375970D01*
Y378314D01*
X567692Y379720D01*
X567224Y380657D01*
X566286Y381595D01*
X565349Y382064D01*
X563474D01*
X573317D02*
Y372220D01*
X570036Y382064D02*
X576599D01*
X588786D02*
X585036Y372220D01*
X588786Y382064D02*
X592536Y372220D01*
X586442Y375501D02*
X591130D01*
X594880Y382064D02*
Y372220D01*
X598630Y382064D02*
Y372220D01*
Y382064D02*
X602849D01*
X604255Y381595D01*
X604724Y381126D01*
X605192Y380189D01*
Y379251D01*
X604724Y378314D01*
X604255Y377845D01*
X602849Y377376D01*
X598630D01*
X601911D02*
X605192Y372220D01*
X615974Y382064D02*
Y372220D01*
Y372220D02*
X621599D01*
X623942Y382064D02*
Y372220D01*
Y382064D02*
X630036D01*
X623942Y377376D02*
X627692D01*
X623942Y372220D02*
X630036D01*
X631442Y382064D02*
X635192Y372220D01*
X638942Y382064D02*
X635192Y372220D01*
X641286Y382064D02*
Y372220D01*
Y382064D02*
X647380D01*
X641286Y377376D02*
X645036D01*
X641286Y372220D02*
X647380D01*
X650192Y382064D02*
Y372220D01*
Y372220D02*
X655817D01*
X658161Y382064D02*
Y372220D01*
Y382064D02*
X664255D01*
X658161Y377376D02*
X661911D01*
X658161Y372220D02*
X664255D01*
X667067Y382064D02*
Y372220D01*
Y382064D02*
X670349D01*
X671755Y381595D01*
X672692Y380657D01*
X673161Y379720D01*
X673630Y378314D01*
Y375970D01*
X673161Y374564D01*
X672692Y373626D01*
X671755Y372689D01*
X670349Y372220D01*
X667067D01*
X690505Y380657D02*
X689567Y381595D01*
X688161Y382064D01*
X686286D01*
X684880Y381595D01*
X683942Y380657D01*
Y379720D01*
X684411Y378782D01*
X684880Y378314D01*
X685817Y377845D01*
X688630Y376907D01*
X689567Y376439D01*
X690036Y375970D01*
X690505Y375032D01*
Y373626D01*
X689567Y372689D01*
X688161Y372220D01*
X686286D01*
X684880Y372689D01*
X683942Y373626D01*
X696130Y382064D02*
X695192Y381595D01*
X694255Y380657D01*
X693786Y379720D01*
X693317Y378314D01*
Y375970D01*
X693786Y374564D01*
X694255Y373626D01*
X695192Y372689D01*
X696130Y372220D01*
X698005D01*
X698942Y372689D01*
X699880Y373626D01*
X700349Y374564D01*
X700817Y375970D01*
Y378314D01*
X700349Y379720D01*
X699880Y380657D01*
X698942Y381595D01*
X698005Y382064D01*
X696130D01*
X704099D02*
Y372220D01*
Y372220D02*
X709724D01*
X712067Y382064D02*
Y372220D01*
Y382064D02*
X715349D01*
X716755Y381595D01*
X717692Y380657D01*
X718161Y379720D01*
X718630Y378314D01*
Y375970D01*
X718161Y374564D01*
X717692Y373626D01*
X716755Y372689D01*
X715349Y372220D01*
X712067D01*
X721911Y382064D02*
Y372220D01*
Y382064D02*
X728005D01*
X721911Y377376D02*
X725661D01*
X721911Y372220D02*
X728005D01*
X730817Y382064D02*
Y372220D01*
Y382064D02*
X735036D01*
X736442Y381595D01*
X736911Y381126D01*
X737380Y380189D01*
Y379251D01*
X736911Y378314D01*
X736442Y377845D01*
X735036Y377376D01*
X730817D01*
X734099D02*
X737380Y372220D01*
X748161Y382064D02*
Y372220D01*
Y382064D02*
X752380D01*
X753786Y381595D01*
X754255Y381126D01*
X754724Y380189D01*
Y378782D01*
X754255Y377845D01*
X753786Y377376D01*
X752380Y376907D01*
X748161D01*
X758005Y382064D02*
Y372220D01*
Y372220D02*
X763630D01*
X768317Y382064D02*
X764567Y372220D01*
X768317Y382064D02*
X772067Y372220D01*
X765974Y375501D02*
X770661D01*
X776286Y382064D02*
Y372220D01*
X773005Y382064D02*
X779567D01*
X781911D02*
Y372220D01*
X785661Y382064D02*
Y372220D01*
Y382064D02*
X792224Y372220D01*
Y382064D02*
Y372220D01*
X802536Y379720D02*
X802067Y380657D01*
X801130Y381595D01*
X800192Y382064D01*
X798317D01*
X797380Y381595D01*
X796442Y380657D01*
X795974Y379720D01*
X795505Y378314D01*
Y375970D01*
X795974Y374564D01*
X796442Y373626D01*
X797380Y372689D01*
X798317Y372220D01*
X800192D01*
X801130Y372689D01*
X802067Y373626D01*
X802536Y374564D01*
Y375970D01*
X800192D02*
X802536D01*
X806755Y372689D02*
X806286Y372220D01*
X805817Y372689D01*
X806286Y373157D01*
X806755Y372689D01*
Y371751D01*
X806286Y370814D01*
X805817Y370345D01*
X820349Y382064D02*
X818942Y381595D01*
X818005Y380189D01*
X817536Y377845D01*
Y376439D01*
X818005Y374095D01*
X818942Y372689D01*
X820349Y372220D01*
X821286D01*
X822692Y372689D01*
X823630Y374095D01*
X824099Y376439D01*
Y377845D01*
X823630Y380189D01*
X822692Y381595D01*
X821286Y382064D01*
X820349D01*
X827849Y373157D02*
X827380Y372689D01*
X827849Y372220D01*
X828317Y372689D01*
X827849Y373157D01*
X834411Y382064D02*
X833005Y381595D01*
X832067Y380189D01*
X831599Y377845D01*
Y376439D01*
X832067Y374095D01*
X833005Y372689D01*
X834411Y372220D01*
X835349D01*
X836755Y372689D01*
X837692Y374095D01*
X838161Y376439D01*
Y377845D01*
X837692Y380189D01*
X836755Y381595D01*
X835349Y382064D01*
X834411D01*
X843786D02*
X842380Y381595D01*
X841442Y380189D01*
X840974Y377845D01*
Y376439D01*
X841442Y374095D01*
X842380Y372689D01*
X843786Y372220D01*
X844724D01*
X846130Y372689D01*
X847067Y374095D01*
X847536Y376439D01*
Y377845D01*
X847067Y380189D01*
X846130Y381595D01*
X844724Y382064D01*
X843786D01*
X853161D02*
X851755Y381595D01*
X850817Y380189D01*
X850349Y377845D01*
Y376439D01*
X850817Y374095D01*
X851755Y372689D01*
X853161Y372220D01*
X854099D01*
X855505Y372689D01*
X856442Y374095D01*
X856911Y376439D01*
Y377845D01*
X856442Y380189D01*
X855505Y381595D01*
X854099Y382064D01*
X853161D01*
X860661D02*
X865817D01*
X863005Y378314D01*
X864411D01*
X865349Y377845D01*
X865817Y377376D01*
X866286Y375970D01*
Y375032D01*
X865817Y373626D01*
X864880Y372689D01*
X863474Y372220D01*
X862067D01*
X860661Y372689D01*
X860192Y373157D01*
X859724Y374095D01*
X877067Y382064D02*
Y372220D01*
X880817Y382064D02*
Y372220D01*
Y382064D02*
X887380Y372220D01*
Y382064D02*
Y372220D01*
X897692Y379720D02*
X897224Y380657D01*
X896286Y381595D01*
X895349Y382064D01*
X893474D01*
X892536Y381595D01*
X891599Y380657D01*
X891130Y379720D01*
X890661Y378314D01*
Y375970D01*
X891130Y374564D01*
X891599Y373626D01*
X892536Y372689D01*
X893474Y372220D01*
X895349D01*
X896286Y372689D01*
X897224Y373626D01*
X897692Y374564D01*
X900974Y382064D02*
Y372220D01*
X907536Y382064D02*
Y372220D01*
X900974Y377376D02*
X907536D01*
X918786Y382064D02*
Y372220D01*
Y382064D02*
X922536Y372220D01*
X926286Y382064D02*
X922536Y372220D01*
X926286Y382064D02*
Y372220D01*
X930036Y382064D02*
Y372220D01*
X933786Y382064D02*
Y372220D01*
Y382064D02*
X940349Y372220D01*
Y382064D02*
Y372220D01*
M02*
