M48
;Layer_Color=9474304
;FILE_FORMAT=2:5
INCH,TZ
;TYPE=PLATED
T1F00S00C0.01500
T2F00S00C0.03543
%
T01
X320369Y235350
Y241650
X325268Y230900
Y255900
X320369Y260350
Y266650
Y285350
Y291650
X325268Y280900
X335233Y279100
X346869Y285350
Y291650
X351768Y280900
X360733Y279100
X372369Y285350
Y291650
X377268Y280900
X372369Y266650
Y260350
X377268Y255900
X360733Y254100
X351768Y255900
X346869Y260350
Y266650
X335233Y254100
X346869Y241650
Y235350
X351768Y230900
X372369Y235350
Y241650
X377268Y230900
Y305900
X372369Y310350
X360733Y304100
X351768Y305900
X346869Y310350
X335233Y304100
X325268Y305900
X320369Y310350
X308733Y304100
X298768Y305900
X293869Y310350
X282233Y304100
X272768Y305900
X256233Y304100
X246768Y305900
X241869Y310350
X230233Y304100
X220268Y305900
X215369Y310350
X203733Y304100
X194268Y305900
X189369Y310350
X177733Y304100
X167768Y305900
X162869Y310350
Y291650
Y285350
X167768Y280900
X177733Y279100
X189369Y285350
Y291650
X194268Y280900
X203733Y279100
X215369Y285350
Y291650
X220268Y280900
X230233Y279100
X241869Y285350
Y291650
X246768Y280900
X256233Y279100
X267869Y285350
Y291650
X272768Y280900
X282233Y279100
X293869Y285350
Y291650
X298768Y280900
X308733Y279100
Y254100
X298768Y255900
X293869Y260350
Y266650
X282233Y254100
X272768Y255900
X267869Y260350
Y266650
X256233Y254100
X246768Y255900
X241869Y260350
Y266650
X229733Y254100
X220268Y255900
X215369Y260350
Y266650
X203733Y254100
X194268Y255900
X189369Y260350
Y266650
X177733Y254100
X167768Y255900
X162869Y262850
Y269150
Y241650
Y235350
X170268Y230900
X189369Y235350
Y241650
X194268Y230900
X215369Y235350
Y241650
X220268Y230900
X229700
X241369Y235350
Y241650
X246268Y230900
X256200
X267869Y235350
Y241650
X272768Y230900
X293869Y235350
Y241650
X298768Y230900
X308700
X151233
X141768
X136869Y235350
Y241650
Y260350
Y266650
X141768Y255900
X151233Y254100
Y279100
X141768Y280900
X136869Y285350
Y291650
Y310350
X141768Y305900
X151233Y304100
X125233
Y279100
Y254100
X128175Y214000
X136869Y316650
Y335350
Y341650
X141768Y330900
X151233Y329100
X127733
X125233Y354100
X136869Y360350
Y366650
X141768Y355900
X151233Y354100
Y379100
X141768Y381400
X136869Y385350
Y391650
Y410350
Y416650
X141768Y405900
X151233Y404600
Y429100
X141768Y430900
X136869Y435350
Y441650
Y460350
Y466650
X141768Y455900
X151233Y454100
X125233
Y429100
Y404600
Y379100
X162869Y385850
Y392150
X167768Y381400
X177733Y379100
X189369Y385850
Y392150
X194268Y381400
X203733Y379100
X215369Y385850
Y392150
X220268Y381400
X230233Y379100
X241869Y385850
Y392150
X246768Y381400
X256233Y379100
X267869Y385850
Y392150
X272768Y381400
X282233Y379600
X293869Y385850
Y392150
X298768Y381400
X308733Y379600
Y404600
X298768Y405900
X293869Y410350
Y416650
Y435350
Y441650
X298768Y430900
X308733Y429100
Y454100
X298768Y455900
X293869Y460350
Y466650
X282233Y454100
X272768Y455900
X267869Y460350
Y466650
X256233Y454100
X246768Y455900
X241869Y460350
Y466650
X230233Y454100
X220268Y455900
X215369Y460350
Y466650
X203733Y454100
X194268Y455900
X189369Y460350
Y466650
X177733Y454100
X167768Y455900
X162869Y460350
Y466650
Y441650
Y435350
X167768Y430900
X177733Y429100
X189369Y435350
Y441650
X194268Y430900
X203733Y429100
X215369Y435350
Y441650
X220268Y430900
X230233Y429100
X241869Y435350
Y441650
X246768Y430900
X256233Y429100
X267869Y435350
Y441650
X272768Y430900
X282233Y429100
Y404600
X272768Y405900
X267869Y410350
Y416650
X256233Y404600
X246768Y405900
X241869Y410350
Y416650
X230233Y404600
X220268Y405900
X215369Y410350
Y416650
X203733Y404600
X194268Y405900
X189369Y410350
Y416650
X177733Y404600
X167768Y405900
X162869Y410350
Y416650
Y366650
Y360350
X167768Y355900
X177733Y354100
X189369Y360350
Y366650
X194268Y355900
X203733Y354100
X215369Y360350
Y366650
X220268Y355900
X230233Y354100
X241869Y360350
Y366650
X246768Y355900
X256233Y354100
X267869Y360350
Y366650
X272768Y355900
X282233Y354100
X293869Y360850
Y367150
X298768Y356400
X308733Y354100
Y329100
X298768Y330900
X293869Y335350
Y341650
X282233Y329100
X272768Y330900
X267869Y335350
Y341650
Y319150
Y312850
X256233Y329100
X246768Y330900
X241869Y335350
Y341650
X230233Y329100
X220268Y330900
X215369Y335350
Y341650
X203733Y329100
X194268Y330900
X189369Y335350
Y341650
X177733Y329100
X167768Y330900
X162869Y335350
Y341650
Y316650
X189369
X215369
X241869
X293869
X320369
Y335350
Y341650
X325268Y330900
X335233Y329100
X346869Y335350
Y341650
X346268Y356400
X346369Y360850
Y369650
Y385850
Y392150
X351268Y381400
X360733Y379600
X372369Y385850
Y392150
X377268Y381400
X372369Y367150
Y360850
X377268Y356400
X360733Y354100
X372369Y341650
Y335350
X377268Y330900
X360733Y329100
X351768Y330900
X346869Y316650
X372369
X335233Y354100
X325268Y356400
X320369Y360850
Y367150
X325268Y381400
X334733Y379600
X320369Y388350
Y394650
Y410350
Y416650
X325268Y405900
X334733Y404600
X346369Y410350
Y416650
X351268Y405900
X360733Y404600
X372369Y410350
Y416650
X377268Y405900
Y430900
X372369Y435350
Y441650
Y460350
Y466650
X377268Y455900
X360733Y454100
X351268Y455900
X346369Y460350
Y466650
X334733Y454100
X325268Y455900
X320369Y460350
Y466650
Y441650
Y435350
X325268Y430900
X334733Y429100
X346369Y435350
Y441650
X351268Y430900
X360733Y429100
Y479100
X354400
X334733
X308733
X289600Y474200
X282233Y479100
X262500Y477800
X256233Y479100
X230233
X203733
X185100Y474200
X177733Y479100
X151233
X133300Y474200
X125233Y479100
T02
X345500Y203500
X355500
X365500
X246500Y204500
X236500
X198000Y203500
X188000
X178000
M30
