G04 CAM350 V10.1.0 (Build 363) Date:  Mon Jun 15 21:36:37 2015 *
G04 Database: (Untitled) *
G04 Layer 6: PCB1.GG1 *
%FSLAX25Y25*%
%MOIN*%
%SFA1.000B1.000*%

%MIA0B0*%
%IPPOS*%
%ADD53C,0.00800*%
%ADD56C,0.00500*%
%LNPCB1.GG1*%
%LPD*%
G54D56*
X244728Y204500D02*
G01X248272D01*
X246500Y202728D02*
G01Y206272D01*
X234728Y204500D02*
G01X238272D01*
X236500Y202728D02*
G01Y206272D01*
X196228Y203500D02*
G01X199772D01*
X198000Y201728D02*
G01Y205272D01*
X186228Y203500D02*
G01X189772D01*
X188000Y201728D02*
G01Y205272D01*
X176228Y203500D02*
G01X179772D01*
X178000Y201728D02*
G01Y205272D01*
X343728Y203500D02*
G01X347272D01*
X345500Y201728D02*
G01Y205272D01*
X353728Y203500D02*
G01X357272D01*
X355500Y201728D02*
G01Y205272D01*
X363728Y203500D02*
G01X367272D01*
X365500Y201728D02*
G01Y205272D01*
X353650Y479100D02*
G01X355150D01*
X354400Y478350D02*
G01Y479850D01*
X307950Y230900D02*
G01X309450D01*
X308700Y230150D02*
G01Y231650D01*
X255450Y230900D02*
G01X256950D01*
X256200Y230150D02*
G01Y231650D01*
X288850Y474200D02*
G01X290350D01*
X289600Y473450D02*
G01Y474950D01*
X261750Y477800D02*
G01X263250D01*
X262500Y477050D02*
G01Y478550D01*
X228950Y230900D02*
G01X230450D01*
X229700Y230150D02*
G01Y231650D01*
X184350Y474200D02*
G01X185850D01*
X185100Y473450D02*
G01Y474950D01*
X150483Y230900D02*
G01X151983D01*
X151233Y230150D02*
G01Y231650D01*
X169518Y230900D02*
G01X171018D01*
X170268Y230150D02*
G01Y231650D01*
X126983Y329100D02*
G01X128483D01*
X127733Y328350D02*
G01Y329850D01*
X132550Y474200D02*
G01X134050D01*
X133300Y473450D02*
G01Y474950D01*
X162119Y262850D02*
G01X163619D01*
X162869Y262100D02*
G01Y263600D01*
X162119Y269150D02*
G01X163619D01*
X162869Y268400D02*
G01Y269900D01*
X267119Y312850D02*
G01X268619D01*
X267869Y312100D02*
G01Y313600D01*
X267119Y319150D02*
G01X268619D01*
X267869Y318400D02*
G01Y319900D01*
X319619Y388350D02*
G01X321119D01*
X320369Y387600D02*
G01Y389100D01*
X319619Y394650D02*
G01X321119D01*
X320369Y393900D02*
G01Y395400D01*
X345518Y356400D02*
G01X347018D01*
X346268Y355650D02*
G01Y357150D01*
X345619Y369650D02*
G01X347119D01*
X346369Y368900D02*
G01Y370400D01*
X136119Y235350D02*
G01X137619D01*
X136869Y234600D02*
G01Y236100D01*
X141018Y230900D02*
G01X142518D01*
X141768Y230150D02*
G01Y231650D01*
X162119Y235350D02*
G01X163619D01*
X162869Y234600D02*
G01Y236100D01*
X136119Y260350D02*
G01X137619D01*
X136869Y259600D02*
G01Y261100D01*
X141018Y255900D02*
G01X142518D01*
X141768Y255150D02*
G01Y256650D01*
X188619Y235350D02*
G01X190119D01*
X189369Y234600D02*
G01Y236100D01*
X167018Y255900D02*
G01X168518D01*
X167768Y255150D02*
G01Y256650D01*
X136119Y285350D02*
G01X137619D01*
X136869Y284600D02*
G01Y286100D01*
X193518Y230900D02*
G01X195018D01*
X194268Y230150D02*
G01Y231650D01*
X141018Y280900D02*
G01X142518D01*
X141768Y280150D02*
G01Y281650D01*
X188619Y260350D02*
G01X190119D01*
X189369Y259600D02*
G01Y261100D01*
X162119Y285350D02*
G01X163619D01*
X162869Y284600D02*
G01Y286100D01*
X193518Y255900D02*
G01X195018D01*
X194268Y255150D02*
G01Y256650D01*
X214619Y235350D02*
G01X216119D01*
X215369Y234600D02*
G01Y236100D01*
X167018Y280900D02*
G01X168518D01*
X167768Y280150D02*
G01Y281650D01*
X219518Y230900D02*
G01X221018D01*
X220268Y230150D02*
G01Y231650D01*
X136119Y310350D02*
G01X137619D01*
X136869Y309600D02*
G01Y311100D01*
X188619Y285350D02*
G01X190119D01*
X189369Y284600D02*
G01Y286100D01*
X141018Y305900D02*
G01X142518D01*
X141768Y305150D02*
G01Y306650D01*
X214619Y260350D02*
G01X216119D01*
X215369Y259600D02*
G01Y261100D01*
X193518Y280900D02*
G01X195018D01*
X194268Y280150D02*
G01Y281650D01*
X162119Y310350D02*
G01X163619D01*
X162869Y309600D02*
G01Y311100D01*
X219518Y255900D02*
G01X221018D01*
X220268Y255150D02*
G01Y256650D01*
X167018Y305900D02*
G01X168518D01*
X167768Y305150D02*
G01Y306650D01*
X240619Y235350D02*
G01X242119D01*
X241369Y234600D02*
G01Y236100D01*
X214619Y285350D02*
G01X216119D01*
X215369Y284600D02*
G01Y286100D01*
X188619Y310350D02*
G01X190119D01*
X189369Y309600D02*
G01Y311100D01*
X245518Y230900D02*
G01X247018D01*
X246268Y230150D02*
G01Y231650D01*
X136119Y335350D02*
G01X137619D01*
X136869Y334600D02*
G01Y336100D01*
X241119Y260350D02*
G01X242619D01*
X241869Y259600D02*
G01Y261100D01*
X141018Y330900D02*
G01X142518D01*
X141768Y330150D02*
G01Y331650D01*
X219518Y280900D02*
G01X221018D01*
X220268Y280150D02*
G01Y281650D01*
X193518Y305900D02*
G01X195018D01*
X194268Y305150D02*
G01Y306650D01*
X162119Y335350D02*
G01X163619D01*
X162869Y334600D02*
G01Y336100D01*
X246018Y255900D02*
G01X247518D01*
X246768Y255150D02*
G01Y256650D01*
X167018Y330900D02*
G01X168518D01*
X167768Y330150D02*
G01Y331650D01*
X214619Y310350D02*
G01X216119D01*
X215369Y309600D02*
G01Y311100D01*
X267119Y235350D02*
G01X268619D01*
X267869Y234600D02*
G01Y236100D01*
X241119Y285350D02*
G01X242619D01*
X241869Y284600D02*
G01Y286100D01*
X188619Y335350D02*
G01X190119D01*
X189369Y334600D02*
G01Y336100D01*
X219518Y305900D02*
G01X221018D01*
X220268Y305150D02*
G01Y306650D01*
X272018Y230900D02*
G01X273518D01*
X272768Y230150D02*
G01Y231650D01*
X246018Y280900D02*
G01X247518D01*
X246768Y280150D02*
G01Y281650D01*
X136119Y360350D02*
G01X137619D01*
X136869Y359600D02*
G01Y361100D01*
X193518Y330900D02*
G01X195018D01*
X194268Y330150D02*
G01Y331650D01*
X267119Y260350D02*
G01X268619D01*
X267869Y259600D02*
G01Y261100D01*
X141018Y355900D02*
G01X142518D01*
X141768Y355150D02*
G01Y356650D01*
X162119Y360350D02*
G01X163619D01*
X162869Y359600D02*
G01Y361100D01*
X241119Y310350D02*
G01X242619D01*
X241869Y309600D02*
G01Y311100D01*
X272018Y255900D02*
G01X273518D01*
X272768Y255150D02*
G01Y256650D01*
X214619Y335350D02*
G01X216119D01*
X215369Y334600D02*
G01Y336100D01*
X167018Y355900D02*
G01X168518D01*
X167768Y355150D02*
G01Y356650D01*
X267119Y285350D02*
G01X268619D01*
X267869Y284600D02*
G01Y286100D01*
X246018Y305900D02*
G01X247518D01*
X246768Y305150D02*
G01Y306650D01*
X219518Y330900D02*
G01X221018D01*
X220268Y330150D02*
G01Y331650D01*
X293119Y235350D02*
G01X294619D01*
X293869Y234600D02*
G01Y236100D01*
X188619Y360350D02*
G01X190119D01*
X189369Y359600D02*
G01Y361100D01*
X272018Y280900D02*
G01X273518D01*
X272768Y280150D02*
G01Y281650D01*
X193518Y355900D02*
G01X195018D01*
X194268Y355150D02*
G01Y356650D01*
X298018Y230900D02*
G01X299518D01*
X298768Y230150D02*
G01Y231650D01*
X293119Y260350D02*
G01X294619D01*
X293869Y259600D02*
G01Y261100D01*
X136119Y385350D02*
G01X137619D01*
X136869Y384600D02*
G01Y386100D01*
X241119Y335350D02*
G01X242619D01*
X241869Y334600D02*
G01Y336100D01*
X141018Y381400D02*
G01X142518D01*
X141768Y380650D02*
G01Y382150D01*
X214619Y360350D02*
G01X216119D01*
X215369Y359600D02*
G01Y361100D01*
X162119Y385850D02*
G01X163619D01*
X162869Y385100D02*
G01Y386600D01*
X246018Y330900D02*
G01X247518D01*
X246768Y330150D02*
G01Y331650D01*
X298018Y255900D02*
G01X299518D01*
X298768Y255150D02*
G01Y256650D01*
X167018Y381400D02*
G01X168518D01*
X167768Y380650D02*
G01Y382150D01*
X272018Y305900D02*
G01X273518D01*
X272768Y305150D02*
G01Y306650D01*
X219518Y355900D02*
G01X221018D01*
X220268Y355150D02*
G01Y356650D01*
X293119Y285350D02*
G01X294619D01*
X293869Y284600D02*
G01Y286100D01*
X188619Y385850D02*
G01X190119D01*
X189369Y385100D02*
G01Y386600D01*
X319619Y235350D02*
G01X321119D01*
X320369Y234600D02*
G01Y236100D01*
X298018Y280900D02*
G01X299518D01*
X298768Y280150D02*
G01Y281650D01*
X267119Y335350D02*
G01X268619D01*
X267869Y334600D02*
G01Y336100D01*
X193518Y381400D02*
G01X195018D01*
X194268Y380650D02*
G01Y382150D01*
X241119Y360350D02*
G01X242619D01*
X241869Y359600D02*
G01Y361100D01*
X293119Y310350D02*
G01X294619D01*
X293869Y309600D02*
G01Y311100D01*
X319619Y260350D02*
G01X321119D01*
X320369Y259600D02*
G01Y261100D01*
X136119Y410350D02*
G01X137619D01*
X136869Y409600D02*
G01Y411100D01*
X324518Y230900D02*
G01X326018D01*
X325268Y230150D02*
G01Y231650D01*
X141018Y405900D02*
G01X142518D01*
X141768Y405150D02*
G01Y406650D01*
X272018Y330900D02*
G01X273518D01*
X272768Y330150D02*
G01Y331650D01*
X246018Y355900D02*
G01X247518D01*
X246768Y355150D02*
G01Y356650D01*
X214619Y385850D02*
G01X216119D01*
X215369Y385100D02*
G01Y386600D01*
X162119Y410350D02*
G01X163619D01*
X162869Y409600D02*
G01Y411100D01*
X298018Y305900D02*
G01X299518D01*
X298768Y305150D02*
G01Y306650D01*
X219518Y381400D02*
G01X221018D01*
X220268Y380650D02*
G01Y382150D01*
X324518Y255900D02*
G01X326018D01*
X325268Y255150D02*
G01Y256650D01*
X167018Y405900D02*
G01X168518D01*
X167768Y405150D02*
G01Y406650D01*
X319619Y285350D02*
G01X321119D01*
X320369Y284600D02*
G01Y286100D01*
X267119Y360350D02*
G01X268619D01*
X267869Y359600D02*
G01Y361100D01*
X188619Y410350D02*
G01X190119D01*
X189369Y409600D02*
G01Y411100D01*
X293119Y335350D02*
G01X294619D01*
X293869Y334600D02*
G01Y336100D01*
X241119Y385850D02*
G01X242619D01*
X241869Y385100D02*
G01Y386600D01*
X346119Y235350D02*
G01X347619D01*
X346869Y234600D02*
G01Y236100D01*
X193518Y405900D02*
G01X195018D01*
X194268Y405150D02*
G01Y406650D01*
X324518Y280900D02*
G01X326018D01*
X325268Y280150D02*
G01Y281650D01*
X272018Y355900D02*
G01X273518D01*
X272768Y355150D02*
G01Y356650D01*
X298018Y330900D02*
G01X299518D01*
X298768Y330150D02*
G01Y331650D01*
X319619Y310350D02*
G01X321119D01*
X320369Y309600D02*
G01Y311100D01*
X246018Y381400D02*
G01X247518D01*
X246768Y380650D02*
G01Y382150D01*
X214619Y410350D02*
G01X216119D01*
X215369Y409600D02*
G01Y411100D01*
X136119Y435350D02*
G01X137619D01*
X136869Y434600D02*
G01Y436100D01*
X346119Y260350D02*
G01X347619D01*
X346869Y259600D02*
G01Y261100D01*
X351018Y230900D02*
G01X352518D01*
X351768Y230150D02*
G01Y231650D01*
X141018Y430900D02*
G01X142518D01*
X141768Y430150D02*
G01Y431650D01*
X219518Y405900D02*
G01X221018D01*
X220268Y405150D02*
G01Y406650D01*
X162119Y435350D02*
G01X163619D01*
X162869Y434600D02*
G01Y436100D01*
X324518Y305900D02*
G01X326018D01*
X325268Y305150D02*
G01Y306650D01*
X293119Y360850D02*
G01X294619D01*
X293869Y360100D02*
G01Y361600D01*
X267119Y385850D02*
G01X268619D01*
X267869Y385100D02*
G01Y386600D01*
X167018Y430900D02*
G01X168518D01*
X167768Y430150D02*
G01Y431650D01*
X351018Y255900D02*
G01X352518D01*
X351768Y255150D02*
G01Y256650D01*
X346119Y285350D02*
G01X347619D01*
X346869Y284600D02*
G01Y286100D01*
X319619Y335350D02*
G01X321119D01*
X320369Y334600D02*
G01Y336100D01*
X188619Y435350D02*
G01X190119D01*
X189369Y434600D02*
G01Y436100D01*
X241119Y410350D02*
G01X242619D01*
X241869Y409600D02*
G01Y411100D01*
X272018Y381400D02*
G01X273518D01*
X272768Y380650D02*
G01Y382150D01*
X298018Y356400D02*
G01X299518D01*
X298768Y355650D02*
G01Y357150D01*
X193518Y430900D02*
G01X195018D01*
X194268Y430150D02*
G01Y431650D01*
X351018Y280900D02*
G01X352518D01*
X351768Y280150D02*
G01Y281650D01*
X371619Y235350D02*
G01X373119D01*
X372369Y234600D02*
G01Y236100D01*
X246018Y405900D02*
G01X247518D01*
X246768Y405150D02*
G01Y406650D01*
X324518Y330900D02*
G01X326018D01*
X325268Y330150D02*
G01Y331650D01*
X346119Y310350D02*
G01X347619D01*
X346869Y309600D02*
G01Y311100D01*
X214619Y435350D02*
G01X216119D01*
X215369Y434600D02*
G01Y436100D01*
X371619Y260350D02*
G01X373119D01*
X372369Y259600D02*
G01Y261100D01*
X136119Y460350D02*
G01X137619D01*
X136869Y459600D02*
G01Y461100D01*
X293119Y385850D02*
G01X294619D01*
X293869Y385100D02*
G01Y386600D01*
X376518Y230900D02*
G01X378018D01*
X377268Y230150D02*
G01Y231650D01*
X141018Y455900D02*
G01X142518D01*
X141768Y455150D02*
G01Y456650D01*
X219518Y430900D02*
G01X221018D01*
X220268Y430150D02*
G01Y431650D01*
X319619Y360850D02*
G01X321119D01*
X320369Y360100D02*
G01Y361600D01*
X267119Y410350D02*
G01X268619D01*
X267869Y409600D02*
G01Y411100D01*
X351018Y305900D02*
G01X352518D01*
X351768Y305150D02*
G01Y306650D01*
X162119Y460350D02*
G01X163619D01*
X162869Y459600D02*
G01Y461100D01*
X298018Y381400D02*
G01X299518D01*
X298768Y380650D02*
G01Y382150D01*
X167018Y455900D02*
G01X168518D01*
X167768Y455150D02*
G01Y456650D01*
X371619Y285350D02*
G01X373119D01*
X372369Y284600D02*
G01Y286100D01*
X376518Y255900D02*
G01X378018D01*
X377268Y255150D02*
G01Y256650D01*
X272018Y405900D02*
G01X273518D01*
X272768Y405150D02*
G01Y406650D01*
X346119Y335350D02*
G01X347619D01*
X346869Y334600D02*
G01Y336100D01*
X324518Y356400D02*
G01X326018D01*
X325268Y355650D02*
G01Y357150D01*
X241119Y435350D02*
G01X242619D01*
X241869Y434600D02*
G01Y436100D01*
X188619Y460350D02*
G01X190119D01*
X189369Y459600D02*
G01Y461100D01*
X246018Y430900D02*
G01X247518D01*
X246768Y430150D02*
G01Y431650D01*
X193518Y455900D02*
G01X195018D01*
X194268Y455150D02*
G01Y456650D01*
X351018Y330900D02*
G01X352518D01*
X351768Y330150D02*
G01Y331650D01*
X376518Y280900D02*
G01X378018D01*
X377268Y280150D02*
G01Y281650D01*
X371619Y310350D02*
G01X373119D01*
X372369Y309600D02*
G01Y311100D01*
X293119Y410350D02*
G01X294619D01*
X293869Y409600D02*
G01Y411100D01*
X214619Y460350D02*
G01X216119D01*
X215369Y459600D02*
G01Y461100D01*
X345619Y360850D02*
G01X347119D01*
X346369Y360100D02*
G01Y361600D01*
X267119Y435350D02*
G01X268619D01*
X267869Y434600D02*
G01Y436100D01*
X298018Y405900D02*
G01X299518D01*
X298768Y405150D02*
G01Y406650D01*
X219518Y455900D02*
G01X221018D01*
X220268Y455150D02*
G01Y456650D01*
X324518Y381400D02*
G01X326018D01*
X325268Y380650D02*
G01Y382150D01*
X376518Y305900D02*
G01X378018D01*
X377268Y305150D02*
G01Y306650D01*
X272018Y430900D02*
G01X273518D01*
X272768Y430150D02*
G01Y431650D01*
X371619Y335350D02*
G01X373119D01*
X372369Y334600D02*
G01Y336100D01*
X241119Y460350D02*
G01X242619D01*
X241869Y459600D02*
G01Y461100D01*
X319619Y410350D02*
G01X321119D01*
X320369Y409600D02*
G01Y411100D01*
X246018Y455900D02*
G01X247518D01*
X246768Y455150D02*
G01Y456650D01*
X376518Y330900D02*
G01X378018D01*
X377268Y330150D02*
G01Y331650D01*
X293119Y435350D02*
G01X294619D01*
X293869Y434600D02*
G01Y436100D01*
X345619Y385850D02*
G01X347119D01*
X346369Y385100D02*
G01Y386600D01*
X324518Y405900D02*
G01X326018D01*
X325268Y405150D02*
G01Y406650D01*
X371619Y360850D02*
G01X373119D01*
X372369Y360100D02*
G01Y361600D01*
X298018Y430900D02*
G01X299518D01*
X298768Y430150D02*
G01Y431650D01*
X267119Y460350D02*
G01X268619D01*
X267869Y459600D02*
G01Y461100D01*
X350518Y381400D02*
G01X352018D01*
X351268Y380650D02*
G01Y382150D01*
X272018Y455900D02*
G01X273518D01*
X272768Y455150D02*
G01Y456650D01*
X376518Y356400D02*
G01X378018D01*
X377268Y355650D02*
G01Y357150D01*
X345619Y410350D02*
G01X347119D01*
X346369Y409600D02*
G01Y411100D01*
X319619Y435350D02*
G01X321119D01*
X320369Y434600D02*
G01Y436100D01*
X371619Y385850D02*
G01X373119D01*
X372369Y385100D02*
G01Y386600D01*
X293119Y460350D02*
G01X294619D01*
X293869Y459600D02*
G01Y461100D01*
X324518Y430900D02*
G01X326018D01*
X325268Y430150D02*
G01Y431650D01*
X350518Y405900D02*
G01X352018D01*
X351268Y405150D02*
G01Y406650D01*
X298018Y455900D02*
G01X299518D01*
X298768Y455150D02*
G01Y456650D01*
X376518Y381400D02*
G01X378018D01*
X377268Y380650D02*
G01Y382150D01*
X345619Y435350D02*
G01X347119D01*
X346369Y434600D02*
G01Y436100D01*
X371619Y410350D02*
G01X373119D01*
X372369Y409600D02*
G01Y411100D01*
X319619Y460350D02*
G01X321119D01*
X320369Y459600D02*
G01Y461100D01*
X350518Y430900D02*
G01X352018D01*
X351268Y430150D02*
G01Y431650D01*
X324518Y455900D02*
G01X326018D01*
X325268Y455150D02*
G01Y456650D01*
X376518Y405900D02*
G01X378018D01*
X377268Y405150D02*
G01Y406650D01*
X371619Y435350D02*
G01X373119D01*
X372369Y434600D02*
G01Y436100D01*
X345619Y460350D02*
G01X347119D01*
X346369Y459600D02*
G01Y461100D01*
X350518Y455900D02*
G01X352018D01*
X351268Y455150D02*
G01Y456650D01*
X376518Y430900D02*
G01X378018D01*
X377268Y430150D02*
G01Y431650D01*
X371619Y460350D02*
G01X373119D01*
X372369Y459600D02*
G01Y461100D01*
X376518Y455900D02*
G01X378018D01*
X377268Y455150D02*
G01Y456650D01*
X127425Y214000D02*
G01X128925D01*
X128175Y213250D02*
G01Y214750D01*
X136119Y241650D02*
G01X137619D01*
X136869Y240900D02*
G01Y242400D01*
X124483Y254100D02*
G01X125983D01*
X125233Y253350D02*
G01Y254850D01*
X162119Y241650D02*
G01X163619D01*
X162869Y240900D02*
G01Y242400D01*
X150483Y254100D02*
G01X151983D01*
X151233Y253350D02*
G01Y254850D01*
X136119Y266650D02*
G01X137619D01*
X136869Y265900D02*
G01Y267400D01*
X124483Y279100D02*
G01X125983D01*
X125233Y278350D02*
G01Y279850D01*
X176983Y254100D02*
G01X178483D01*
X177733Y253350D02*
G01Y254850D01*
X188619Y241650D02*
G01X190119D01*
X189369Y240900D02*
G01Y242400D01*
X150483Y279100D02*
G01X151983D01*
X151233Y278350D02*
G01Y279850D01*
X136119Y291650D02*
G01X137619D01*
X136869Y290900D02*
G01Y292400D01*
X124483Y304100D02*
G01X125983D01*
X125233Y303350D02*
G01Y304850D01*
X188619Y266650D02*
G01X190119D01*
X189369Y265900D02*
G01Y267400D01*
X176983Y279100D02*
G01X178483D01*
X177733Y278350D02*
G01Y279850D01*
X202983Y254100D02*
G01X204483D01*
X203733Y253350D02*
G01Y254850D01*
X162119Y291650D02*
G01X163619D01*
X162869Y290900D02*
G01Y292400D01*
X214619Y241650D02*
G01X216119D01*
X215369Y240900D02*
G01Y242400D01*
X150483Y304100D02*
G01X151983D01*
X151233Y303350D02*
G01Y304850D01*
X136119Y316650D02*
G01X137619D01*
X136869Y315900D02*
G01Y317400D01*
X202983Y279100D02*
G01X204483D01*
X203733Y278350D02*
G01Y279850D01*
X188619Y291650D02*
G01X190119D01*
X189369Y290900D02*
G01Y292400D01*
X214619Y266650D02*
G01X216119D01*
X215369Y265900D02*
G01Y267400D01*
X176983Y304100D02*
G01X178483D01*
X177733Y303350D02*
G01Y304850D01*
X228983Y254100D02*
G01X230483D01*
X229733Y253350D02*
G01Y254850D01*
X162119Y316650D02*
G01X163619D01*
X162869Y315900D02*
G01Y317400D01*
X240619Y241650D02*
G01X242119D01*
X241369Y240900D02*
G01Y242400D01*
X150483Y329100D02*
G01X151983D01*
X151233Y328350D02*
G01Y329850D01*
X214619Y291650D02*
G01X216119D01*
X215369Y290900D02*
G01Y292400D01*
X202983Y304100D02*
G01X204483D01*
X203733Y303350D02*
G01Y304850D01*
X229483Y279100D02*
G01X230983D01*
X230233Y278350D02*
G01Y279850D01*
X188619Y316650D02*
G01X190119D01*
X189369Y315900D02*
G01Y317400D01*
X241119Y266650D02*
G01X242619D01*
X241869Y265900D02*
G01Y267400D01*
X136119Y341650D02*
G01X137619D01*
X136869Y340900D02*
G01Y342400D01*
X176983Y329100D02*
G01X178483D01*
X177733Y328350D02*
G01Y329850D01*
X124483Y354100D02*
G01X125983D01*
X125233Y353350D02*
G01Y354850D01*
X255483Y254100D02*
G01X256983D01*
X256233Y253350D02*
G01Y254850D01*
X162119Y341650D02*
G01X163619D01*
X162869Y340900D02*
G01Y342400D01*
X267119Y241650D02*
G01X268619D01*
X267869Y240900D02*
G01Y242400D01*
X150483Y354100D02*
G01X151983D01*
X151233Y353350D02*
G01Y354850D01*
X214619Y316650D02*
G01X216119D01*
X215369Y315900D02*
G01Y317400D01*
X229483Y304100D02*
G01X230983D01*
X230233Y303350D02*
G01Y304850D01*
X202983Y329100D02*
G01X204483D01*
X203733Y328350D02*
G01Y329850D01*
X241119Y291650D02*
G01X242619D01*
X241869Y290900D02*
G01Y292400D01*
X188619Y341650D02*
G01X190119D01*
X189369Y340900D02*
G01Y342400D01*
X255483Y279100D02*
G01X256983D01*
X256233Y278350D02*
G01Y279850D01*
X267119Y266650D02*
G01X268619D01*
X267869Y265900D02*
G01Y267400D01*
X176983Y354100D02*
G01X178483D01*
X177733Y353350D02*
G01Y354850D01*
X136119Y366650D02*
G01X137619D01*
X136869Y365900D02*
G01Y367400D01*
X124483Y379100D02*
G01X125983D01*
X125233Y378350D02*
G01Y379850D01*
X241119Y316650D02*
G01X242619D01*
X241869Y315900D02*
G01Y317400D01*
X229483Y329100D02*
G01X230983D01*
X230233Y328350D02*
G01Y329850D01*
X281483Y254100D02*
G01X282983D01*
X282233Y253350D02*
G01Y254850D01*
X162119Y366650D02*
G01X163619D01*
X162869Y365900D02*
G01Y367400D01*
X214619Y341650D02*
G01X216119D01*
X215369Y340900D02*
G01Y342400D01*
X255483Y304100D02*
G01X256983D01*
X256233Y303350D02*
G01Y304850D01*
X202983Y354100D02*
G01X204483D01*
X203733Y353350D02*
G01Y354850D01*
X267119Y291650D02*
G01X268619D01*
X267869Y290900D02*
G01Y292400D01*
X293119Y241650D02*
G01X294619D01*
X293869Y240900D02*
G01Y242400D01*
X150483Y379100D02*
G01X151983D01*
X151233Y378350D02*
G01Y379850D01*
X188619Y366650D02*
G01X190119D01*
X189369Y365900D02*
G01Y367400D01*
X281483Y279100D02*
G01X282983D01*
X282233Y278350D02*
G01Y279850D01*
X176983Y379100D02*
G01X178483D01*
X177733Y378350D02*
G01Y379850D01*
X293119Y266650D02*
G01X294619D01*
X293869Y265900D02*
G01Y267400D01*
X136119Y391650D02*
G01X137619D01*
X136869Y390900D02*
G01Y392400D01*
X241119Y341650D02*
G01X242619D01*
X241869Y340900D02*
G01Y342400D01*
X255483Y329100D02*
G01X256983D01*
X256233Y328350D02*
G01Y329850D01*
X229483Y354100D02*
G01X230983D01*
X230233Y353350D02*
G01Y354850D01*
X214619Y366650D02*
G01X216119D01*
X215369Y365900D02*
G01Y367400D01*
X281483Y304100D02*
G01X282983D01*
X282233Y303350D02*
G01Y304850D01*
X162119Y392150D02*
G01X163619D01*
X162869Y391400D02*
G01Y392900D01*
X124483Y404600D02*
G01X125983D01*
X125233Y403850D02*
G01Y405350D01*
X307983Y254100D02*
G01X309483D01*
X308733Y253350D02*
G01Y254850D01*
X202983Y379100D02*
G01X204483D01*
X203733Y378350D02*
G01Y379850D01*
X293119Y291650D02*
G01X294619D01*
X293869Y290900D02*
G01Y292400D01*
X150483Y404600D02*
G01X151983D01*
X151233Y403850D02*
G01Y405350D01*
X319619Y241650D02*
G01X321119D01*
X320369Y240900D02*
G01Y242400D01*
X188619Y392150D02*
G01X190119D01*
X189369Y391400D02*
G01Y392900D01*
X307983Y279100D02*
G01X309483D01*
X308733Y278350D02*
G01Y279850D01*
X255483Y354100D02*
G01X256983D01*
X256233Y353350D02*
G01Y354850D01*
X267119Y341650D02*
G01X268619D01*
X267869Y340900D02*
G01Y342400D01*
X176983Y404600D02*
G01X178483D01*
X177733Y403850D02*
G01Y405350D01*
X241119Y366650D02*
G01X242619D01*
X241869Y365900D02*
G01Y367400D01*
X281483Y329100D02*
G01X282983D01*
X282233Y328350D02*
G01Y329850D01*
X319619Y266650D02*
G01X321119D01*
X320369Y265900D02*
G01Y267400D01*
X229483Y379100D02*
G01X230983D01*
X230233Y378350D02*
G01Y379850D01*
X293119Y316650D02*
G01X294619D01*
X293869Y315900D02*
G01Y317400D01*
X136119Y416650D02*
G01X137619D01*
X136869Y415900D02*
G01Y417400D01*
X214619Y392150D02*
G01X216119D01*
X215369Y391400D02*
G01Y392900D01*
X307983Y304100D02*
G01X309483D01*
X308733Y303350D02*
G01Y304850D01*
X202983Y404600D02*
G01X204483D01*
X203733Y403850D02*
G01Y405350D01*
X162119Y416650D02*
G01X163619D01*
X162869Y415900D02*
G01Y417400D01*
X124483Y429100D02*
G01X125983D01*
X125233Y428350D02*
G01Y429850D01*
X319619Y291650D02*
G01X321119D01*
X320369Y290900D02*
G01Y292400D01*
X334483Y254100D02*
G01X335983D01*
X335233Y253350D02*
G01Y254850D01*
X150483Y429100D02*
G01X151983D01*
X151233Y428350D02*
G01Y429850D01*
X267119Y366650D02*
G01X268619D01*
X267869Y365900D02*
G01Y367400D01*
X281483Y354100D02*
G01X282983D01*
X282233Y353350D02*
G01Y354850D01*
X255483Y379100D02*
G01X256983D01*
X256233Y378350D02*
G01Y379850D01*
X293119Y341650D02*
G01X294619D01*
X293869Y340900D02*
G01Y342400D01*
X346119Y241650D02*
G01X347619D01*
X346869Y240900D02*
G01Y242400D01*
X188619Y416650D02*
G01X190119D01*
X189369Y415900D02*
G01Y417400D01*
X241119Y392150D02*
G01X242619D01*
X241869Y391400D02*
G01Y392900D01*
X334483Y279100D02*
G01X335983D01*
X335233Y278350D02*
G01Y279850D01*
X307983Y329100D02*
G01X309483D01*
X308733Y328350D02*
G01Y329850D01*
X229483Y404600D02*
G01X230983D01*
X230233Y403850D02*
G01Y405350D01*
X176983Y429100D02*
G01X178483D01*
X177733Y428350D02*
G01Y429850D01*
X319619Y316650D02*
G01X321119D01*
X320369Y315900D02*
G01Y317400D01*
X346119Y266650D02*
G01X347619D01*
X346869Y265900D02*
G01Y267400D01*
X214619Y416650D02*
G01X216119D01*
X215369Y415900D02*
G01Y417400D01*
X136119Y441650D02*
G01X137619D01*
X136869Y440900D02*
G01Y442400D01*
X334483Y304100D02*
G01X335983D01*
X335233Y303350D02*
G01Y304850D01*
X202983Y429100D02*
G01X204483D01*
X203733Y428350D02*
G01Y429850D01*
X162119Y441650D02*
G01X163619D01*
X162869Y440900D02*
G01Y442400D01*
X281483Y379600D02*
G01X282983D01*
X282233Y378850D02*
G01Y380350D01*
X293119Y367150D02*
G01X294619D01*
X293869Y366400D02*
G01Y367900D01*
X346119Y291650D02*
G01X347619D01*
X346869Y290900D02*
G01Y292400D01*
X124483Y454100D02*
G01X125983D01*
X125233Y453350D02*
G01Y454850D01*
X267119Y392150D02*
G01X268619D01*
X267869Y391400D02*
G01Y392900D01*
X307983Y354100D02*
G01X309483D01*
X308733Y353350D02*
G01Y354850D01*
X359983Y254100D02*
G01X361483D01*
X360733Y253350D02*
G01Y254850D01*
X255483Y404600D02*
G01X256983D01*
X256233Y403850D02*
G01Y405350D01*
X319619Y341650D02*
G01X321119D01*
X320369Y340900D02*
G01Y342400D01*
X150483Y454100D02*
G01X151983D01*
X151233Y453350D02*
G01Y454850D01*
X241119Y416650D02*
G01X242619D01*
X241869Y415900D02*
G01Y417400D01*
X188619Y441650D02*
G01X190119D01*
X189369Y440900D02*
G01Y442400D01*
X371619Y241650D02*
G01X373119D01*
X372369Y240900D02*
G01Y242400D01*
X334483Y329100D02*
G01X335983D01*
X335233Y328350D02*
G01Y329850D01*
X229483Y429100D02*
G01X230983D01*
X230233Y428350D02*
G01Y429850D01*
X359983Y279100D02*
G01X361483D01*
X360733Y278350D02*
G01Y279850D01*
X346119Y316650D02*
G01X347619D01*
X346869Y315900D02*
G01Y317400D01*
X176983Y454100D02*
G01X178483D01*
X177733Y453350D02*
G01Y454850D01*
X371619Y266650D02*
G01X373119D01*
X372369Y265900D02*
G01Y267400D01*
X214619Y441650D02*
G01X216119D01*
X215369Y440900D02*
G01Y442400D01*
X293119Y392150D02*
G01X294619D01*
X293869Y391400D02*
G01Y392900D01*
X281483Y404600D02*
G01X282983D01*
X282233Y403850D02*
G01Y405350D01*
X307983Y379600D02*
G01X309483D01*
X308733Y378850D02*
G01Y380350D01*
X136119Y466650D02*
G01X137619D01*
X136869Y465900D02*
G01Y467400D01*
X319619Y367150D02*
G01X321119D01*
X320369Y366400D02*
G01Y367900D01*
X359983Y304100D02*
G01X361483D01*
X360733Y303350D02*
G01Y304850D01*
X202983Y454100D02*
G01X204483D01*
X203733Y453350D02*
G01Y454850D01*
X267119Y416650D02*
G01X268619D01*
X267869Y415900D02*
G01Y417400D01*
X255483Y429100D02*
G01X256983D01*
X256233Y428350D02*
G01Y429850D01*
X334483Y354100D02*
G01X335983D01*
X335233Y353350D02*
G01Y354850D01*
X371619Y291650D02*
G01X373119D01*
X372369Y290900D02*
G01Y292400D01*
X162119Y466650D02*
G01X163619D01*
X162869Y465900D02*
G01Y467400D01*
X346119Y341650D02*
G01X347619D01*
X346869Y340900D02*
G01Y342400D01*
X124483Y479100D02*
G01X125983D01*
X125233Y478350D02*
G01Y479850D01*
X241119Y441650D02*
G01X242619D01*
X241869Y440900D02*
G01Y442400D01*
X150483Y479100D02*
G01X151983D01*
X151233Y478350D02*
G01Y479850D01*
X188619Y466650D02*
G01X190119D01*
X189369Y465900D02*
G01Y467400D01*
X359983Y329100D02*
G01X361483D01*
X360733Y328350D02*
G01Y329850D01*
X229483Y454100D02*
G01X230983D01*
X230233Y453350D02*
G01Y454850D01*
X371619Y316650D02*
G01X373119D01*
X372369Y315900D02*
G01Y317400D01*
X176983Y479100D02*
G01X178483D01*
X177733Y478350D02*
G01Y479850D01*
X307983Y404600D02*
G01X309483D01*
X308733Y403850D02*
G01Y405350D01*
X293119Y416650D02*
G01X294619D01*
X293869Y415900D02*
G01Y417400D01*
X281483Y429100D02*
G01X282983D01*
X282233Y428350D02*
G01Y429850D01*
X333983Y379600D02*
G01X335483D01*
X334733Y378850D02*
G01Y380350D01*
X214619Y466650D02*
G01X216119D01*
X215369Y465900D02*
G01Y467400D01*
X267119Y441650D02*
G01X268619D01*
X267869Y440900D02*
G01Y442400D01*
X359983Y354100D02*
G01X361483D01*
X360733Y353350D02*
G01Y354850D01*
X255483Y454100D02*
G01X256983D01*
X256233Y453350D02*
G01Y454850D01*
X202983Y479100D02*
G01X204483D01*
X203733Y478350D02*
G01Y479850D01*
X371619Y341650D02*
G01X373119D01*
X372369Y340900D02*
G01Y342400D01*
X241119Y466650D02*
G01X242619D01*
X241869Y465900D02*
G01Y467400D01*
X319619Y416650D02*
G01X321119D01*
X320369Y415900D02*
G01Y417400D01*
X229483Y479100D02*
G01X230983D01*
X230233Y478350D02*
G01Y479850D01*
X307983Y429100D02*
G01X309483D01*
X308733Y428350D02*
G01Y429850D01*
X333983Y404600D02*
G01X335483D01*
X334733Y403850D02*
G01Y405350D01*
X345619Y392150D02*
G01X347119D01*
X346369Y391400D02*
G01Y392900D01*
X293119Y441650D02*
G01X294619D01*
X293869Y440900D02*
G01Y442400D01*
X281483Y454100D02*
G01X282983D01*
X282233Y453350D02*
G01Y454850D01*
X359983Y379600D02*
G01X361483D01*
X360733Y378850D02*
G01Y380350D01*
X371619Y367150D02*
G01X373119D01*
X372369Y366400D02*
G01Y367900D01*
X267119Y466650D02*
G01X268619D01*
X267869Y465900D02*
G01Y467400D01*
X255483Y479100D02*
G01X256983D01*
X256233Y478350D02*
G01Y479850D01*
X333983Y429100D02*
G01X335483D01*
X334733Y428350D02*
G01Y429850D01*
X345619Y416650D02*
G01X347119D01*
X346369Y415900D02*
G01Y417400D01*
X319619Y441650D02*
G01X321119D01*
X320369Y440900D02*
G01Y442400D01*
X307983Y454100D02*
G01X309483D01*
X308733Y453350D02*
G01Y454850D01*
X359983Y404600D02*
G01X361483D01*
X360733Y403850D02*
G01Y405350D01*
X371619Y392150D02*
G01X373119D01*
X372369Y391400D02*
G01Y392900D01*
X293119Y466650D02*
G01X294619D01*
X293869Y465900D02*
G01Y467400D01*
X281483Y479100D02*
G01X282983D01*
X282233Y478350D02*
G01Y479850D01*
X345619Y441650D02*
G01X347119D01*
X346369Y440900D02*
G01Y442400D01*
X333983Y454100D02*
G01X335483D01*
X334733Y453350D02*
G01Y454850D01*
X359983Y429100D02*
G01X361483D01*
X360733Y428350D02*
G01Y429850D01*
X371619Y416650D02*
G01X373119D01*
X372369Y415900D02*
G01Y417400D01*
X319619Y466650D02*
G01X321119D01*
X320369Y465900D02*
G01Y467400D01*
X307983Y479100D02*
G01X309483D01*
X308733Y478350D02*
G01Y479850D01*
X359983Y454100D02*
G01X361483D01*
X360733Y453350D02*
G01Y454850D01*
X371619Y441650D02*
G01X373119D01*
X372369Y440900D02*
G01Y442400D01*
X345619Y466650D02*
G01X347119D01*
X346369Y465900D02*
G01Y467400D01*
X333983Y479100D02*
G01X335483D01*
X334733Y478350D02*
G01Y479850D01*
X371619Y466650D02*
G01X373119D01*
X372369Y465900D02*
G01Y467400D01*
X359983Y479100D02*
G01X361483D01*
X360733Y478350D02*
G01Y479850D01*
G54D53*
G01X521755Y482064D02*
Y472220D01*
Y482064D02*
X525974D01*
X527380Y481595D01*
X527849Y481126D01*
X528317Y480189D01*
Y478782D01*
X527849Y477845D01*
X527380Y477376D01*
X525974Y476907D01*
X521755D01*
X538161Y479720D02*
X537692Y480657D01*
X536755Y481595D01*
X535817Y482064D01*
X533942D01*
X533005Y481595D01*
X532067Y480657D01*
X531599Y479720D01*
X531130Y478314D01*
Y475970D01*
X531599Y474564D01*
X532067Y473626D01*
X533005Y472689D01*
X533942Y472220D01*
X535817D01*
X536755Y472689D01*
X537692Y473626D01*
X538161Y474564D01*
X541442Y482064D02*
Y472220D01*
Y482064D02*
X545661D01*
X547067Y481595D01*
X547536Y481126D01*
X548005Y480189D01*
Y479251D01*
X547536Y478314D01*
X547067Y477845D01*
X545661Y477376D01*
X541442D02*
X545661D01*
X547067Y476907D01*
X547536Y476439D01*
X548005Y475501D01*
Y474095D01*
X547536Y473157D01*
X547067Y472689D01*
X545661Y472220D01*
X541442D01*
X558786Y482064D02*
Y472220D01*
Y482064D02*
X564880D01*
X558786Y477376D02*
X562536D01*
X569567Y482064D02*
X565817Y472220D01*
X569567Y482064D02*
X573317Y472220D01*
X567224Y475501D02*
X571911D01*
X575661Y482064D02*
Y472220D01*
Y482064D02*
X579880D01*
X581286Y481595D01*
X581755Y481126D01*
X582224Y480189D01*
Y479251D01*
X581755Y478314D01*
X581286Y477845D01*
X579880Y477376D01*
X575661D02*
X579880D01*
X581286Y476907D01*
X581755Y476439D01*
X582224Y475501D01*
Y474095D01*
X581755Y473157D01*
X581286Y472689D01*
X579880Y472220D01*
X575661D01*
X585505Y482064D02*
Y472220D01*
Y482064D02*
X589724D01*
X591130Y481595D01*
X591599Y481126D01*
X592067Y480189D01*
Y479251D01*
X591599Y478314D01*
X591130Y477845D01*
X589724Y477376D01*
X585505D01*
X588786D02*
X592067Y472220D01*
X595349Y482064D02*
Y472220D01*
X605661Y479720D02*
X605192Y480657D01*
X604255Y481595D01*
X603317Y482064D01*
X601442D01*
X600505Y481595D01*
X599567Y480657D01*
X599099Y479720D01*
X598630Y478314D01*
Y475970D01*
X599099Y474564D01*
X599567Y473626D01*
X600505Y472689D01*
X601442Y472220D01*
X603317D01*
X604255Y472689D01*
X605192Y473626D01*
X605661Y474564D01*
X611286Y482064D02*
X607536Y472220D01*
X611286Y482064D02*
X615036Y472220D01*
X608942Y475501D02*
X613630D01*
X619255Y482064D02*
Y472220D01*
X615974Y482064D02*
X622536D01*
X624880D02*
Y472220D01*
X630974Y482064D02*
X630036Y481595D01*
X629099Y480657D01*
X628630Y479720D01*
X628161Y478314D01*
Y475970D01*
X628630Y474564D01*
X629099Y473626D01*
X630036Y472689D01*
X630974Y472220D01*
X632849D01*
X633786Y472689D01*
X634724Y473626D01*
X635192Y474564D01*
X635661Y475970D01*
Y478314D01*
X635192Y479720D01*
X634724Y480657D01*
X633786Y481595D01*
X632849Y482064D01*
X630974D01*
X638942D02*
Y472220D01*
Y482064D02*
X645505Y472220D01*
Y482064D02*
Y472220D01*
X656755Y482064D02*
Y472220D01*
Y482064D02*
X663317Y472220D01*
Y482064D02*
Y472220D01*
X669411Y482064D02*
X668474Y481595D01*
X667536Y480657D01*
X667067Y479720D01*
X666599Y478314D01*
Y475970D01*
X667067Y474564D01*
X667536Y473626D01*
X668474Y472689D01*
X669411Y472220D01*
X671286D01*
X672224Y472689D01*
X673161Y473626D01*
X673630Y474564D01*
X674099Y475970D01*
Y478314D01*
X673630Y479720D01*
X673161Y480657D01*
X672224Y481595D01*
X671286Y482064D01*
X669411D01*
X679255D02*
Y472220D01*
X675974Y482064D02*
X682536D01*
X684880D02*
Y472220D01*
Y482064D02*
X690974D01*
X684880Y477376D02*
X688630D01*
X684880Y472220D02*
X690974D01*
X699880Y480657D02*
X698942Y481595D01*
X697536Y482064D01*
X695661D01*
X694255Y481595D01*
X693317Y480657D01*
Y479720D01*
X693786Y478782D01*
X694255Y478314D01*
X695192Y477845D01*
X698005Y476907D01*
X698942Y476439D01*
X699411Y475970D01*
X699880Y475032D01*
Y473626D01*
X698942Y472689D01*
X697536Y472220D01*
X695661D01*
X694255Y472689D01*
X693317Y473626D01*
X703630Y478782D02*
X703161Y478314D01*
X703630Y477845D01*
X704099Y478314D01*
X703630Y478782D01*
Y473157D02*
X703161Y472689D01*
X703630Y472220D01*
X704099Y472689D01*
X703630Y473157D01*
X522692Y460189D02*
X523630Y460657D01*
X525036Y462064D01*
Y452220D01*
X531599Y453157D02*
X531130Y452689D01*
X531599Y452220D01*
X532067Y452689D01*
X531599Y453157D01*
X550817Y462064D02*
Y452220D01*
Y462064D02*
X555036D01*
X556442Y461595D01*
X556911Y461126D01*
X557380Y460189D01*
Y459251D01*
X556911Y458314D01*
X556442Y457845D01*
X555036Y457376D01*
X550817D02*
X555036D01*
X556442Y456907D01*
X556911Y456439D01*
X557380Y455501D01*
Y454095D01*
X556911Y453157D01*
X556442Y452689D01*
X555036Y452220D01*
X550817D01*
X563005Y462064D02*
X562067Y461595D01*
X561130Y460657D01*
X560661Y459720D01*
X560192Y458314D01*
Y455970D01*
X560661Y454564D01*
X561130Y453626D01*
X562067Y452689D01*
X563005Y452220D01*
X564880D01*
X565817Y452689D01*
X566755Y453626D01*
X567224Y454564D01*
X567692Y455970D01*
Y458314D01*
X567224Y459720D01*
X566755Y460657D01*
X565817Y461595D01*
X564880Y462064D01*
X563005D01*
X573317D02*
X569567Y452220D01*
X573317Y462064D02*
X577067Y452220D01*
X570974Y455501D02*
X575661D01*
X579411Y462064D02*
Y452220D01*
Y462064D02*
X583630D01*
X585036Y461595D01*
X585505Y461126D01*
X585974Y460189D01*
Y459251D01*
X585505Y458314D01*
X585036Y457845D01*
X583630Y457376D01*
X579411D01*
X582692D02*
X585974Y452220D01*
X589255Y462064D02*
Y452220D01*
Y462064D02*
X592536D01*
X593942Y461595D01*
X594880Y460657D01*
X595349Y459720D01*
X595817Y458314D01*
Y455970D01*
X595349Y454564D01*
X594880Y453626D01*
X593942Y452689D01*
X592536Y452220D01*
X589255D01*
X606599Y462064D02*
Y452220D01*
Y462064D02*
X610349Y452220D01*
X614099Y462064D02*
X610349Y452220D01*
X614099Y462064D02*
Y452220D01*
X620192Y462064D02*
X616442Y452220D01*
X620192Y462064D02*
X623942Y452220D01*
X617849Y455501D02*
X622536D01*
X628161Y462064D02*
Y452220D01*
X624880Y462064D02*
X631442D01*
X633786D02*
Y452220D01*
Y462064D02*
X639880D01*
X633786Y457376D02*
X637536D01*
X633786Y452220D02*
X639880D01*
X642692Y462064D02*
Y452220D01*
Y462064D02*
X646911D01*
X648317Y461595D01*
X648786Y461126D01*
X649255Y460189D01*
Y459251D01*
X648786Y458314D01*
X648317Y457845D01*
X646911Y457376D01*
X642692D01*
X645974D02*
X649255Y452220D01*
X652536Y462064D02*
Y452220D01*
X658630Y462064D02*
X654880Y452220D01*
X658630Y462064D02*
X662380Y452220D01*
X656286Y455501D02*
X660974D01*
X664724Y462064D02*
Y452220D01*
Y452220D02*
X670349D01*
X680192Y462064D02*
Y452220D01*
X690036Y460657D02*
X689099Y461595D01*
X687692Y462064D01*
X685817D01*
X684411Y461595D01*
X683474Y460657D01*
Y459720D01*
X683942Y458782D01*
X684411Y458314D01*
X685349Y457845D01*
X688161Y456907D01*
X689099Y456439D01*
X689567Y455970D01*
X690036Y455032D01*
Y453626D01*
X689099Y452689D01*
X687692Y452220D01*
X685817D01*
X684411Y452689D01*
X683474Y453626D01*
X700817Y462064D02*
Y452220D01*
Y462064D02*
X706911D01*
X700817Y457376D02*
X704567D01*
X709255Y462064D02*
Y452220D01*
Y462064D02*
X713474D01*
X714880Y461595D01*
X715349Y461126D01*
X715817Y460189D01*
Y459251D01*
X715349Y458314D01*
X714880Y457845D01*
X713474Y457376D01*
X709255D01*
X712536D02*
X715817Y452220D01*
X723317Y462064D02*
X718630Y455501D01*
X725661D01*
X723317Y462064D02*
Y452220D01*
X737849Y462064D02*
Y452220D01*
X734567Y462064D02*
X741130D01*
X750036Y459720D02*
X749567Y460657D01*
X748630Y461595D01*
X747692Y462064D01*
X745817D01*
X744880Y461595D01*
X743942Y460657D01*
X743474Y459720D01*
X743005Y458314D01*
Y455970D01*
X743474Y454564D01*
X743942Y453626D01*
X744880Y452689D01*
X745817Y452220D01*
X747692D01*
X748630Y452689D01*
X749567Y453626D01*
X750036Y454564D01*
Y455970D01*
X747692D02*
X750036D01*
X754255Y460189D02*
X755192Y460657D01*
X756599Y462064D01*
Y452220D01*
X767849Y462064D02*
X763161D01*
X762692Y457845D01*
X763161Y458314D01*
X764567Y458782D01*
X765974D01*
X767380Y458314D01*
X768317Y457376D01*
X768786Y455970D01*
Y455032D01*
X768317Y453626D01*
X767380Y452689D01*
X765974Y452220D01*
X764567D01*
X763161Y452689D01*
X762692Y453157D01*
X762224Y454095D01*
X774411Y462064D02*
X773005Y461595D01*
X772067Y460189D01*
X771599Y457845D01*
Y456439D01*
X772067Y454095D01*
X773005Y452689D01*
X774411Y452220D01*
X775349D01*
X776755Y452689D01*
X777692Y454095D01*
X778161Y456439D01*
Y457845D01*
X777692Y460189D01*
X776755Y461595D01*
X775349Y462064D01*
X774411D01*
X521755Y439720D02*
Y440189D01*
X522224Y441126D01*
X522692Y441595D01*
X523630Y442064D01*
X525505D01*
X526442Y441595D01*
X526911Y441126D01*
X527380Y440189D01*
Y439251D01*
X526911Y438314D01*
X525974Y436907D01*
X521286Y432220D01*
X527849D01*
X531599Y433157D02*
X531130Y432689D01*
X531599Y432220D01*
X532067Y432689D01*
X531599Y433157D01*
X550817Y442064D02*
Y432220D01*
Y442064D02*
X556911D01*
X550817Y437376D02*
X554567D01*
X550817Y432220D02*
X556911D01*
X559724Y442064D02*
Y432220D01*
Y442064D02*
X566286Y432220D01*
Y442064D02*
Y432220D01*
X570036Y442064D02*
Y432220D01*
Y442064D02*
X573317D01*
X574724Y441595D01*
X575661Y440657D01*
X576130Y439720D01*
X576599Y438314D01*
Y435970D01*
X576130Y434564D01*
X575661Y433626D01*
X574724Y432689D01*
X573317Y432220D01*
X570036D01*
X587380Y442064D02*
Y432220D01*
X593005Y442064D02*
Y432220D01*
X589724Y442064D02*
X596286D01*
X598630D02*
Y432220D01*
Y442064D02*
X604724D01*
X598630Y437376D02*
X602380D01*
X598630Y432220D02*
X604724D01*
X607536Y442064D02*
Y432220D01*
Y442064D02*
X611286Y432220D01*
X615036Y442064D02*
X611286Y432220D01*
X615036Y442064D02*
Y432220D01*
X628161Y442064D02*
Y432220D01*
X624880Y442064D02*
X631442D01*
X633786D02*
Y432220D01*
X640349Y442064D02*
Y432220D01*
X633786Y437376D02*
X640349D01*
X644099Y442064D02*
Y432220D01*
X654411Y439720D02*
X653942Y440657D01*
X653005Y441595D01*
X652067Y442064D01*
X650192D01*
X649255Y441595D01*
X648317Y440657D01*
X647849Y439720D01*
X647380Y438314D01*
Y435970D01*
X647849Y434564D01*
X648317Y433626D01*
X649255Y432689D01*
X650192Y432220D01*
X652067D01*
X653005Y432689D01*
X653942Y433626D01*
X654411Y434564D01*
X657692Y442064D02*
Y432220D01*
X664255Y442064D02*
X657692Y435501D01*
X660036Y437845D02*
X664255Y432220D01*
X667536Y442064D02*
Y432220D01*
Y442064D02*
X674099Y432220D01*
Y442064D02*
Y432220D01*
X677849Y442064D02*
Y432220D01*
Y442064D02*
X683942D01*
X677849Y437376D02*
X681599D01*
X677849Y432220D02*
X683942D01*
X692849Y440657D02*
X691911Y441595D01*
X690505Y442064D01*
X688630D01*
X687224Y441595D01*
X686286Y440657D01*
Y439720D01*
X686755Y438782D01*
X687224Y438314D01*
X688161Y437845D01*
X690974Y436907D01*
X691911Y436439D01*
X692380Y435970D01*
X692849Y435032D01*
Y433626D01*
X691911Y432689D01*
X690505Y432220D01*
X688630D01*
X687224Y432689D01*
X686286Y433626D01*
X702224Y440657D02*
X701286Y441595D01*
X699880Y442064D01*
X698005D01*
X696599Y441595D01*
X695661Y440657D01*
Y439720D01*
X696130Y438782D01*
X696599Y438314D01*
X697536Y437845D01*
X700349Y436907D01*
X701286Y436439D01*
X701755Y435970D01*
X702224Y435032D01*
Y433626D01*
X701286Y432689D01*
X699880Y432220D01*
X698005D01*
X696599Y432689D01*
X695661Y433626D01*
X719099Y440657D02*
X718161Y441595D01*
X716755Y442064D01*
X714880D01*
X713474Y441595D01*
X712536Y440657D01*
Y439720D01*
X713005Y438782D01*
X713474Y438314D01*
X714411Y437845D01*
X717224Y436907D01*
X718161Y436439D01*
X718630Y435970D01*
X719099Y435032D01*
Y433626D01*
X718161Y432689D01*
X716755Y432220D01*
X714880D01*
X713474Y432689D01*
X712536Y433626D01*
X722380Y442064D02*
Y432220D01*
X728942Y442064D02*
Y432220D01*
X722380Y437376D02*
X728942D01*
X735036Y442064D02*
X734099Y441595D01*
X733161Y440657D01*
X732692Y439720D01*
X732224Y438314D01*
Y435970D01*
X732692Y434564D01*
X733161Y433626D01*
X734099Y432689D01*
X735036Y432220D01*
X736911D01*
X737849Y432689D01*
X738786Y433626D01*
X739255Y434564D01*
X739724Y435970D01*
Y438314D01*
X739255Y439720D01*
X738786Y440657D01*
X737849Y441595D01*
X736911Y442064D01*
X735036D01*
X743005D02*
Y435032D01*
X743474Y433626D01*
X744411Y432689D01*
X745817Y432220D01*
X746755D01*
X748161Y432689D01*
X749099Y433626D01*
X749567Y435032D01*
Y442064D01*
X753317D02*
Y432220D01*
Y432220D02*
X758942D01*
X761286Y442064D02*
Y432220D01*
Y442064D02*
X764567D01*
X765974Y441595D01*
X766911Y440657D01*
X767380Y439720D01*
X767849Y438314D01*
Y435970D01*
X767380Y434564D01*
X766911Y433626D01*
X765974Y432689D01*
X764567Y432220D01*
X761286D01*
X778630Y442064D02*
Y432220D01*
Y442064D02*
X782849D01*
X784255Y441595D01*
X784724Y441126D01*
X785192Y440189D01*
Y439251D01*
X784724Y438314D01*
X784255Y437845D01*
X782849Y437376D01*
X778630D02*
X782849D01*
X784255Y436907D01*
X784724Y436439D01*
X785192Y435501D01*
Y434095D01*
X784724Y433157D01*
X784255Y432689D01*
X782849Y432220D01*
X778630D01*
X788474Y442064D02*
Y432220D01*
Y442064D02*
X794567D01*
X788474Y437376D02*
X792224D01*
X788474Y432220D02*
X794567D01*
X807224Y442064D02*
X805817Y441595D01*
X804880Y440189D01*
X804411Y437845D01*
Y436439D01*
X804880Y434095D01*
X805817Y432689D01*
X807224Y432220D01*
X808161D01*
X809567Y432689D01*
X810505Y434095D01*
X810974Y436439D01*
Y437845D01*
X810505Y440189D01*
X809567Y441595D01*
X808161Y442064D01*
X807224D01*
X814724Y433157D02*
X814255Y432689D01*
X814724Y432220D01*
X815192Y432689D01*
X814724Y433157D01*
X821286Y442064D02*
X819880Y441595D01*
X818942Y440189D01*
X818474Y437845D01*
Y436439D01*
X818942Y434095D01*
X819880Y432689D01*
X821286Y432220D01*
X822224D01*
X823630Y432689D01*
X824567Y434095D01*
X825036Y436439D01*
Y437845D01*
X824567Y440189D01*
X823630Y441595D01*
X822224Y442064D01*
X821286D01*
X833942Y440657D02*
X833474Y441595D01*
X832067Y442064D01*
X831130D01*
X829724Y441595D01*
X828786Y440189D01*
X828317Y437845D01*
Y435501D01*
X828786Y433626D01*
X829724Y432689D01*
X831130Y432220D01*
X831599D01*
X833005Y432689D01*
X833942Y433626D01*
X834411Y435032D01*
Y435501D01*
X833942Y436907D01*
X833005Y437845D01*
X831599Y438314D01*
X831130D01*
X829724Y437845D01*
X828786Y436907D01*
X828317Y435501D01*
X837692Y439720D02*
Y440189D01*
X838161Y441126D01*
X838630Y441595D01*
X839567Y442064D01*
X841442D01*
X842380Y441595D01*
X842849Y441126D01*
X843317Y440189D01*
Y439251D01*
X842849Y438314D01*
X841911Y436907D01*
X837224Y432220D01*
X843786D01*
X847067Y442064D02*
Y438782D01*
X850817Y442064D02*
Y438782D01*
X522224Y422064D02*
X527380D01*
X524567Y418314D01*
X525974D01*
X526911Y417845D01*
X527380Y417376D01*
X527849Y415970D01*
Y415032D01*
X527380Y413626D01*
X526442Y412689D01*
X525036Y412220D01*
X523630D01*
X522224Y412689D01*
X521755Y413157D01*
X521286Y414095D01*
X531599Y413157D02*
X531130Y412689D01*
X531599Y412220D01*
X532067Y412689D01*
X531599Y413157D01*
X551755Y420189D02*
X552692Y420657D01*
X554099Y422064D01*
Y412220D01*
X570036Y422064D02*
X569099Y421595D01*
X568161Y420657D01*
X567692Y419720D01*
X567224Y418314D01*
Y415970D01*
X567692Y414564D01*
X568161Y413626D01*
X569099Y412689D01*
X570036Y412220D01*
X571911D01*
X572849Y412689D01*
X573786Y413626D01*
X574255Y414564D01*
X574724Y415970D01*
Y418314D01*
X574255Y419720D01*
X573786Y420657D01*
X572849Y421595D01*
X571911Y422064D01*
X570036D01*
X584099D02*
X577536Y412220D01*
Y422064D02*
X584099D01*
X577536Y412220D02*
X584099D01*
X601442Y419720D02*
X600974Y420657D01*
X600036Y421595D01*
X599099Y422064D01*
X597224D01*
X596286Y421595D01*
X595349Y420657D01*
X594880Y419720D01*
X594411Y418314D01*
Y415970D01*
X594880Y414564D01*
X595349Y413626D01*
X596286Y412689D01*
X597224Y412220D01*
X599099D01*
X600036Y412689D01*
X600974Y413626D01*
X601442Y414564D01*
X607067Y422064D02*
X606130Y421595D01*
X605192Y420657D01*
X604724Y419720D01*
X604255Y418314D01*
Y415970D01*
X604724Y414564D01*
X605192Y413626D01*
X606130Y412689D01*
X607067Y412220D01*
X608942D01*
X609880Y412689D01*
X610817Y413626D01*
X611286Y414564D01*
X611755Y415970D01*
Y418314D01*
X611286Y419720D01*
X610817Y420657D01*
X609880Y421595D01*
X608942Y422064D01*
X607067D01*
X615036D02*
Y412220D01*
Y422064D02*
X619255D01*
X620661Y421595D01*
X621130Y421126D01*
X621599Y420189D01*
Y418782D01*
X621130Y417845D01*
X620661Y417376D01*
X619255Y416907D01*
X615036D01*
X624880Y422064D02*
Y412220D01*
Y422064D02*
X629099D01*
X630505Y421595D01*
X630974Y421126D01*
X631442Y420189D01*
Y418782D01*
X630974Y417845D01*
X630505Y417376D01*
X629099Y416907D01*
X624880D01*
X634724Y422064D02*
Y412220D01*
Y422064D02*
X640817D01*
X634724Y417376D02*
X638474D01*
X634724Y412220D02*
X640817D01*
X643630Y422064D02*
Y412220D01*
Y422064D02*
X647849D01*
X649255Y421595D01*
X649724Y421126D01*
X650192Y420189D01*
Y419251D01*
X649724Y418314D01*
X649255Y417845D01*
X647849Y417376D01*
X643630D01*
X646911D02*
X650192Y412220D01*
X660974Y422064D02*
Y412220D01*
Y422064D02*
X665192D01*
X666599Y421595D01*
X667067Y421126D01*
X667536Y420189D01*
Y418782D01*
X667067Y417845D01*
X666599Y417376D01*
X665192Y416907D01*
X660974D01*
X670817Y422064D02*
Y412220D01*
Y412220D02*
X676442D01*
X681130Y422064D02*
X677380Y412220D01*
X681130Y422064D02*
X684880Y412220D01*
X678786Y415501D02*
X683474D01*
X689099Y422064D02*
Y412220D01*
X685817Y422064D02*
X692380D01*
X694724D02*
Y412220D01*
X698474Y422064D02*
Y412220D01*
Y422064D02*
X705036Y412220D01*
Y422064D02*
Y412220D01*
X715349Y419720D02*
X714880Y420657D01*
X713942Y421595D01*
X713005Y422064D01*
X711130D01*
X710192Y421595D01*
X709255Y420657D01*
X708786Y419720D01*
X708317Y418314D01*
Y415970D01*
X708786Y414564D01*
X709255Y413626D01*
X710192Y412689D01*
X711130Y412220D01*
X713005D01*
X713942Y412689D01*
X714880Y413626D01*
X715349Y414564D01*
Y415970D01*
X713005D02*
X715349D01*
X525974Y402064D02*
X521286Y395501D01*
X528317D01*
X525974Y402064D02*
Y392220D01*
X531599Y393157D02*
X531130Y392689D01*
X531599Y392220D01*
X532067Y392689D01*
X531599Y393157D01*
X557380Y399720D02*
X556911Y400657D01*
X555974Y401595D01*
X555036Y402064D01*
X553161D01*
X552224Y401595D01*
X551286Y400657D01*
X550817Y399720D01*
X550349Y398314D01*
Y395970D01*
X550817Y394564D01*
X551286Y393626D01*
X552224Y392689D01*
X553161Y392220D01*
X555036D01*
X555974Y392689D01*
X556911Y393626D01*
X557380Y394564D01*
Y395970D01*
X555036D02*
X557380D01*
X560661Y402064D02*
Y392220D01*
Y392220D02*
X566286D01*
X570974Y402064D02*
X570036Y401595D01*
X569099Y400657D01*
X568630Y399720D01*
X568161Y398314D01*
Y395970D01*
X568630Y394564D01*
X569099Y393626D01*
X570036Y392689D01*
X570974Y392220D01*
X572849D01*
X573786Y392689D01*
X574724Y393626D01*
X575192Y394564D01*
X575661Y395970D01*
Y398314D01*
X575192Y399720D01*
X574724Y400657D01*
X573786Y401595D01*
X572849Y402064D01*
X570974D01*
X585036Y400657D02*
X584099Y401595D01*
X582692Y402064D01*
X580817D01*
X579411Y401595D01*
X578474Y400657D01*
Y399720D01*
X578942Y398782D01*
X579411Y398314D01*
X580349Y397845D01*
X583161Y396907D01*
X584099Y396439D01*
X584567Y395970D01*
X585036Y395032D01*
Y393626D01*
X584099Y392689D01*
X582692Y392220D01*
X580817D01*
X579411Y392689D01*
X578474Y393626D01*
X594411Y400657D02*
X593474Y401595D01*
X592067Y402064D01*
X590192D01*
X588786Y401595D01*
X587849Y400657D01*
Y399720D01*
X588317Y398782D01*
X588786Y398314D01*
X589724Y397845D01*
X592536Y396907D01*
X593474Y396439D01*
X593942Y395970D01*
X594411Y395032D01*
Y393626D01*
X593474Y392689D01*
X592067Y392220D01*
X590192D01*
X588786Y392689D01*
X587849Y393626D01*
X605192Y402064D02*
Y392220D01*
Y402064D02*
X609411D01*
X610817Y401595D01*
X611286Y401126D01*
X611755Y400189D01*
Y399251D01*
X611286Y398314D01*
X610817Y397845D01*
X609411Y397376D01*
X605192D02*
X609411D01*
X610817Y396907D01*
X611286Y396439D01*
X611755Y395501D01*
Y394095D01*
X611286Y393157D01*
X610817Y392689D01*
X609411Y392220D01*
X605192D01*
X615036Y402064D02*
Y392220D01*
Y392220D02*
X620661D01*
X623005Y402064D02*
Y395032D01*
X623474Y393626D01*
X624411Y392689D01*
X625817Y392220D01*
X626755D01*
X628161Y392689D01*
X629099Y393626D01*
X629567Y395032D01*
Y402064D01*
X633317D02*
Y392220D01*
Y402064D02*
X639411D01*
X633317Y397376D02*
X637067D01*
X633317Y392220D02*
X639411D01*
X649724Y402064D02*
Y392220D01*
Y392220D02*
X655349D01*
X657692Y402064D02*
Y392220D01*
Y402064D02*
X661911D01*
X663317Y401595D01*
X663786Y401126D01*
X664255Y400189D01*
Y398782D01*
X663786Y397845D01*
X663317Y397376D01*
X661911Y396907D01*
X657692D01*
X667536Y402064D02*
Y392220D01*
X684880Y400657D02*
X683942Y401595D01*
X682536Y402064D01*
X680661D01*
X679255Y401595D01*
X678317Y400657D01*
Y399720D01*
X678786Y398782D01*
X679255Y398314D01*
X680192Y397845D01*
X683005Y396907D01*
X683942Y396439D01*
X684411Y395970D01*
X684880Y395032D01*
Y393626D01*
X683942Y392689D01*
X682536Y392220D01*
X680661D01*
X679255Y392689D01*
X678317Y393626D01*
X690505Y402064D02*
X689567Y401595D01*
X688630Y400657D01*
X688161Y399720D01*
X687692Y398314D01*
Y395970D01*
X688161Y394564D01*
X688630Y393626D01*
X689567Y392689D01*
X690505Y392220D01*
X692380D01*
X693317Y392689D01*
X694255Y393626D01*
X694724Y394564D01*
X695192Y395970D01*
Y398314D01*
X694724Y399720D01*
X694255Y400657D01*
X693317Y401595D01*
X692380Y402064D01*
X690505D01*
X698474D02*
Y392220D01*
Y392220D02*
X704099D01*
X706442Y402064D02*
Y392220D01*
Y402064D02*
X709724D01*
X711130Y401595D01*
X712067Y400657D01*
X712536Y399720D01*
X713005Y398314D01*
Y395970D01*
X712536Y394564D01*
X712067Y393626D01*
X711130Y392689D01*
X709724Y392220D01*
X706442D01*
X716286Y402064D02*
Y392220D01*
Y402064D02*
X722380D01*
X716286Y397376D02*
X720036D01*
X716286Y392220D02*
X722380D01*
X725192Y402064D02*
Y392220D01*
Y402064D02*
X729411D01*
X730817Y401595D01*
X731286Y401126D01*
X731755Y400189D01*
Y399251D01*
X731286Y398314D01*
X730817Y397845D01*
X729411Y397376D01*
X725192D01*
X728474D02*
X731755Y392220D01*
X735036Y402064D02*
Y392220D01*
Y402064D02*
X738786Y392220D01*
X742536Y402064D02*
X738786Y392220D01*
X742536Y402064D02*
Y392220D01*
X748630Y402064D02*
X744880Y392220D01*
X748630Y402064D02*
X752380Y392220D01*
X746286Y395501D02*
X750974D01*
X760817Y400657D02*
X759880Y401595D01*
X758474Y402064D01*
X756599D01*
X755192Y401595D01*
X754255Y400657D01*
Y399720D01*
X754724Y398782D01*
X755192Y398314D01*
X756130Y397845D01*
X758942Y396907D01*
X759880Y396439D01*
X760349Y395970D01*
X760817Y395032D01*
Y393626D01*
X759880Y392689D01*
X758474Y392220D01*
X756599D01*
X755192Y392689D01*
X754255Y393626D01*
X764099Y402064D02*
Y392220D01*
X770661Y402064D02*
X764099Y395501D01*
X766442Y397845D02*
X770661Y392220D01*
X783786Y402064D02*
X782849Y401595D01*
X781911Y400657D01*
X781442Y399720D01*
X780974Y398314D01*
Y395970D01*
X781442Y394564D01*
X781911Y393626D01*
X782849Y392689D01*
X783786Y392220D01*
X785661D01*
X786599Y392689D01*
X787536Y393626D01*
X788005Y394564D01*
X788474Y395970D01*
Y398314D01*
X788005Y399720D01*
X787536Y400657D01*
X786599Y401595D01*
X785661Y402064D01*
X783786D01*
X790349D02*
X794099Y392220D01*
X797849Y402064D02*
X794099Y392220D01*
X800192Y402064D02*
Y392220D01*
Y402064D02*
X806286D01*
X800192Y397376D02*
X803942D01*
X800192Y392220D02*
X806286D01*
X809099Y402064D02*
Y392220D01*
Y402064D02*
X813317D01*
X814724Y401595D01*
X815192Y401126D01*
X815661Y400189D01*
Y399251D01*
X815192Y398314D01*
X814724Y397845D01*
X813317Y397376D01*
X809099D01*
X812380D02*
X815661Y392220D01*
X826442Y402064D02*
Y392220D01*
Y402064D02*
X830661D01*
X832067Y401595D01*
X832536Y401126D01*
X833005Y400189D01*
Y399251D01*
X832536Y398314D01*
X832067Y397845D01*
X830661Y397376D01*
X826442D02*
X830661D01*
X832067Y396907D01*
X832536Y396439D01*
X833005Y395501D01*
Y394095D01*
X832536Y393157D01*
X832067Y392689D01*
X830661Y392220D01*
X826442D01*
X838630Y402064D02*
X834880Y392220D01*
X838630Y402064D02*
X842380Y392220D01*
X836286Y395501D02*
X840974D01*
X844724Y402064D02*
Y392220D01*
Y402064D02*
X848942D01*
X850349Y401595D01*
X850817Y401126D01*
X851286Y400189D01*
Y399251D01*
X850817Y398314D01*
X850349Y397845D01*
X848942Y397376D01*
X844724D01*
X848005D02*
X851286Y392220D01*
X854567Y402064D02*
Y392220D01*
Y402064D02*
X860661D01*
X854567Y397376D02*
X858317D01*
X854567Y392220D02*
X860661D01*
X877536Y399720D02*
X877067Y400657D01*
X876130Y401595D01*
X875192Y402064D01*
X873317D01*
X872380Y401595D01*
X871442Y400657D01*
X870974Y399720D01*
X870505Y398314D01*
Y395970D01*
X870974Y394564D01*
X871442Y393626D01*
X872380Y392689D01*
X873317Y392220D01*
X875192D01*
X876130Y392689D01*
X877067Y393626D01*
X877536Y394564D01*
X883161Y402064D02*
X882224Y401595D01*
X881286Y400657D01*
X880817Y399720D01*
X880349Y398314D01*
Y395970D01*
X880817Y394564D01*
X881286Y393626D01*
X882224Y392689D01*
X883161Y392220D01*
X885036D01*
X885974Y392689D01*
X886911Y393626D01*
X887380Y394564D01*
X887849Y395970D01*
Y398314D01*
X887380Y399720D01*
X886911Y400657D01*
X885974Y401595D01*
X885036Y402064D01*
X883161D01*
X891130D02*
Y392220D01*
Y402064D02*
X895349D01*
X896755Y401595D01*
X897224Y401126D01*
X897692Y400189D01*
Y398782D01*
X897224Y397845D01*
X896755Y397376D01*
X895349Y396907D01*
X891130D01*
X900974Y402064D02*
Y392220D01*
Y402064D02*
X905192D01*
X906599Y401595D01*
X907067Y401126D01*
X907536Y400189D01*
Y398782D01*
X907067Y397845D01*
X906599Y397376D01*
X905192Y396907D01*
X900974D01*
X910817Y402064D02*
Y392220D01*
Y402064D02*
X916911D01*
X910817Y397376D02*
X914567D01*
X910817Y392220D02*
X916911D01*
X919724Y402064D02*
Y392220D01*
Y402064D02*
X923942D01*
X925349Y401595D01*
X925817Y401126D01*
X926286Y400189D01*
Y399251D01*
X925817Y398314D01*
X925349Y397845D01*
X923942Y397376D01*
X919724D01*
X923005D02*
X926286Y392220D01*
X526911Y382064D02*
X522224D01*
X521755Y377845D01*
X522224Y378314D01*
X523630Y378782D01*
X525036D01*
X526442Y378314D01*
X527380Y377376D01*
X527849Y375970D01*
Y375032D01*
X527380Y373626D01*
X526442Y372689D01*
X525036Y372220D01*
X523630D01*
X522224Y372689D01*
X521755Y373157D01*
X521286Y374095D01*
X531599Y373157D02*
X531130Y372689D01*
X531599Y372220D01*
X532067Y372689D01*
X531599Y373157D01*
X550817Y382064D02*
Y372220D01*
X557380Y382064D02*
Y372220D01*
X550817Y377376D02*
X557380D01*
X563474Y382064D02*
X562536Y381595D01*
X561599Y380657D01*
X561130Y379720D01*
X560661Y378314D01*
Y375970D01*
X561130Y374564D01*
X561599Y373626D01*
X562536Y372689D01*
X563474Y372220D01*
X565349D01*
X566286Y372689D01*
X567224Y373626D01*
X567692Y374564D01*
X568161Y375970D01*
Y378314D01*
X567692Y379720D01*
X567224Y380657D01*
X566286Y381595D01*
X565349Y382064D01*
X563474D01*
X573317D02*
Y372220D01*
X570036Y382064D02*
X576599D01*
X588786D02*
X585036Y372220D01*
X588786Y382064D02*
X592536Y372220D01*
X586442Y375501D02*
X591130D01*
X594880Y382064D02*
Y372220D01*
X598630Y382064D02*
Y372220D01*
Y382064D02*
X602849D01*
X604255Y381595D01*
X604724Y381126D01*
X605192Y380189D01*
Y379251D01*
X604724Y378314D01*
X604255Y377845D01*
X602849Y377376D01*
X598630D01*
X601911D02*
X605192Y372220D01*
X615974Y382064D02*
Y372220D01*
Y372220D02*
X621599D01*
X623942Y382064D02*
Y372220D01*
Y382064D02*
X630036D01*
X623942Y377376D02*
X627692D01*
X623942Y372220D02*
X630036D01*
X631442Y382064D02*
X635192Y372220D01*
X638942Y382064D02*
X635192Y372220D01*
X641286Y382064D02*
Y372220D01*
Y382064D02*
X647380D01*
X641286Y377376D02*
X645036D01*
X641286Y372220D02*
X647380D01*
X650192Y382064D02*
Y372220D01*
Y372220D02*
X655817D01*
X658161Y382064D02*
Y372220D01*
Y382064D02*
X664255D01*
X658161Y377376D02*
X661911D01*
X658161Y372220D02*
X664255D01*
X667067Y382064D02*
Y372220D01*
Y382064D02*
X670349D01*
X671755Y381595D01*
X672692Y380657D01*
X673161Y379720D01*
X673630Y378314D01*
Y375970D01*
X673161Y374564D01*
X672692Y373626D01*
X671755Y372689D01*
X670349Y372220D01*
X667067D01*
X690505Y380657D02*
X689567Y381595D01*
X688161Y382064D01*
X686286D01*
X684880Y381595D01*
X683942Y380657D01*
Y379720D01*
X684411Y378782D01*
X684880Y378314D01*
X685817Y377845D01*
X688630Y376907D01*
X689567Y376439D01*
X690036Y375970D01*
X690505Y375032D01*
Y373626D01*
X689567Y372689D01*
X688161Y372220D01*
X686286D01*
X684880Y372689D01*
X683942Y373626D01*
X696130Y382064D02*
X695192Y381595D01*
X694255Y380657D01*
X693786Y379720D01*
X693317Y378314D01*
Y375970D01*
X693786Y374564D01*
X694255Y373626D01*
X695192Y372689D01*
X696130Y372220D01*
X698005D01*
X698942Y372689D01*
X699880Y373626D01*
X700349Y374564D01*
X700817Y375970D01*
Y378314D01*
X700349Y379720D01*
X699880Y380657D01*
X698942Y381595D01*
X698005Y382064D01*
X696130D01*
X704099D02*
Y372220D01*
Y372220D02*
X709724D01*
X712067Y382064D02*
Y372220D01*
Y382064D02*
X715349D01*
X716755Y381595D01*
X717692Y380657D01*
X718161Y379720D01*
X718630Y378314D01*
Y375970D01*
X718161Y374564D01*
X717692Y373626D01*
X716755Y372689D01*
X715349Y372220D01*
X712067D01*
X721911Y382064D02*
Y372220D01*
Y382064D02*
X728005D01*
X721911Y377376D02*
X725661D01*
X721911Y372220D02*
X728005D01*
X730817Y382064D02*
Y372220D01*
Y382064D02*
X735036D01*
X736442Y381595D01*
X736911Y381126D01*
X737380Y380189D01*
Y379251D01*
X736911Y378314D01*
X736442Y377845D01*
X735036Y377376D01*
X730817D01*
X734099D02*
X737380Y372220D01*
X748161Y382064D02*
Y372220D01*
Y382064D02*
X752380D01*
X753786Y381595D01*
X754255Y381126D01*
X754724Y380189D01*
Y378782D01*
X754255Y377845D01*
X753786Y377376D01*
X752380Y376907D01*
X748161D01*
X758005Y382064D02*
Y372220D01*
Y372220D02*
X763630D01*
X768317Y382064D02*
X764567Y372220D01*
X768317Y382064D02*
X772067Y372220D01*
X765974Y375501D02*
X770661D01*
X776286Y382064D02*
Y372220D01*
X773005Y382064D02*
X779567D01*
X781911D02*
Y372220D01*
X785661Y382064D02*
Y372220D01*
Y382064D02*
X792224Y372220D01*
Y382064D02*
Y372220D01*
X802536Y379720D02*
X802067Y380657D01*
X801130Y381595D01*
X800192Y382064D01*
X798317D01*
X797380Y381595D01*
X796442Y380657D01*
X795974Y379720D01*
X795505Y378314D01*
Y375970D01*
X795974Y374564D01*
X796442Y373626D01*
X797380Y372689D01*
X798317Y372220D01*
X800192D01*
X801130Y372689D01*
X802067Y373626D01*
X802536Y374564D01*
Y375970D01*
X800192D02*
X802536D01*
X806755Y372689D02*
X806286Y372220D01*
X805817Y372689D01*
X806286Y373157D01*
X806755Y372689D01*
Y371751D01*
X806286Y370814D01*
X805817Y370345D01*
X820349Y382064D02*
X818942Y381595D01*
X818005Y380189D01*
X817536Y377845D01*
Y376439D01*
X818005Y374095D01*
X818942Y372689D01*
X820349Y372220D01*
X821286D01*
X822692Y372689D01*
X823630Y374095D01*
X824099Y376439D01*
Y377845D01*
X823630Y380189D01*
X822692Y381595D01*
X821286Y382064D01*
X820349D01*
X827849Y373157D02*
X827380Y372689D01*
X827849Y372220D01*
X828317Y372689D01*
X827849Y373157D01*
X834411Y382064D02*
X833005Y381595D01*
X832067Y380189D01*
X831599Y377845D01*
Y376439D01*
X832067Y374095D01*
X833005Y372689D01*
X834411Y372220D01*
X835349D01*
X836755Y372689D01*
X837692Y374095D01*
X838161Y376439D01*
Y377845D01*
X837692Y380189D01*
X836755Y381595D01*
X835349Y382064D01*
X834411D01*
X843786D02*
X842380Y381595D01*
X841442Y380189D01*
X840974Y377845D01*
Y376439D01*
X841442Y374095D01*
X842380Y372689D01*
X843786Y372220D01*
X844724D01*
X846130Y372689D01*
X847067Y374095D01*
X847536Y376439D01*
Y377845D01*
X847067Y380189D01*
X846130Y381595D01*
X844724Y382064D01*
X843786D01*
X853161D02*
X851755Y381595D01*
X850817Y380189D01*
X850349Y377845D01*
Y376439D01*
X850817Y374095D01*
X851755Y372689D01*
X853161Y372220D01*
X854099D01*
X855505Y372689D01*
X856442Y374095D01*
X856911Y376439D01*
Y377845D01*
X856442Y380189D01*
X855505Y381595D01*
X854099Y382064D01*
X853161D01*
X860661D02*
X865817D01*
X863005Y378314D01*
X864411D01*
X865349Y377845D01*
X865817Y377376D01*
X866286Y375970D01*
Y375032D01*
X865817Y373626D01*
X864880Y372689D01*
X863474Y372220D01*
X862067D01*
X860661Y372689D01*
X860192Y373157D01*
X859724Y374095D01*
X877067Y382064D02*
Y372220D01*
X880817Y382064D02*
Y372220D01*
Y382064D02*
X887380Y372220D01*
Y382064D02*
Y372220D01*
X897692Y379720D02*
X897224Y380657D01*
X896286Y381595D01*
X895349Y382064D01*
X893474D01*
X892536Y381595D01*
X891599Y380657D01*
X891130Y379720D01*
X890661Y378314D01*
Y375970D01*
X891130Y374564D01*
X891599Y373626D01*
X892536Y372689D01*
X893474Y372220D01*
X895349D01*
X896286Y372689D01*
X897224Y373626D01*
X897692Y374564D01*
X900974Y382064D02*
Y372220D01*
X907536Y382064D02*
Y372220D01*
X900974Y377376D02*
X907536D01*
X918786Y382064D02*
Y372220D01*
Y382064D02*
X922536Y372220D01*
X926286Y382064D02*
X922536Y372220D01*
X926286Y382064D02*
Y372220D01*
X930036Y382064D02*
Y372220D01*
X933786Y382064D02*
Y372220D01*
Y382064D02*
X940349Y372220D01*
Y382064D02*
Y372220D01*
M02*
